<?xml version="1.0" encoding="UTF-8"?>
<svg width="32px" height="32px" viewBox="0 0 32 32" version="1.1" xmlns="http://www.w3.org/2000/svg" xmlns:xlink="http://www.w3.org/1999/xlink">
    <!-- Generator: Sketch 57.1 (83088) - https://sketch.com -->
    <title>power/off</title>
    <desc>Created with Sketch.</desc>
    <g id="power/off" stroke="none" stroke-width="1" fill="none" fill-rule="evenodd">
        <path d="M21.5,5.4000001 C21.8000932,5.4000001 22.0796038,5.48812463 22.3140651,5.639907 C26.3225618,7.88614426 29,12.1303975 29,17 C29,19.2412823 28.4328139,21.3500913 27.4341457,23.1907228 L25.1907928,20.9472172 C25.6767853,19.8171185 25.9604422,18.5794793 25.9961582,17.2799048 L26,17 C26,13.2338702 23.9180689,9.95400149 20.8423231,8.24851013 C20.8018585,8.22873831 20.7624156,8.20719883 20.7240948,8.18399224 C20.7108518,8.17688103 20.6975909,8.16979878 20.6843123,8.16274559 C20.6771161,8.15892321 20.67064,8.1533683 20.6648471,8.14618872 C20.263873,7.87693785 20,7.41928439 20,6.9000001 C20,6.07157297 20.6715729,5.4000001 21.5,5.4000001 Z M16,1 C17.1045695,1 18,1.90017617 18,2.99201702 L18,10.007983 C18,11.0315415 17.2315884,11.8747936 16.2288462,11.9872594 L14,9.757 L14,2.99201702 C14,1.8918564 14.8877296,1 16,1 Z M10.5,5.4000001 C11.3284271,5.4000001 12,6.07157297 12,6.9000001 C12,7.14854304 11.9395512,7.38296741 11.8325536,7.58937334 L9.811,5.568 L9.83182183,5.55667225 C10.0330237,5.4563998 10.2599254,5.4000001 10.5,5.4000001 Z M16,27.144 L16,27 C17.9309188,27 19.7340152,26.4527273 21.2626394,25.5048316 L23.4279033,27.6703288 C21.4005367,29.0842744 18.9513066,29.9351957 16.3068562,29.9964496 L16,30 C8.82029825,30 3,24.1797017 3,17 C3,14.2414185 3.85921938,11.6835185 5.33289588,9.57584096 L7.49532888,11.7371018 C6.54733451,13.2657813 6,15.0689722 6,17 C6,22.5228475 10.4771525,27 16,27 L16,27.144 Z" id="Shape" fill-opacity="0.4" fill="#FFFFFF"></path>
        <path d="M2.33761941,4.45893976 L27.5410602,29.6623806 C28.1269203,30.2482407 29.0832754,30.2512484 29.6672619,29.6672619 C30.2548137,29.0797101 30.2518503,28.13053 29.6623806,27.5410602 L4.45893976,2.33761941 C3.87307966,1.75175932 2.91672463,1.74875159 2.33273811,2.33273811 C1.74518629,2.92028993 1.7481497,3.86947004 2.33761941,4.45893976 Z" id="Combined-Shape" fill="#FFFFFF"></path>
    </g>
</svg>