<?xml version="1.0" encoding="UTF-8"?>
<svg width="32px" height="32px" viewBox="0 0 32 32" version="1.1" xmlns="http://www.w3.org/2000/svg" xmlns:xlink="http://www.w3.org/1999/xlink">
    <!-- Generator: Sketch 57.1 (83088) - https://sketch.com -->
    <title>power/on</title>
    <desc>Created with Sketch.</desc>
    <g id="power/on" stroke="none" stroke-width="1" fill="none" fill-rule="evenodd">
        <path d="M16,1 C17.1045695,1 18,1.90017617 18,2.99201702 L18,10.007983 C18,11.0581363 17.1911389,11.9184918 16.1502192,11.9945362 L16,12 C14.8954305,12 14,11.0998238 14,10.007983 L14,2.99201702 C14,1.8918564 14.8877296,1 16,1 Z M16,27.491 L16,27 C21.4292399,27 25.8479317,22.6733292 25.9961582,17.2799048 L26,17 C26,13.2338702 23.9180689,9.95400149 20.8423231,8.24851013 C20.8018585,8.22873831 20.7624156,8.20719883 20.7240948,8.18399224 C20.7108518,8.17688103 20.6975909,8.16979878 20.6843123,8.16274559 C20.6771161,8.15892321 20.67064,8.1533683 20.6648471,8.14618872 C20.263873,7.87693785 20,7.41928439 20,6.9000001 C20,6.07157297 20.6715729,5.4000001 21.5,5.4000001 C21.8000932,5.4000001 22.0796038,5.48812463 22.3140651,5.639907 C26.3225618,7.88614426 29,12.1303975 29,17 C29,24.0771346 23.3448082,29.8334283 16.3068562,29.9964496 L16,30 C8.82029825,30 3,24.1797017 3,17 C3,12.1303975 5.67743817,7.88614426 9.68593486,5.639907 C9.92039618,5.48812463 10.1999068,5.4000001 10.5,5.4000001 C11.3284271,5.4000001 12,6.07157297 12,6.9000001 C12,7.41928439 11.736127,7.87693785 11.3351529,8.14618872 C11.32936,8.1533683 11.3228839,8.15892321 11.3156877,8.16274559 C11.3024091,8.16979878 11.2891482,8.17688103 11.2759052,8.18399224 C11.2375844,8.20719883 11.1981415,8.22873831 11.1576769,8.24851013 C8.08193108,9.95400149 6,13.2338702 6,17 C6,22.5228475 10.4771525,27 16,27 L16,27.491 Z" id="Combined-Shape" fill="#FFFFFF"></path>
    </g>
</svg>