<?xml version="1.0" encoding="UTF-8"?>
<svg width="32px" height="32px" viewBox="0 0 32 32" version="1.1" xmlns="http://www.w3.org/2000/svg" xmlns:xlink="http://www.w3.org/1999/xlink">
    <!-- Generator: Sketch 55.2 (78181) - https://sketchapp.com -->
    <title>A</title>
    <desc>Created with Sketch.</desc>
    <g id="A" stroke="none" stroke-width="1" fill="none" fill-rule="evenodd">
        <path d="M2.99161703,1 L29.008383,1 C30.1021596,1 31,1.89167732 31,2.99161703 L31,29.008383 C31,30.1021596 30.1083227,31 29.008383,31 L2.99161703,31 C1.89784041,31 1,30.1083227 1,29.008383 L1,2.99161703 C1,1.89784041 1.89167732,1 2.99161703,1 Z M28,27.1421625 L28,5.14355178 C28,4.59032636 27.5519738,4.14285714 26.9993054,4.14285714 L5.00069463,4.14285714 C4.44746922,4.14285714 4,4.59088339 4,5.14355178 L4,27.1421625 C4,27.6953879 4.44802625,28.1428571 5.00069463,28.1428571 L26.9993054,28.1428571 C27.5525308,28.1428571 28,27.6948309 28,27.1421625 Z" id="Combined-Shape" fill-opacity="0.4" fill="#FFFFFF"></path>
        <path d="M25,25 L21.8005427,25 C21.442332,25 21.1472196,24.9155808 20.9151967,24.7467399 C20.6831739,24.5778989 20.5223885,24.3617034 20.4328358,24.0981469 L19.3826323,20.9601922 L12.6173677,20.9601922 L11.5671642,24.0981469 C11.4857526,24.3287589 11.3270025,24.5367184 11.0909091,24.7220316 C10.8548156,24.9073448 10.565809,25 10.2238806,25 L7,25 L13.8873813,7 L18.1126187,7 L25,25 Z M13.5698779,18.1187371 L18.4301221,18.1187371 L16.7937585,13.1894303 C16.6879235,12.8764569 16.5637728,12.5078951 16.4213026,12.0837337 C16.2788324,11.6595723 16.1383996,11.2004143 16,10.7062457 C15.8697415,11.2086504 15.7354145,11.6739855 15.5970149,12.1022649 C15.4586153,12.5305444 15.3283588,12.9011652 15.2062415,13.2141386 L13.5698779,18.1187371 Z" fill="#FFFFFF"></path>
    </g>
</svg>