<?xml version="1.0" encoding="UTF-8"?>
<svg width="32px" height="32px" viewBox="0 0 32 32" version="1.1" xmlns="http://www.w3.org/2000/svg" xmlns:xlink="http://www.w3.org/1999/xlink">
    <!-- Generator: Sketch 55.2 (78181) - https://sketchapp.com -->
    <title>add-to-folder</title>
    <desc>Created with Sketch.</desc>
    <g id="add-to-folder" stroke="none" stroke-width="1" fill="none" fill-rule="evenodd">
        <g id="add-to-bin" transform="translate(1.000000, 1.000000)" fill="#FFFFFF">
            <path d="M22.3432104,25 L25.9300434,21.4377901 C26.4868218,20.8848338 26.652427,20.0515275 26.3525804,19.3283275 C26.052724,18.6051041 25.3458044,18.1359711 24.5652161,18.1359711 L20.8478168,18.1359711 L20.8478168,11.4317986 C20.8478168,10.3626968 19.9791568,9.5 18.9130336,9.5 L11.0869347,9.5 C10.0208114,9.5 9.15215144,10.3626968 9.15215144,11.4317986 L9.15215144,18.1359711 L5.4347522,18.1359711 C4.65520613,18.1359711 3.9517948,18.6035007 3.65003708,19.3219792 C3.34683542,20.05323 3.51396471,20.8886359 4.07450908,21.4414663 L7.65763552,25 L0.998153687,25 C0.446888627,25 0,24.5538424 0,24.0092267 L0,0.5 C0,0.224 0.224,0 0.5,0 L9.326,0 C9.474,0 9.614,0.065 9.709,0.178 L12.081,3 L28.9982005,3 C29.5514791,3 30,3.43945834 30,4.00246167 L30,23.9975383 C30,24.5511826 29.5526348,25 29.0018463,25 L22.3432104,25 Z" id="Combined-Shape" fill-opacity="0.4"></path>
            <path d="M24.5652161,19.6359711 L19.3478168,19.6359711 L19.3478168,11.4317986 C19.3478168,11.1934458 19.1530339,11 18.9130336,11 L11.0869347,11 C10.8469343,11 10.6521514,11.1934458 10.6521514,11.4317986 L10.6521514,19.6359711 L5.4347522,19.6359711 C5.25909976,19.6359711 5.10083865,19.7413299 5.03301246,19.9028226 C4.96605584,20.0643153 5.00257763,20.2499886 5.12779521,20.373483 L14.6930272,29.8730512 C14.7773751,29.9576837 14.8886796,30 14.9999841,30 C15.1112887,30 15.2225932,29.9576837 15.3078107,29.8730512 L24.8730426,20.373483 C24.9973907,20.2499886 25.0339125,20.0643153 24.9669558,19.9028226 C24.8999992,19.7413299 24.7408685,19.6359711 24.5652161,19.6359711 Z" id="Fill-47"></path>
        </g>
    </g>
</svg>