<?xml version="1.0" encoding="UTF-8"?>
<svg width="32px" height="32px" viewBox="0 0 32 32" version="1.1" xmlns="http://www.w3.org/2000/svg" xmlns:xlink="http://www.w3.org/1999/xlink">
    <!-- Generator: Sketch 55.2 (78181) - https://sketchapp.com -->
    <title>add-to-timeline</title>
    <desc>Created with Sketch.</desc>
    <g id="add-to-timeline" stroke="none" stroke-width="1" fill="none" fill-rule="evenodd">
        <g transform="translate(5.000000, 1.000000)" fill="#FFFFFF" id="Fill-47">
            <path d="M22.9619643,18.309 C22.8849643,18.122 22.7019643,18 22.4999643,18 L16.4999643,18 L16.4999643,0.5 C16.4999643,0.224 16.2759643,0 15.9999643,0 L6.99996427,0 C6.72396427,0 6.49996427,0.224 6.49996427,0.5 L6.49996427,18 L0.49996427,18 C0.29796427,18 0.11596427,18.122 0.03796427,18.309 C-0.03903573,18.496 0.00296427002,18.711 0.14696427,18.854 L11.1469643,29.854 C11.2439643,29.952 11.3719643,30.001 11.4999643,30.001 C11.6279643,30.001 11.7559643,29.952 11.8539643,29.854 L22.8539643,18.854 C22.9969643,18.711 23.0389643,18.496 22.9619643,18.309"></path>
        </g>
    </g>
</svg>