<?xml version="1.0" encoding="UTF-8"?>
<svg width="32px" height="32px" viewBox="0 0 32 32" version="1.1" xmlns="http://www.w3.org/2000/svg" xmlns:xlink="http://www.w3.org/1999/xlink">
    <!-- Generator: Sketch 55.2 (78181) - https://sketchapp.com -->
    <title>alarm-active-danger</title>
    <desc>Created with Sketch.</desc>
    <g id="alarm-active-danger" stroke="none" stroke-width="1" fill="none" fill-rule="evenodd">
        <path d="M18.229195,27 C18.4984313,27 18.716942,27.2187907 18.716942,27.4883721 L18.716942,27.8067907 C18.716942,29.2465116 17.5463492,30.4186047 16.108471,30.4186047 C14.6705928,30.4186047 13.5,29.2465116 13.5,27.8067907 L13.5,27.4883721 C13.5,27.2187907 13.7185107,27 13.987747,27 L18.229195,27 Z M25.4915568,25.0095418 L25.7071923,25.102839 C25.9238546,25.198021 26.0398871,25.4166569 25.9875185,25.6315231 C25.9351498,25.8473318 25.7267022,26 25.4864226,26 L6.51357742,26 C6.27329784,26 6.06587701,25.8473318 6.01248155,25.6315231 C5.96011292,25.4166569 6.07614537,25.198021 6.29280772,25.102839 L6.50844324,25.0095418 C7.61947958,24.5308046 8.40500897,24.1378254 8.40500897,23.4338556 L8.40500897,18.9659559 C8.40500897,16.182118 10.0089265,13.8675934 12.713612,12.7169278 C12.8861204,11.1930734 14.0010268,9.5 16.0005134,9.5 C18,9.5 19.1138796,11.1930734 19.286388,12.7169278 C21.9910735,13.8685358 23.594991,16.1830604 23.594991,18.9659559 L23.594991,23.4338556 C23.594991,24.1378254 24.3805204,24.5308046 25.4915568,25.0095418 Z" id="Combined-Shape" fill="#FFFFFF"></path>
        <path d="M19.844571,4.69412634 C24.0601445,4.69412634 27.4891543,8.1051909 27.4891543,12.2994089 C27.4891543,12.9623456 26.9487215,13.5 26.2823591,13.5 C25.615159,13.5 25.0755639,12.9624365 25.0755639,12.2994089 C25.0755639,9.43076081 22.728043,7.09530846 19.844571,7.09530846 C19.1782086,7.09530846 18.6377758,6.55765404 18.6377758,5.8947174 C18.6377758,5.23178075 19.1782086,4.69412634 19.844571,4.69412634 Z M19.844571,1 C25.9962816,1 31,5.97799427 31,12.0980791 C31,12.7610157 30.4595672,13.2986701 29.7932048,13.2986701 C29.1268424,13.2986701 28.5864096,12.7610157 28.5864096,12.0980791 C28.5864096,7.30294403 24.6644851,3.40118212 19.844571,3.40118212 C19.1782086,3.40118212 18.6377758,2.86352771 18.6377758,2.20059106 C18.6377758,1.53765441 19.1782086,1 19.844571,1 Z M12.1445833,4.69412634 C7.9290098,4.69412634 4.5,8.1051909 4.5,12.2994089 C4.5,12.9623456 5.04043278,13.5 5.70679519,13.5 C6.37399531,13.5 6.91359037,12.9624365 6.91359037,12.2994089 C6.91359037,9.43076081 9.2611113,7.09530846 12.1445833,7.09530846 C12.8109458,7.09530846 13.3513785,6.55765404 13.3513785,5.8947174 C13.3513785,5.23178075 12.8109458,4.69412634 12.1445833,4.69412634 Z M12.155429,1 C6.00371835,1 1,5.97799427 1,12.0980791 C1,12.7610157 1.54043278,13.2986701 2.20679519,13.2986701 C2.87315759,13.2986701 3.41359037,12.7610157 3.41359037,12.0980791 C3.41359037,7.30294403 7.33551487,3.40118212 12.155429,3.40118212 C12.8217914,3.40118212 13.3622242,2.86352771 13.3622242,2.20059106 C13.3622242,1.53765441 12.8217914,1 12.155429,1 Z" id="Combined-Shape" fill="#FFFFFF"></path>
    </g>
</svg>