<?xml version="1.0" encoding="UTF-8"?>
<svg width="32px" height="32px" viewBox="0 0 32 32" version="1.1" xmlns="http://www.w3.org/2000/svg" xmlns:xlink="http://www.w3.org/1999/xlink">
    <!-- Generator: Sketch 55.2 (78181) - https://sketchapp.com -->
    <title>alarm-inactive</title>
    <desc>Created with Sketch.</desc>
    <g id="alarm-inactive" stroke="none" stroke-width="1" fill="none" fill-rule="evenodd">
        <path d="M29.9843312,25.739 L9.71687769,5.47154648 C10.3661016,5.02193362 11.0713661,4.64025675 11.8256061,4.337 C12.2606061,2.415 14.0056061,1 16.0006061,1 C18.0256061,1 19.7356061,2.387 20.1716061,4.338 C24.3296061,6.01 27.0006061,10.061 27.0006061,14.739 L27.0006061,21.739 C27.0006061,23.178 28.1506061,24.136 30.6216061,24.754 C30.8666061,24.815 31.0276061,25.049 30.9966061,25.3 C30.9656061,25.55 30.7526061,25.739 30.5006061,25.739 L29.9843312,25.739 Z M21.4990498,25.739 L1.50060607,25.739 C1.24760607,25.739 1.03460607,25.55 1.00360607,25.3 C0.973606066,25.049 1.13360607,24.815 1.37860607,24.754 C3.84960607,24.136 5.00060607,23.178 5.00060607,21.739 L5.00060607,14.739 C5.00060607,13.1119515 5.32333914,11.5607193 5.91910489,10.1590551 L21.4990498,25.739 Z M19.5,27 C19.776,27 20,27.224 20,27.5 C20,29.855 18.855,31 16.5,31 C14.145,31 13,29.855 13,27.5 C13,27.224 13.224,27 13.5,27 L19.5,27 Z" id="alarm" fill-opacity="0.4" fill="#FFFFFF"></path>
        <path d="M1.94383059,4.06246041 L27.1472714,29.2659012 C27.7331315,29.8517613 28.6894865,29.8547691 29.2734731,29.2707825 C29.8610249,28.6832307 29.8580615,27.7340506 29.2685918,27.1445809 L4.06515093,1.94114006 C3.47929083,1.35527997 2.5229358,1.35227224 1.93894928,1.93625876 C1.35139746,2.52381058 1.35436087,3.47299069 1.94383059,4.06246041 Z" id="not-allowed" fill="#FFFFFF"></path>
    </g>
</svg>