<?xml version="1.0" encoding="UTF-8"?>
<svg width="32px" height="32px" viewBox="0 0 32 32" version="1.1" xmlns="http://www.w3.org/2000/svg" xmlns:xlink="http://www.w3.org/1999/xlink">
    <!-- Generator: Sketch 55.2 (78181) - https://sketchapp.com -->
    <title>append-file</title>
    <desc>Created with Sketch.</desc>
    <g id="append-file" stroke="none" stroke-width="1" fill="none" fill-rule="evenodd">
        <path d="M22.7866602,21.6026387 C22.264164,21.7566462 21.8146975,22.0752114 21.4972715,22.49848 C21.0400292,21.892814 20.3134128,21.5 19.4970707,21.5 L14.5029293,21.5 C13.6788992,21.5 12.952375,21.8916266 12.4972715,22.49848 C12.0400292,21.892814 11.3134128,21.5 10.4970707,21.5 L5.50292933,21.5 C4.11269636,21.5 3,22.6147082 3,23.9970301 L3,30.0029699 C3,30.3570473 3.07447369,30.6943331 3.2086198,31 L2,31 C1.44771525,31 1,30.5522847 1,30 L1,2 C1,1.44771525 1.44771525,1 2,1 L17.2857143,1 C17.4931429,1 17.692,1.07542857 17.848,1.21085714 L23.3833735,6.05344474 C22.9361782,6.57738941 22.6661939,7.2571656 22.6661939,8 L22.6661939,14.3341299 L22.0038941,14.3341299 C19.8429527,14.3341299 18.7323533,16.5781742 20.1010013,18.2743269 L22.7866602,21.6026387 Z" id="Combined-Shape" fill="#FFFFFF"></path>
        <path d="M22.5,23.9970301 C22.5,23.4463856 22.9378814,23 23.5029293,23 L28.4970707,23 C29.0509732,23 29.5,23.4530363 29.5,23.9970301 L29.5,30.0029699 C29.5,30.5536144 29.0621186,31 28.4970707,31 L23.5029293,31 C22.9490268,31 22.5,30.5469637 22.5,30.0029699 L22.5,23.9970301 Z" id="Combined-Shape" fill="#FFFFFF"></path>
        <path d="M13.5,23.9970301 C13.5,23.4463856 13.9378814,23 14.5029293,23 L19.4970707,23 C20.0509732,23 20.5,23.4530363 20.5,23.9970301 L20.5,30.0029699 C20.5,30.5536144 20.0621186,31 19.4970707,31 L14.5029293,31 C13.9490268,31 13.5,30.5469637 13.5,30.0029699 L13.5,23.9970301 Z M4.5,23.9970301 C4.5,23.4463856 4.93788135,23 5.50292933,23 L10.4970707,23 C11.0509732,23 11.5,23.4530363 11.5,23.9970301 L11.5,30.0029699 C11.5,30.5536144 11.0621186,31 10.4970707,31 L5.50292933,31 C4.94902676,31 4.5,30.5469637 4.5,30.0029699 L4.5,23.9970301 Z" id="Combined-Shape" fill-opacity="0.4" fill="#FFFFFF"></path>
        <path d="M24.1635457,8 L24.1635457,15.8341299 L22.0012459,15.8341299 C21.0918628,15.8341299 20.6946576,16.6246727 21.2657093,17.3323717 L25.0576112,22.0316401 C25.5621502,22.6569107 26.4368561,22.6553306 26.9401203,22.0316401 L30.7320221,17.3323717 C31.3018758,16.6261573 30.9112225,15.8341299 30.0096118,15.8341299 L27.8862034,15.8341299 L27.8862034,8 C27.8862034,7.17157288 27.2146305,6.5 26.3862034,6.5 L25.6635457,6.5 C24.8351185,6.5 24.1635457,7.17157288 24.1635457,8 Z" id="Path" fill="#FFFFFF"></path>
    </g>
</svg>