<?xml version="1.0" encoding="UTF-8"?>
<svg width="32px" height="32px" viewBox="0 0 32 32" version="1.1" xmlns="http://www.w3.org/2000/svg" xmlns:xlink="http://www.w3.org/1999/xlink">
    <!-- Generator: Sketch 55.2 (78181) - https://sketchapp.com -->
    <title>arrow-left-blue</title>
    <desc>Created with Sketch.</desc>
    <g id="arrow-left-blue" stroke="none" stroke-width="1" fill="none" fill-rule="evenodd">
        <path d="M16.1125316,7.85291333 C17.2129171,6.74380034 17.2129171,4.94137278 16.1133809,3.83311698 C15.0141278,2.72230449 13.2355169,2.72230449 12.1363241,3.83305608 L1.81656585,14.2595163 C1.68952156,14.3906874 1.57493294,14.5321359 1.46255966,14.7013778 C1.3965476,14.8139972 1.3965476,14.8139972 1.36483226,14.8787527 C1.35188659,14.9043632 1.33893696,14.9286594 1.32598336,14.9516413 C1.27986056,15.0331549 1.24656621,15.0978915 1.21467577,15.1772446 C1.17920358,15.2642973 1.15680042,15.3370409 1.13118046,15.432616 C1.08777155,15.5645375 1.06677048,15.6377967 1.05566546,15.7050923 C0.982273824,16.0730568 0.982273824,16.4542216 1.0508159,16.7959721 C1.06677048,16.8894817 1.08777155,16.9627409 1.11676145,17.0475916 C1.13856867,17.1209402 1.13856867,17.1209402 1.14831107,17.1554881 C1.17241126,17.2374473 1.17241126,17.2374473 1.21299905,17.3458911 C1.24548584,17.4266995 1.27907883,17.4924704 1.3203701,17.566536 C1.33404395,17.5915344 1.33404395,17.5915344 1.35951402,17.6389552 C1.40591488,17.7290823 1.40591488,17.7290823 1.47432474,17.8440171 C1.57493294,17.9951425 1.68952156,18.136591 1.82371556,18.2750644 L12.1362638,28.6941614 C13.2355169,29.8049739 15.0141278,29.8049739 16.1133809,28.6941614 C16.6471486,28.1547808 16.937352,27.4325182 16.937352,26.6846918 C16.937352,25.9368654 16.6471486,25.2146028 16.1133809,24.6752222 L10.6018605,19.1057445 L28.1874704,19.1057445 C29.7402537,19.1057445 31,17.8327511 31,16.2636392 C31,14.6945273 29.7402537,13.4215339 28.1874704,13.4215339 L10.6018603,13.4215339 L16.1125316,7.85291333 Z" id="Combined-Shape" fill="#FFFFFF"></path>
    </g>
</svg>