<?xml version="1.0" encoding="UTF-8"?>
<svg width="32px" height="32px" viewBox="0 0 32 32" version="1.1" xmlns="http://www.w3.org/2000/svg" xmlns:xlink="http://www.w3.org/1999/xlink">
    <!-- Generator: Sketch 55.2 (78181) - https://sketchapp.com -->
    <title>audio-levels-coloured</title>
    <desc>Created with Sketch.</desc>
    <g id="audio-levels-coloured" stroke="none" stroke-width="1" fill="none" fill-rule="evenodd">
        <rect id="Rectangle-48" fill="#FFFFFF" x="1" y="24" width="8" height="3"></rect>
        <rect id="Rectangle-48" fill="#FFFFFF" x="1" y="20" width="8" height="3"></rect>
        <rect id="Rectangle-48" fill="#FFFFFF" x="1" y="16" width="8" height="3"></rect>
        <rect id="Rectangle-48" fill="#FFFFFF" x="1" y="12" width="8" height="3"></rect>
        <rect id="Rectangle-48" fill="#FFFFFF" x="12" y="24" width="8" height="3"></rect>
        <rect id="Rectangle-48" fill="#FFFFFF" x="12" y="20" width="8" height="3"></rect>
        <rect id="Rectangle-48" fill="#FFFFFF" x="12" y="16" width="8" height="3"></rect>
        <rect id="Rectangle-48" fill="#FFFFFF" x="12" y="12" width="8" height="3"></rect>
        <rect id="Rectangle-48" fill="#FFFFFF" x="12" y="8" width="8" height="3"></rect>
        <rect id="Rectangle-48" fill="#FFFFFF" x="12" y="4" width="8" height="3"></rect>
        <rect id="Rectangle-48" fill="#FFFFFF" x="12" y="1" width="8" height="2"></rect>
        <rect id="Rectangle-48" fill="#FFFFFF" x="23" y="24" width="8" height="3"></rect>
        <rect id="Rectangle-48" fill="#FFFFFF" x="1" y="28" width="8" height="3"></rect>
        <rect id="Rectangle-48" fill="#FFFFFF" x="12" y="28" width="8" height="3"></rect>
        <rect id="Rectangle-48" fill="#FFFFFF" x="23" y="28" width="8" height="3"></rect>
        <rect id="Rectangle-48" fill="#FFFFFF" x="23" y="20" width="8" height="3"></rect>
    </g>
</svg>