<?xml version="1.0" encoding="UTF-8"?>
<svg width="32px" height="32px" viewBox="0 0 32 32" version="1.1" xmlns="http://www.w3.org/2000/svg" xmlns:xlink="http://www.w3.org/1999/xlink">
    <!-- Generator: Sketch 55.2 (78181) - https://sketchapp.com -->
    <title>audio-options</title>
    <desc>Created with Sketch.</desc>
    <g id="audio-options" stroke="none" stroke-width="1" fill="none" fill-rule="evenodd">
        <path d="M16.935,16.5 L15.5,16.5 C13.8431458,16.5 12.5,17.8431458 12.5,19.5 C12.5,20.5434854 13.0327547,21.4625392 13.8411024,22 C13.0327547,22.5374608 12.5,23.4565146 12.5,24.5 C12.5,24.7601636 12.5331167,25.0125923 12.5953647,25.2533007 L7.609,20.6306598 L1,20.6306599 L1,11.6306599 L7.229,11.6306598 L16.082,2.81965977 C16.226,2.67765977 16.441,2.63665977 16.627,2.71265977 C16.814,2.79065977 16.935,2.97265977 16.935,3.17465977 L16.935,16.5 Z M30.9610324,16.8791924 C30.5286903,16.6376561 30.0304208,16.5 29.5,16.5 L28.0624816,16.5 C28.074163,16.3322296 28.0800905,16.1654293 28.0800905,15.9999547 C28.0800905,13.3921808 26.6168383,10.4656257 24.3641088,8.59792468 C23.7403936,8.08320358 23.6525709,7.15656709 24.167942,6.53008174 C24.681434,5.9088064 25.5989994,5.82104173 26.2201682,6.33366137 C29.1291653,8.74595281 31,12.5191571 31,15.9999547 C31,16.2912557 30.986846,16.5846611 30.9610324,16.8791924 Z M25.7340306,16.5 L22.8016042,16.5 C22.8222565,16.3357319 22.832633,16.1689639 22.832633,15.9997291 C22.832633,14.5488481 22.0682087,13.2786903 20.5999288,12.2071116 C19.9490997,11.7292778 19.8052279,10.8116543 20.2796889,10.1596664 C20.7532538,9.50488461 21.6666133,9.36019534 22.3184954,9.83586604 C24.519601,11.4434466 25.7525424,13.6379935 25.7525424,15.9997291 C25.7525424,16.1673873 25.7463407,16.3341938 25.7340306,16.5 Z" id="Combined-Shape" fill="#FFFFFF"></path>
        <path d="M29.5,31 L15.5,31 C14.6715729,31 14,30.3284271 14,29.5 C14,28.6715729 14.6715729,28 15.5,28 L29.5,28 C30.3284271,28 31,28.6715729 31,29.5 C31,30.3284271 30.3284271,31 29.5,31 Z M29.5,26 L15.5,26 C14.6715729,26 14,25.3284271 14,24.5 C14,23.6715729 14.6715729,23 15.5,23 L29.5,23 C30.3284271,23 31,23.6715729 31,24.5 C31,25.3284271 30.3284271,26 29.5,26 Z M29.5,21 L15.5,21 C14.6715729,21 14,20.3284271 14,19.5 C14,18.6715729 14.6715729,18 15.5,18 L29.5,18 C30.3284271,18 31,18.6715729 31,19.5 C31,20.3284271 30.3284271,21 29.5,21 Z" id="Combined-Shape" fill="#FFFFFF"></path>
    </g>
</svg>