<?xml version="1.0" encoding="UTF-8"?>
<svg width="32px" height="32px" viewBox="0 0 32 32" version="1.1" xmlns="http://www.w3.org/2000/svg" xmlns:xlink="http://www.w3.org/1999/xlink">
    <!-- Generator: Sketch 55.2 (78181) - https://sketchapp.com -->
    <title>audio-expand-right</title>
    <desc>Created with Sketch.</desc>
    <g id="audio-expand-right" stroke="none" stroke-width="1" fill="none" fill-rule="evenodd">
        <path d="M28.0733633,16.632575 C28.0778345,16.5295637 28.0800905,16.4269735 28.0800905,16.3248878 C28.0800905,13.7171139 26.6168383,10.7905589 24.3641088,8.92285784 C23.7403936,8.40813673 23.6525709,7.48150024 24.167942,6.85501489 C24.681434,6.23373956 25.5989994,6.14597489 26.2201682,6.65859453 C29.1291653,9.07088596 31,12.8440903 31,16.3248878 C31,17.1956482 30.8824637,18.085212 30.6605985,18.9674425 L28.0733633,16.632575 Z M25.2960802,14.1261976 C24.1837147,13.1200193 22.6845569,12.7923741 21.3198057,13.1259177 C21.1025895,12.9216769 20.862515,12.7236852 20.5999288,12.5320447 C19.9490997,12.0542109 19.8052279,11.1365875 20.2796889,10.4845996 C20.7532538,9.82981776 21.6666133,9.6851285 22.3184954,10.1607992 C23.8539513,11.2822215 24.9182758,12.6892753 25.4215877,14.2394627 L25.2960802,14.1261976 Z M16.082,3.14459292 C16.226,3.00259292 16.441,2.96159292 16.627,3.03759292 C16.814,3.11559292 16.935,3.29759292 16.935,3.49959292 L16.935,28.455593 C16.935,28.654593 16.817,28.834593 16.635,28.913593 C16.571,28.942593 16.503,28.955593 16.435,28.955593 C16.312,28.955593 16.19,28.910593 16.095,28.822593 L7.609,20.955593 L1,20.9555931 L1,11.9555931 L7.229,11.955593 L16.082,3.14459292 Z" id="Combined-Shape" fill="#FFFFFF"></path>
        <path d="M20.7750531,19.0685217 C19.7909974,18.1849857 19.7364226,16.6703477 20.6547408,15.7235423 C21.5419079,14.8042901 23.0091977,14.7546622 23.955626,15.6107428 L30.2280369,21.2713194 C30.7191581,21.713443 31.0004018,22.3408094 31.0004018,23.0001513 C31.0004018,23.6591709 30.719395,24.2866475 30.2298045,24.72739 L23.9572743,30.3880706 C23.0100168,31.2448986 21.5426728,31.1968099 20.6580829,30.2802148 C19.7376177,29.3311817 19.7899953,27.8171355 20.7717695,26.9347357 L25.1313925,23.0001504 L20.7750531,19.0685217 Z" id="Path" fill="#FFFFFF"></path>
    </g>
</svg>