<?xml version="1.0" encoding="UTF-8"?>
<svg width="32px" height="32px" viewBox="0 0 32 32" version="1.1" xmlns="http://www.w3.org/2000/svg" xmlns:xlink="http://www.w3.org/1999/xlink">
    <!-- Generator: Sketch 55.2 (78181) - https://sketchapp.com -->
    <title>audio-2</title>
    <desc>Created with Sketch.</desc>
    <g id="audio-2" stroke="none" stroke-width="1" fill="none" fill-rule="evenodd">
        <g transform="translate(1.000000, 1.000000)" fill="#FFFFFF">
            <g id="audio1" fill-opacity="0.4">
                <path d="M22.7425876,11.5 L21.4791105,11.5 L21.4791105,6.3034872 L8.84433962,11.472372 L8.84433962,21.1556604 L8.84433962,23.050876 L8.84433962,25.5778302 C8.84433962,27.934215 6.77855458,30 4.42216981,30 C1.98365903,30 3.55271368e-15,28.016341 3.55271368e-15,25.5778302 C3.55271368e-15,23.1405829 1.98365903,21.1556604 4.42216981,21.1556604 L7.58086253,21.1556604 L7.58086253,11.9891341 L7.58086253,11.0478437 L7.58086253,6.20240903 L22.7425876,0 L22.7425876,5.36219677 L22.7425876,5.78672507 L22.7425876,11.5 Z" id="Combined-Shape"></path>
            </g>
            <path d="M15,13 L28,13 C29.1045695,13 30,13.8954305 30,15 L30,28 C30,29.1045695 29.1045695,30 28,30 L15,30 C13.8954305,30 13,29.1045695 13,28 L13,15 C13,13.8954305 13.8954305,13 15,13 Z M21.7109375,15 C21.1249971,15 20.577151,15.077958 20.0673828,15.2338764 C19.5576146,15.3897949 19.1049824,15.6266108 18.7094727,15.9443313 C18.3139629,16.2620518 17.9829115,16.6591965 17.7163086,17.1357773 C17.4497057,17.6123581 17.2695317,18.1713025 17.1757812,18.8126273 L18.6171875,19.0685675 C18.6875004,19.080335 18.7563473,19.0891604 18.8237305,19.0950441 C18.8911136,19.1009278 18.9541013,19.1038697 19.0126953,19.1038697 C19.2587903,19.1038697 19.4536126,19.0450334 19.597168,18.9273591 C19.7407234,18.8096849 19.8593745,18.618467 19.953125,18.3536999 C20.011719,18.1948397 20.089355,18.047749 20.1860352,17.9124236 C20.2827153,17.7770982 20.3984368,17.6594257 20.5332031,17.5594026 C20.6679694,17.4593795 20.8203117,17.3799505 20.9902344,17.3211134 C21.1601571,17.2622762 21.3476552,17.2328581 21.5527344,17.2328581 C22.0507837,17.2328581 22.4213855,17.3696524 22.6645508,17.6432451 C22.9077161,17.9168378 23.0292969,18.3095697 23.0292969,18.8214528 C23.0292969,19.1332896 22.9912113,19.4289418 22.9150391,19.7084182 C22.8388668,19.9878946 22.7246101,20.2673668 22.5722656,20.5468432 C22.4199211,20.8263196 22.2265637,21.1102045 21.9921875,21.3985064 C21.7578113,21.6868084 21.4824235,21.9898151 21.1660156,22.3075356 L17.4746094,26.0407332 C17.2988272,26.1995935 17.1757816,26.3761022 17.1054688,26.5702648 C17.0351559,26.7644273 17,26.9468197 17,27.1174474 L17,28 L26,28 L26,26.4114053 C26,26.1466382 25.9150399,25.9333568 25.7451172,25.7715547 C25.5751945,25.6097525 25.3437515,25.5288527 25.0507812,25.5288527 L22.6601562,25.5288527 C22.3847642,25.5288527 22.0903336,25.5567999 21.7768555,25.6126952 C21.4633773,25.6685905 21.1455094,25.7436067 20.8232422,25.8377461 L23.328125,23.2606925 C23.6679704,22.9135534 23.988768,22.5708322 24.2905273,22.2325187 C24.5922867,21.8942051 24.8574207,21.5441294 25.0859375,21.1822811 C25.3144543,20.8204327 25.4946282,20.4394679 25.6264648,20.0393754 C25.7583014,19.6392829 25.8242188,19.2038946 25.8242188,18.7331976 C25.8242188,18.1860122 25.7290049,17.6844331 25.5385742,17.2284453 C25.3481436,16.7724576 25.0742205,16.3797256 24.7167969,16.0502376 C24.3593732,15.7207497 23.9272486,15.463341 23.4204102,15.2780041 C22.9135717,15.0926671 22.3437532,15 21.7109375,15 Z" id="Combined-Shape"></path>
        </g>
    </g>
</svg>