<?xml version="1.0" encoding="UTF-8"?>
<svg width="32px" height="32px" viewBox="0 0 32 32" version="1.1" xmlns="http://www.w3.org/2000/svg" xmlns:xlink="http://www.w3.org/1999/xlink">
    <!-- Generator: Sketch 55.2 (78181) - https://sketchapp.com -->
    <title>back-button-arrow</title>
    <desc>Created with Sketch.</desc>
    <g id="back-button-arrow" stroke="none" stroke-width="1" fill="none" fill-rule="evenodd">
        <path d="M6.21104359,15.5274587 L22.346559,1.1505454 C22.467413,1.04242011 22.6189315,0.989294972 22.7836778,1.00179501 C22.9424114,1.01429504 23.0903223,1.09242025 23.1943409,1.21867058 L25.8555345,4.44617919 C26.070787,4.70805489 26.0425276,5.10243094 25.790598,5.32680654 L13.8122206,16.001835 L25.7893955,26.6724885 C26.0419263,26.8974891 26.0713882,27.2918651 25.8549333,27.5537408 L23.1937397,30.7812494 C23.0746894,30.9262498 22.9057343,31 22.7367792,31 C22.5984885,31 22.4589953,30.9506249 22.3459577,30.8499996 L6.21044233,16.4768363 C6.07696177,16.358086 6,16.1843355 6,16.001835 C6.00060126,15.8193345 6.07756303,15.6462091 6.21104359,15.5274587 Z" id="Shape" fill="#FFFFFF"></path>
    </g>
</svg>