<?xml version="1.0" encoding="UTF-8"?>
<svg width="32px" height="32px" viewBox="0 0 32 32" version="1.1" xmlns="http://www.w3.org/2000/svg" xmlns:xlink="http://www.w3.org/1999/xlink">
    <!-- Generator: Sketch 57.1 (83088) - https://sketch.com -->
    <title>black</title>
    <desc>Created with Sketch.</desc>
    <g id="black" stroke="none" stroke-width="1" fill="none" fill-rule="evenodd">
        <path d="M5,1 L27,1 C29.209139,1 31,2.790861 31,5 L31,27 C31,29.209139 29.209139,31 27,31 L5,31 C2.790861,31 1,29.209139 1,27 L1,5 C1,2.790861 2.790861,1 5,1 Z" id="Rectangle" fill-opacity="0.4" fill="#FFFFFF"></path>
        <path d="M10,23.75 L10,8 L15.7021277,8 C16.773055,8 17.6843934,8.10089124 18.4361702,8.30267673 C19.187947,8.50446223 19.8014161,8.78911964 20.2765957,9.15665752 C20.7517754,9.52419539 21.0975166,9.97099943 21.3138298,10.497083 C21.5301429,11.0231667 21.6382979,11.6104978 21.6382979,12.259094 C21.6382979,12.6122186 21.588653,12.9527266 21.4893617,13.280628 C21.3900704,13.6085294 21.2340436,13.916608 21.0212766,14.204873 C20.8085096,14.493138 20.5354627,14.7543743 20.2021277,14.9885896 C19.8687927,15.2228049 19.4680874,15.426389 19,15.599348 C20.0212817,15.8515798 20.7765933,16.2605497 21.2659574,16.8262697 C21.7553216,17.3919898 22,18.1180464 22,19.0044612 C22,19.6746773 21.8723417,20.298041 21.6170213,20.874571 C21.3617009,21.451101 20.9875911,21.9537556 20.4946809,22.3825498 C20.0017706,22.8113439 19.3936206,23.146447 18.6702128,23.3878689 C17.9468049,23.6292908 17.120572,23.75 16.1914894,23.75 L10,23.75 Z M13.5957447,17.0694921 L13.5957447,20.9934798 L16.1276596,20.9934798 C16.6028393,20.9934798 16.9911332,20.9322244 17.2925532,20.8097117 C17.5939731,20.6871991 17.8297864,20.5286557 18,20.3340769 C18.1702136,20.139498 18.2872337,19.9196992 18.3510638,19.674674 C18.4148939,19.4296487 18.4468085,19.1810239 18.4468085,18.928792 C18.4468085,18.640527 18.4095748,18.3810924 18.3351064,18.1504804 C18.2606379,17.9198684 18.1329796,17.7252925 17.9521277,17.5667467 C17.7712757,17.408201 17.5319164,17.2856902 17.2340426,17.1992107 C16.9361687,17.1127312 16.560286,17.0694921 16.106383,17.0694921 L13.5957447,17.0694921 Z M13.5957447,14.6264585 L15.4680851,14.6264585 C15.8652502,14.6264585 16.2234027,14.5976324 16.5425532,14.5399794 C16.8617037,14.4823264 17.1329776,14.3814352 17.356383,14.2373027 C17.5797884,14.0931702 17.7499994,13.894991 17.8670213,13.6427591 C17.9840431,13.3905272 18.0425532,13.0734405 18.0425532,12.6914894 C18.0425532,12.3167449 17.9964544,12.005063 17.9042553,11.7564345 C17.8120563,11.5078059 17.6702137,11.3078251 17.4787234,11.1564859 C17.2872331,11.0051468 17.0443277,10.8970491 16.75,10.8321894 C16.4556723,10.7673298 16.106385,10.7349005 15.7021277,10.7349005 L13.5957447,10.7349005 L13.5957447,14.6264585 Z" id="B" fill="#FFFFFF"></path>
    </g>
</svg>