<?xml version="1.0" encoding="UTF-8"?>
<svg width="32px" height="32px" viewBox="0 0 32 32" version="1.1" xmlns="http://www.w3.org/2000/svg" xmlns:xlink="http://www.w3.org/1999/xlink">
    <!-- Generator: Sketch 57.1 (83088) - https://sketch.com -->
    <title>bookmark</title>
    <desc>Created with Sketch.</desc>
    <g id="bookmark" stroke="none" stroke-width="1" fill="none" fill-rule="evenodd">
        <path d="M1.31344799,14.6197601 C1.11275061,14.4190628 1,14.1468587 1,13.8630298 L1,3.14035673 C1,1.95827035 1.95827035,1 3.14035673,1 L13.8630298,1 C14.1468587,1 14.4190628,1.11275061 14.6197601,1.31344799 L30.8467974,17.5404853 C30.9820783,17.6757661 31.0330858,17.8746215 30.9783821,18.0579529 C30.9532479,18.1437047 30.9074151,18.2191072 30.8467974,18.2797248 C30.7765697,18.3499526 30.6871217,18.3994816 30.5865851,18.4216588 L20.5676713,20.5676713 L18.4216588,30.5865851 C18.3810006,30.7736127 18.2420236,30.9244176 18.0579529,30.9783821 C17.8746215,31.0330858 17.6757661,30.9820783 17.5404853,30.8467974 L1.31344799,14.6197601 Z M10.2844396,10.0741175 C11.1457894,9.21276773 11.1457894,7.81624389 10.2844396,6.95489416 C9.4230899,6.09354443 8.02656606,6.09354443 7.16521633,6.95489416 C6.30386659,7.81624389 6.30386659,9.21276773 7.16521633,10.0741175 C8.02656606,10.9354672 9.4230899,10.9354672 10.2844396,10.0741175 Z" id="Combined-Shape" fill="#FFFFFF"></path>
    </g>
</svg>