<?xml version="1.0" encoding="UTF-8"?>
<svg width="32px" height="32px" viewBox="0 0 32 32" version="1.1" xmlns="http://www.w3.org/2000/svg" xmlns:xlink="http://www.w3.org/1999/xlink">
    <!-- Generator: Sketch 55.2 (78181) - https://sketchapp.com -->
    <title>bookmark-de-select</title>
    <desc>Created with Sketch.</desc>
    <g id="bookmark-de-select" stroke="none" stroke-width="1" fill="none" fill-rule="evenodd">
        <g id="Group-2" transform="translate(1.000000, 1.000000)" fill="#FFFFFF">
            <path d="M22.8063122,9.5 L11.9634146,9.5 C11.155193,9.5 10.5,10.1559549 10.5,10.9651163 L10.5,23.8063122 L0.313447986,13.6197601 C0.112750611,13.4190628 0,13.1468587 0,12.8630298 L0,2.14035673 C0,0.958270349 0.958270349,0 2.14035673,0 L12.8630298,0 C13.1468587,0 13.4190628,0.112750611 13.6197601,0.313447986 L22.8063122,9.5 Z M9.28443963,9.07411746 C10.1457894,8.21276773 10.1457894,6.81624389 9.28443963,5.95489416 C8.4230899,5.09354443 7.02656606,5.09354443 6.16521633,5.95489416 C5.30386659,6.81624389 5.30386659,8.21276773 6.16521633,9.07411746 C7.02656606,9.9354672 8.4230899,9.9354672 9.28443963,9.07411746 Z" id="Combined-Shape" fill-opacity="0.4"></path>
            <path d="M15,18 L15,23 L12,23 L12,18 L15,18 Z M19,27 L23,27 L23,30 L19,30 L19,27 Z M27,27 L27,25 L30,25 L30,30 L25,30 L25,27 L27,27 Z M27,14 L25,14 L25,11 L30,11 L30,16 L27,16 L27,14 Z M29.9819288,18 L30,23 L26.9937437,23 L26.9756725,18 L29.9819288,18 Z M23,14 L19,14 L19,11 L23,11 L23,14 Z M17,27 L17,30 L12,30 L12,25 L15,25 L15,27 L17,27 Z M15,16 L12,16 L12,11 L17,11 L17,14 L15,14 L15,16 Z M24.7227813,22.8847499 C25.0924062,23.2543782 25.0924062,23.8532067 24.7227813,24.2228348 C24.5450607,24.4005571 24.3046984,24.5 24.0537357,24.5 C23.8027732,24.5 23.5624111,24.4005571 23.3846902,24.2228349 L21.0000403,21.8381637 L18.6153903,24.2228349 C18.4376697,24.4005571 18.1973074,24.5 17.9463448,24.5 C17.6953822,24.5 17.45502,24.4005571 17.2772994,24.222835 C16.9076743,23.8532067 16.9076743,23.2543783 17.2772993,22.8847499 L19.6619582,20.5000697 L17.2772993,18.1153895 C16.9077795,17.7458664 16.907569,17.1470377 17.2766557,16.7779489 C17.6460907,16.4075634 18.2463888,16.4073524 18.6153903,16.7773045 L21.0000404,19.1619758 L23.3840467,16.7779489 C23.7534818,16.4075634 24.3537798,16.4073524 24.7227813,16.7773046 C25.0924062,17.1469329 25.0924062,17.7457612 24.7227812,18.1153895 L22.3381223,20.5000697 L24.7227813,22.8847499 Z" id="Combined-Shape"></path>
        </g>
    </g>
</svg>