<?xml version="1.0" encoding="UTF-8"?>
<svg width="32px" height="32px" viewBox="0 0 32 32" version="1.1" xmlns="http://www.w3.org/2000/svg" xmlns:xlink="http://www.w3.org/1999/xlink">
    <!-- Generator: Sketch 55.2 (78181) - https://sketchapp.com -->
    <title>bookmark-delete</title>
    <desc>Created with Sketch.</desc>
    <g id="bookmark-delete" stroke="none" stroke-width="1" fill="none" fill-rule="evenodd">
        <path d="M27.4539837,15.0202506 C27.2605058,15.1450194 27.0773125,15.2922225 26.9081109,15.4618595 L23.5001044,18.869894 L20.0895332,15.4592925 C18.8126551,14.1791231 16.7352399,14.1800396 15.4567094,15.4618597 C14.1799862,16.7385885 14.1809003,18.8111378 15.4592733,20.0895222 L18.8698797,23.5001591 L15.4592733,26.9107959 C15.2907549,27.0793158 15.1444431,27.2616183 15.0203379,27.454071 L1.29289322,13.7266263 C1.10535684,13.5390899 1,13.284736 1,13.0195195 L1,3 C1,1.8954305 1.8954305,1 3,1 L13.0195195,1 C13.284736,1 13.5390899,1.10535684 13.7266263,1.29289322 L27.4539837,15.0202506 Z M8.67560019,9.47907018 C7.87073461,10.2839358 6.56578967,10.2839358 5.76092409,9.47907018 C4.95605851,8.6742046 4.95605851,7.36925966 5.76092409,6.56439408 C6.56578967,5.7595285 7.87073461,5.7595285 8.67560019,6.56439408 C9.48046577,7.36925966 9.48046577,8.6742046 8.67560019,9.47907018 Z" id="Combined-Shape" fill-opacity="0.4" fill="#FFFFFF"></path>
        <path d="M30.4802697,27.9714514 L26.0090172,23.5001591 L30.4802696,19.0288668 C31.173319,18.3358112 31.1733191,17.2130038 30.4802697,16.5199481 C29.7883892,15.8262851 28.6628262,15.8266807 27.9701329,16.5211561 L23.500104,20.9912235 L19.0288683,16.5199479 C18.3369879,15.826285 17.2114247,15.8266807 16.5187315,16.5211562 C15.8266913,17.2132003 15.8270859,18.3360083 16.5199382,19.0288668 L20.9911906,23.5001591 L16.5199382,27.9714513 C15.8268887,28.6645072 15.8268887,29.7873148 16.5199384,30.4803704 C16.8531657,30.8136006 17.3038466,31.0000568 17.7744033,31.0000568 C18.2449599,31.0000568 18.6956409,30.8136006 19.0288683,30.4803702 L23.5001039,26.0090948 L27.9713394,30.4803702 C28.3045673,30.8136007 28.755248,31.0000568 29.2258045,31.0000568 C29.6963612,31.0000568 30.1470423,30.8136006 30.4802697,30.4803701 C31.173319,29.7873147 31.173319,28.6645071 30.4802697,27.9714514 Z" id="Combined-Shape-path" fill="#FFFFFF"></path>
    </g>
</svg>