<?xml version="1.0" encoding="UTF-8"?>
<svg width="32px" height="32px" viewBox="0 0 32 32" version="1.1" xmlns="http://www.w3.org/2000/svg" xmlns:xlink="http://www.w3.org/1999/xlink">
    <!-- Generator: Sketch 55.2 (78181) - https://sketchapp.com -->
    <title>bookmark-sort</title>
    <desc>Created with Sketch.</desc>
    <g id="bookmark-sort" stroke="none" stroke-width="1" fill="none" fill-rule="evenodd">
        <path d="M10.8142323,24.1205445 L1.31344799,14.6197601 C1.11275061,14.4190628 1,14.1468587 1,13.8630298 L1,3.14035673 C1,1.95827035 1.95827035,1 3.14035673,1 L13.8630298,1 C14.1468587,1 14.4190628,1.11275061 14.6197601,1.31344799 L25.1371094,11.8307972 C25.1047304,11.8478103 25.0721024,11.8656958 25.036155,11.8857698 C24.923092,11.9501463 24.923092,11.9501463 24.8624764,11.9888492 C24.6624714,12.1231019 24.5110483,12.2483682 24.3744481,12.3858975 L20.50025,16.2864434 L20.50025,14.5 C20.50025,12.8431458 19.1571042,11.5 17.50025,11.5 C15.8433958,11.5 14.50025,12.8431458 14.50025,14.5 L14.50025,22.6241705 C13.4435163,22.2499593 12.2199718,22.4879874 11.3754481,23.3382546 C11.1414788,23.5738151 10.9544068,23.8384656 10.8142323,24.1205445 Z M20.50025,20.8824355 L20.50025,20.7805198 C20.5063425,20.7859986 20.512452,20.7914481 20.5185782,20.7968683 L20.50025,20.8824355 Z M10.2844396,10.0741175 C11.1457894,9.21276773 11.1457894,7.81624389 10.2844396,6.95489416 C9.4230899,6.09354443 8.02656606,6.09354443 7.16521633,6.95489416 C6.30386659,7.81624389 6.30386659,9.21276773 7.16521633,10.0741175 C8.02656606,10.9354672 9.4230899,10.9354672 10.2844396,10.0741175 Z" id="Combined-Shape" fill-opacity="0.4" fill="#FFFFFF"></path>
        <path d="M27.3298786,13.2520533 C27.4135501,13.3077122 27.4906852,13.3713553 27.5618034,13.4429571 L31.5608034,17.4691537 C32.1470655,18.0594029 32.1470655,19.0144366 31.5608034,19.6046858 C31.2761303,19.8912949 30.8949362,20.047121 30.50025,20.047121 C30.1055638,20.047121 29.7243697,19.8912949 29.4396966,19.6046858 L28.00025,18.1554497 L28.00025,29.5 C28.00025,30.3284271 27.3286771,31 26.50025,31 C25.6718229,31 25.00025,30.3284271 25.00025,29.5 L25.00025,18.1554497 L23.5608034,19.6046858 C22.9745412,20.194935 22.0259588,20.194935 21.4396966,19.6046858 C20.8534345,19.0144366 20.8534345,18.0594029 21.4396966,17.4691537 L25.4386966,13.4429571 C25.5079552,13.3732275 25.5846081,13.3102893 25.6607178,13.258814 C25.7332542,13.2132209 25.7332542,13.2132209 25.7689898,13.1958718 C25.8378377,13.1566421 25.874661,13.1368543 25.9300615,13.1130487 C25.972455,13.0957092 26.008721,13.0843488 26.0549423,13.0715963 C26.0821514,13.0638175 26.0821514,13.0638175 26.0963234,13.0592303 C26.1337933,13.0468754 26.1337933,13.0468754 26.2061919,13.0294268 C26.4010452,12.9901911 26.6009564,12.9901911 26.7943081,13.0294268 C26.8664496,13.0468113 26.8664496,13.0468113 26.9025227,13.0586179 C26.9351308,13.0685097 26.9351308,13.0685097 26.9478256,13.0721344 C26.9968878,13.0860009 27.0304792,13.0967048 27.0792096,13.1167344 C27.125839,13.1368543 27.1626623,13.1566421 27.2094933,13.1839272 C27.2672458,13.2132209 27.2672458,13.2132209 27.3298786,13.2520533 Z M18.3298786,30.7479467 C18.2672458,30.7867791 18.2672458,30.7867791 18.2094933,30.8160728 C18.1626623,30.8433579 18.125839,30.8631457 18.0792096,30.8832656 C18.0304792,30.9032952 17.9968878,30.9139991 17.9478256,30.9278656 C17.9351308,30.9314903 17.9351308,30.9314903 17.9025227,30.9413821 C17.8664496,30.9531887 17.8664496,30.9531887 17.7943081,30.9705732 C17.6009564,31.0098089 17.4010452,31.0098089 17.2061919,30.9705732 C17.1337933,30.9531246 17.1337933,30.9531246 17.0963234,30.9407697 C17.0821514,30.9361825 17.0821514,30.9361825 17.0549423,30.9284037 C17.008721,30.9156512 16.972455,30.9042908 16.9300615,30.8869513 C16.874661,30.8631457 16.8378377,30.8433579 16.7689898,30.8041282 C16.7332542,30.7867791 16.7332542,30.7867791 16.6607178,30.741186 C16.5846081,30.6897107 16.5079552,30.6267725 16.4386966,30.5570429 L12.4396966,26.5308463 C11.8534345,25.9405971 11.8534345,24.9855634 12.4396966,24.3953142 C13.0259588,23.805065 13.9745412,23.805065 14.5608034,24.3953142 L16.00025,25.8445503 L16.00025,14.5 C16.00025,13.6715729 16.6718229,13 17.50025,13 C18.3286771,13 19.00025,13.6715729 19.00025,14.5 L19.00025,25.8445503 L20.4396966,24.3953142 C20.7243697,24.1087051 21.1055638,23.952879 21.50025,23.952879 C21.8949362,23.952879 22.2761303,24.1087051 22.5608034,24.3953142 C23.1470655,24.9855634 23.1470655,25.9405971 22.5608034,26.5308463 L18.5618034,30.5570429 C18.4906852,30.6286447 18.4135501,30.6922878 18.3298786,30.7479467 Z" id="Combined-Shape" fill="#FFFFFF"></path>
    </g>
</svg>