<?xml version="1.0" encoding="UTF-8"?>
<svg width="32px" height="32px" viewBox="0 0 32 32" version="1.1" xmlns="http://www.w3.org/2000/svg" xmlns:xlink="http://www.w3.org/1999/xlink">
    <!-- Generator: Sketch 55.2 (78181) - https://sketchapp.com -->
    <title>bug-cancel</title>
    <desc>Created with Sketch.</desc>
    <g id="bug-cancel" stroke="none" stroke-width="1" fill="none" fill-rule="evenodd">
        <g transform="translate(1.000000, 1.000000)" fill="#FFFFFF" id="Combined-Shape">
            <path d="M26.6260937,13.4023319 C25.1166409,12.4015014 23.307219,11.8181818 21.3636364,11.8181818 C18.8909774,11.8181818 16.6354624,12.7623056 14.9385125,14.309132 L13.54778,12.9183996 L20.0917652,6.37441436 C20.2094189,6.41784752 20.3270726,6.46128067 20.444098,6.50911751 L21.3187992,4.55966515 C21.4200409,4.33509136 21.6823619,4.23511564 21.906348,4.33582019 C22.1309634,4.43715398 22.2310467,4.69951604 22.1304339,4.92346085 L21.2513309,6.88234905 C22.2158676,7.3764032 23.1206699,8.02457861 23.9273625,8.83127123 L25.4998311,7.25880266 C25.6734316,7.08520213 25.9552758,7.08525992 26.1289475,7.25893166 C26.3026193,7.43260339 26.302677,7.71444755 26.1290765,7.88804808 L24.5283035,9.48882108 C25.2494456,10.3407926 25.8171008,11.2782924 26.2287457,12.2673478 L28.4631601,11.257445 C28.6871049,11.1568323 28.9500959,11.2562866 29.0520587,11.4802729 C29.1301048,11.6539251 29.0879943,11.8508298 28.9609389,11.9778853 C28.9238286,12.0149956 28.8797969,12.0464424 28.8294723,12.0690802 L26.5352971,13.1047645 C26.5670348,13.2035932 26.5973004,13.3027939 26.6260937,13.4023319 Z M6.07169196,19.1359968 C5.57493637,17.2693066 5.59025937,15.2945134 6.11959408,13.4349538 C5.24325464,13.5310289 4.14476242,13.2628001 3.49102622,12.8518531 C2.62422737,13.4543688 1.42322773,13.3742248 0.650514359,12.6015114 C-0.216585828,11.7344113 -0.216875293,10.322674 0.649869382,9.45592932 C1.51724304,8.58855566 2.92835131,8.58947411 3.7954515,9.4565743 C4.53733184,10.1984546 4.63948167,11.3346598 4.11371603,12.1914085 C4.79638023,12.5469993 6.03828753,12.7007583 6.45659642,12.4397608 C6.97723496,11.123756 7.76589412,9.8908496 8.82825388,8.82848984 C9.89124264,7.76550109 11.1241491,6.97684192 12.4401538,6.45620338 C12.7011513,6.03789449 12.5473923,4.7959872 12.1918016,4.113323 C11.3350528,4.63908864 10.1982187,4.5375678 9.45633834,3.79568745 C8.58923816,2.92858727 8.58894869,1.51685001 9.45569337,0.650105337 C10.323067,-0.217268325 11.7341753,-0.216349873 12.6012755,0.650750314 C13.3739889,1.42346369 13.4547619,2.62383433 12.8522461,3.49063319 C13.2631932,4.14436938 13.531422,5.24286161 13.4353469,6.11920105 C15.2949064,5.58986633 17.2696996,5.57454334 19.1363898,6.07129893 L6.07169196,19.1359968 Z M14.3098068,14.9377722 C12.7625802,16.6348064 11.8181818,18.8906179 11.8181818,21.3636364 C11.8181818,23.3072774 12.4015364,25.1167497 13.4024221,26.6262298 C13.303028,26.5975066 13.2039703,26.5673163 13.1052835,26.5356591 L12.06897,28.8292049 C12.0463321,28.8795296 12.0148853,28.9235613 11.9784041,28.9600426 C11.8507196,29.087727 11.6538148,29.1298375 11.4807917,29.0511624 C11.2568056,28.9504579 11.156722,28.6868376 11.258593,28.462893 L12.2672375,26.2284784 C11.2788111,25.8162045 10.3406823,25.2491783 9.48871085,24.5280362 L7.88856683,26.1281802 C7.71433732,26.3024097 7.43375139,26.3023522 7.25945041,26.1280512 C7.08577868,25.9543795 7.0850919,25.6731643 7.25932142,25.4989348 L8.83178998,23.9264662 C8.0257266,23.1204028 7.37692195,22.2149713 6.88223882,21.2510636 L4.92460885,22.1301669 C4.70003479,22.2301504 4.43704375,22.130696 4.3363392,21.90671 C4.23563465,21.6827239 4.33561011,21.4191446 4.55955492,21.3185319 L6.50963627,20.4432017 C6.46242867,20.3268055 6.41836653,20.2097808 6.37430413,20.0914979 L12.9189183,13.5468837 L14.3098068,14.9377722 Z" fill-opacity="0.4"></path>
            <path d="M21.3636364,13.6363636 C25.6244545,13.6363636 29.0909091,17.1028182 29.0909091,21.3636364 C29.0909091,25.6244545 25.6244545,29.0909091 21.3636364,29.0909091 C17.1028182,29.0909091 13.6363636,25.6244545 13.6363636,21.3636364 C13.6363636,17.1028182 17.1028182,13.6363636 21.3636364,13.6363636 Z M19.3662551,25.0953419 L21.3636883,23.0978806 L23.3611213,25.0953419 C23.5918718,25.3260942 23.9035437,25.4545455 24.2281961,25.4545455 C24.5528488,25.4545455 24.8645209,25.3260942 25.0952711,25.0953419 C25.5743036,24.6163051 25.5743036,23.840237 25.095271,23.3612 L23.0978263,21.3637271 L25.095271,19.3662542 C25.5743036,18.8872173 25.5743036,18.1111492 25.0952711,17.6321123 C24.6171065,17.152716 23.8391304,17.1528723 23.3602926,17.632942 L21.3636883,19.6295736 L19.3662551,17.6321122 C18.8880906,17.1527159 18.1101144,17.1528723 17.6312767,17.6329421 C17.1529948,18.1112268 17.1531508,18.8872952 17.6321055,19.3662542 L19.6295501,21.3637271 L17.6321055,23.3612 C17.1530728,23.840237 17.1530728,24.6163052 17.6321056,25.0953421 C17.8628557,25.3260942 18.1745277,25.4545455 18.4991803,25.4545455 C18.8238329,25.4545455 19.1355049,25.3260942 19.3662551,25.0953419 Z"></path>
        </g>
    </g>
</svg>