<?xml version="1.0" encoding="UTF-8"?>
<svg width="32px" height="32px" viewBox="0 0 32 32" version="1.1" xmlns="http://www.w3.org/2000/svg" xmlns:xlink="http://www.w3.org/1999/xlink">
    <!-- Generator: Sketch 55.2 (78181) - https://sketchapp.com -->
    <title>buttons-hardware</title>
    <desc>Created with Sketch.</desc>
    <g id="buttons-hardware" stroke="none" stroke-width="1" fill="none" fill-rule="evenodd">
        <path d="M2.03641093,1 L14.1115087,1 C14.6601967,1 15.1126312,1.44445836 15.1126312,1.99272553 L15.1126312,14.1249215 C15.1126312,14.6796531 14.6681728,15.1176471 14.1199057,15.1176471 L1.98770966,15.1176471 C1.43297814,15.1176471 0.996253017,14.6731887 0.997818261,14.1249215 L1.03245436,1.99272553 C1.03403806,1.437994 1.48350627,1 2.03641093,1 Z M5.38950843,8.17391304 L5.38950843,5.35421995 L8.20920153,5.35421995 C8.81285657,5.35421995 9.30255191,4.8645246 9.30255191,4.26086957 C9.30255191,3.65721453 8.81285657,3.16751918 8.20920153,3.16751918 L4.29615805,3.16751918 C3.69250301,3.16751918 3.20280767,3.65721453 3.20280767,4.26086957 L3.20280767,8.17391304 C3.20280767,8.77756808 3.69250301,9.26726343 4.29615805,9.26726343 C4.89981309,9.26726343 5.38950843,8.77756808 5.38950843,8.17391304 Z M17.9187639,1 L29.9938617,1 C30.5425496,1 30.9949841,1.44445836 30.9949841,1.99272553 L30.9949841,14.1249215 C30.9949841,14.6796531 30.5505258,15.1176471 30.0022586,15.1176471 L17.8700626,15.1176471 C17.3153311,15.1176471 16.878606,14.6731887 16.8801712,14.1249215 L16.9148073,1.99272553 C16.916391,1.437994 17.3658592,1 17.9187639,1 Z M21.2718614,8.17391304 L21.2718614,5.35421995 L24.0915545,5.35421995 C24.6952095,5.35421995 25.1849049,4.8645246 25.1849049,4.26086957 C25.1849049,3.65721453 24.6952095,3.16751918 24.0915545,3.16751918 L20.178511,3.16751918 C19.574856,3.16751918 19.0851606,3.65721453 19.0851606,4.26086957 L19.0851606,8.17391304 C19.0851606,8.77756808 19.574856,9.26726343 20.178511,9.26726343 C20.782166,9.26726343 21.2718614,8.77756808 21.2718614,8.17391304 Z M17.9187639,16.8823529 L29.9938617,16.8823529 C30.5425496,16.8823529 30.9949841,17.3268113 30.9949841,17.8750785 L30.9949841,30.0072745 C30.9949841,30.562006 30.5505258,31 30.0022586,31 L17.8700626,31 C17.3153311,31 16.878606,30.5555416 16.8801712,30.0072745 L16.9148073,17.8750785 C16.916391,17.3203469 17.3658592,16.8823529 17.9187639,16.8823529 Z M21.2718614,24.056266 L21.2718614,21.2365729 L24.0915545,21.2365729 C24.6952095,21.2365729 25.1849049,20.7468775 25.1849049,20.1432225 C25.1849049,19.5395675 24.6952095,19.0498721 24.0915545,19.0498721 L20.178511,19.0498721 C19.574856,19.0498721 19.0851606,19.5395675 19.0851606,20.1432225 L19.0851606,24.056266 C19.0851606,24.659921 19.574856,25.1496164 20.178511,25.1496164 C20.782166,25.1496164 21.2718614,24.659921 21.2718614,24.056266 Z M2.03641093,16.8823529 L14.1115087,16.8823529 C14.6601967,16.8823529 15.1126312,17.3268113 15.1126312,17.8750785 L15.1126312,30.0072745 C15.1126312,30.562006 14.6681728,31 14.1199057,31 L1.98770966,31 C1.43297814,31 0.996253017,30.5555416 0.997818261,30.0072745 L1.03245436,17.8750785 C1.03403806,17.3203469 1.48350627,16.8823529 2.03641093,16.8823529 Z M5.38950843,24.056266 L5.38950843,21.2365729 L8.20920153,21.2365729 C8.81285657,21.2365729 9.30255191,20.7468775 9.30255191,20.1432225 C9.30255191,19.5395675 8.81285657,19.0498721 8.20920153,19.0498721 L4.29615805,19.0498721 C3.69250301,19.0498721 3.20280767,19.5395675 3.20280767,20.1432225 L3.20280767,24.056266 C3.20280767,24.659921 3.69250301,25.1496164 4.29615805,25.1496164 C4.89981309,25.1496164 5.38950843,24.659921 5.38950843,24.056266 Z" id="Combined-Shape" fill="#FFFFFF"></path>
    </g>
</svg>