<?xml version="1.0" encoding="UTF-8"?>
<svg width="32px" height="32px" viewBox="0 0 32 32" version="1.1" xmlns="http://www.w3.org/2000/svg" xmlns:xlink="http://www.w3.org/1999/xlink">
    <!-- Generator: Sketch 55.2 (78181) - https://sketchapp.com -->
    <title>calendar</title>
    <desc>Created with Sketch.</desc>
    <g id="calendar" stroke="none" stroke-width="1" fill="none" fill-rule="evenodd">
        <g id="todays-date" transform="translate(1.000000, 1.000000)" fill="#FFFFFF">
            <path d="M24.015,5 L21.015,5 L21.015,1 L24.015,1 L24.015,5 Z M9.015,5 L6.015,5 L6.015,1 L9.015,1 L9.015,5 Z M29.515,2 L25.015,2 L25.015,0.5 C25.015,0.224 24.791,0 24.515,0 L20.515,0 C20.238,0 20.015,0.224 20.015,0.5 L20.015,2 L10.015,2 L10.015,0.5 C10.015,0.224 9.791,0 9.515,0 L5.515,0 C5.238,0 5.015,0.224 5.015,0.5 L5.015,2 L0.515,2 C0.238,2 0.015,2.224 0.015,2.5 L0.015,9 L30.015,9 L30.015,2.5 C30.015,2.224 29.791,2 29.515,2 L29.515,2 Z" id="Fill-1313"></path>
            <path d="M0.0144,29.5 C0.0144,29.776 0.2384,30 0.5144,30 L29.5144,30 C29.7904,30 30.0144,29.776 30.0144,29.5 L30.0144,10 L0.0144,10 L0.0144,29.5 Z" id="Combined-Shape"></path>
        </g>
    </g>
</svg>