<?xml version="1.0" encoding="UTF-8"?>
<svg width="32px" height="32px" viewBox="0 0 32 32" version="1.1" xmlns="http://www.w3.org/2000/svg" xmlns:xlink="http://www.w3.org/1999/xlink">
    <!-- Generator: Sketch 55.2 (78181) - https://sketchapp.com -->
    <title>camera</title>
    <desc>Created with Sketch.</desc>
    <g id="camera" stroke="none" stroke-width="1" fill="none" fill-rule="evenodd">
        <path d="M20.4117647,7.60539216 L20.4117647,23.3897059 C20.4117647,24.5045343 19.4446807,25.4117647 18.2563025,25.4117647 L3.15546218,25.4117647 C1.96708403,25.4117647 1,24.5045343 1,23.3897059 L1,7.60539216 C1,6.49056373 1.96708403,6 3.15546218,6 L18.2563025,6 C19.4446807,6 20.4117647,6.49056373 20.4117647,7.60539216 Z M28.7161176,9.35698486 C29.2243529,9.15413019 29.8040588,9.20711462 30.2646471,9.4992859 C30.7252353,9.79297102 31,10.2819416 31,10.8072444 L31,20.4731181 C31,20.9999347 30.7252353,21.4889053 30.2662353,21.7810766 C29.9898824,21.9566821 29.6706471,22.0459987 29.3498235,22.0459987 C29.1354118,22.0459987 28.921,22.0066388 28.7161176,21.9248914 L22.5294118,18.9411765 L22.5294118,12.6190888 L28.7161176,9.35698486 Z" id="Combined-Shape" fill="#FFFFFF"></path>
    </g>
</svg>