<?xml version="1.0" encoding="UTF-8"?>
<svg width="32px" height="32px" viewBox="0 0 32 32" version="1.1" xmlns="http://www.w3.org/2000/svg" xmlns:xlink="http://www.w3.org/1999/xlink">
    <!-- Generator: Sketch 55.2 (78181) - https://sketchapp.com -->
    <title>camera-wall</title>
    <desc>Created with Sketch.</desc>
    <g id="camera-wall" stroke="none" stroke-width="1" fill="none" fill-rule="evenodd">
        <path d="M13.9937239,23.1739026 L14.4934825,18.9994 L12.9942067,18.9994 C12.4423309,18.9994 11.9946895,18.5515424 11.9946895,17.9994 C11.9946895,17.4472576 12.4423309,16.9994 12.9942067,16.9994 L17.9917928,16.9994 C18.5436686,16.9994 18.9913101,17.4472576 18.9913101,17.9994 C18.9913101,18.5515424 18.5436686,18.9994 17.9917928,18.9994 L16.492517,18.9994 L15.9927584,23.9999 C15.9927584,24.4799567 15.65233,24.8920977 15.1815768,24.9819027 L2.99903445,27.3259053 L2.99903445,29.4999 C2.99903445,30.0520424 2.55139304,30.4999 1.99951723,30.4999 C1.44764141,30.4999 1,30.0520424 1,29.4999 L1,23.4999 C1,22.9477576 1.44764141,22.4999 1.99951723,22.4999 C2.55139304,22.4999 2.99903445,22.9477576 2.99903445,23.4999 L2.99903445,25.2895693 L13.9937239,23.1739026 Z M22.0043547,13.4999 L22.0043547,10.1219 L26.0024236,8.9459 L26.0024236,15.4999 C26.0024236,15.7759 25.7785318,15.9999 25.502665,15.9999 L9.51038941,15.9999 C8,16 8,15 8,14 L9.51038941,13.9999 L21.5045961,13.9999 C21.7804629,13.9999 22.0043547,13.7759 22.0043547,13.4999 Z M27.5016995,8.9999 C27.7775662,8.9999 28.0014581,9.2239 28.0014581,9.4999 L28.0014581,12.4999 C28.0014581,12.7759 27.7775662,12.9999 27.5016995,12.9999 C27.2258327,12.9999 27.0019409,12.7759 27.0019409,12.4999 L27.0019409,9.4999 C27.0019409,9.2239 27.2258327,8.9999 27.5016995,8.9999 Z M30.9112526,2.215 C31.0042077,2.349 31.0251976,2.52 30.9692246,2.673 L30.1816051,4.775 L29.4689493,6.675 C29.4139758,6.823 29.2930342,6.935 29.1421071,6.98 L26.0026235,7.903 L21.3638641,9.268 C21.1509669,9.331 21.0050374,9.526 21.0050374,9.748 L21.0050374,12.5 L21.0050374,13 L20.5052788,13 L6.51203764,13 C6.23617089,13 6.01227903,12.776 6.01227903,12.5 L6.01227903,6.5 C6.01227903,4.229 8.24020292,2 10.5101065,2 L30.500451,2 C30.6643719,2 30.817298,2.08 30.9112526,2.215 Z" id="Combined-Shape" fill="#FFFFFF"></path>
    </g>
</svg>