<?xml version="1.0" encoding="UTF-8"?>
<svg width="32px" height="32px" viewBox="0 0 32 32" version="1.1" xmlns="http://www.w3.org/2000/svg" xmlns:xlink="http://www.w3.org/1999/xlink">
    <!-- Generator: Sketch 55.2 (78181) - https://sketchapp.com -->
    <title>camera-2</title>
    <desc>Created with Sketch.</desc>
    <g id="camera-2" stroke="none" stroke-width="1" fill="none" fill-rule="evenodd">
        <path d="M13.9745581,13.2719045 L13.9745581,10.0024344 C13.9745581,9.45014962 13.5268428,9.00243437 12.9745581,9.00243437 L2.00060859,9.00243437 C1.44798773,9.00243437 1,8.55444664 1,8.00182578 C1,7.44896989 1.44827785,7.00145264 2.00060845,7.00174274 L12.9757749,7.00908344 C14.6320136,7.00995336 15.9741991,8.3528441 15.9741991,10.009083 L15.9757753,13.2377355 L18.977601,13.2377355 L18.977601,8.08887872 C18.977601,6.87092522 19.8957287,6.00060859 21.1529241,6.00060859 L22.7333956,6.00060859 C23.0946322,5.3685017 23.8297813,5 24.9382264,5 L28.4833827,5 C30.1721138,5 30.9849042,5.80205471 30.9849042,7.00121718 C30.9849042,8.26431301 29.8464204,9.00243437 28.4833827,9.00243437 L24.9812526,9.00243437 C24.0637177,9.00243437 23.2202044,8.65099553 22.7874442,8.00182578 L21.2788182,8.00182578 C21.1131328,8.00182578 20.9788182,8.13614035 20.9788182,8.30182578 L20.9788182,13.3011322 C21.9722007,13.4841106 22.7283023,14.4916486 22.7283023,15.3398289 L22.7283023,17.6331571 L29.3115397,14.8859195 C29.6889359,14.7277233 30.1169963,14.7701157 30.4561359,14.9955195 C30.7973434,15.2240251 31,15.6024553 31,16.0098364 L31,24.3342662 C31,24.7426813 30.7973434,25.1211114 30.4571698,25.3485831 C30.2534793,25.4840322 30.0177359,25.5533076 29.7809586,25.5533076 C29.6227623,25.5533076 29.4635322,25.5222888 29.3115397,25.4592171 L22.7283023,22.7223191 L22.7283023,25.679451 C22.7283023,26.8002661 21.7811929,27.7473755 20.6603779,27.7473755 L3.10576744,27.7473755 C1.777126,27.7473755 1.01509585,26.993617 1.01509585,25.679451 L1.01509585,15.3398289 C1.01509585,13.9398441 2.17726937,13.1261158 3.14815989,13.2719045 L13.9745581,13.2719045 Z" id="Shape" fill="#FFFFFF"></path>
    </g>
</svg>