<?xml version="1.0" encoding="UTF-8"?>
<svg width="32px" height="32px" viewBox="0 0 32 32" version="1.1" xmlns="http://www.w3.org/2000/svg" xmlns:xlink="http://www.w3.org/1999/xlink">
    <!-- Generator: Sketch 55.2 (78181) - https://sketchapp.com -->
    <title>comment-add</title>
    <desc>Created with Sketch.</desc>
    <g id="comment-add" stroke="none" stroke-width="1" fill="none" fill-rule="evenodd">
        <g id="Group" transform="translate(1.000000, 2.000000)" fill="#FFFFFF">
            <path d="M29.9947105,12.6841905 C27.9445401,8.99854669 24.0091534,6.5 19.5,6.5 C12.8809409,6.5 7.5,11.8815124 7.5,18.5 C7.5,20.6613291 8.07382902,22.6907459 9.0772148,24.4439184 L1.96625,27.7525 C1.8825,27.7925 1.7925,27.81125 1.70375,27.81125 C1.5375,27.81125 1.375,27.745 1.255,27.62125 C1.06875,27.43125 1.025,27.14375 1.14375,26.90625 L4.15625,20.8925 C1.4725,18.585 0,15.57 0,12.35375 C0,5.54125 6.72875,0 15,0 C23.27125,0 30,5.54125 30,12.35375 C30,12.4642371 29.9982295,12.57439 29.9947105,12.6841905 Z" id="Combined-Shape" fill-opacity="0.4"></path>
            <path d="M19.5,8 C25.2895385,8 30,12.7104615 30,18.5 C30,24.2895385 25.2895385,29 19.5,29 C13.7088462,29 9,24.2895385 9,18.5 C9,12.7104615 13.7088462,8 19.5,8 Z M20.8076923,23.5916923 L20.8076923,19.8076923 L24.5916923,19.8076923 C25.3136809,19.8076923 25.8993846,19.2219886 25.8993846,18.5 C25.8993846,17.7780114 25.3136809,17.1923077 24.5916923,17.1923077 L20.8076923,17.1923077 L20.8076923,13.4083077 C20.8076923,12.6863191 20.2219886,12.1006154 19.5,12.1006154 C18.7780114,12.1006154 18.1923077,12.6863191 18.1923077,13.4083077 L18.1923077,17.1923077 L14.4066923,17.1923077 C13.6847038,17.1923077 13.099,17.7780115 13.099,18.5 C13.099,19.2219885 13.6847038,19.8076923 14.4066923,19.8076923 L18.1923077,19.8076923 L18.1923077,23.5916923 C18.1923077,24.3148932 18.7776075,24.8993846 19.5,24.8993846 C20.2223925,24.8993846 20.8076923,24.3148932 20.8076923,23.5916923 Z" id="Combined-Shape"></path>
        </g>
    </g>
</svg>