<?xml version="1.0" encoding="UTF-8"?>
<svg width="32px" height="32px" viewBox="0 0 32 32" version="1.1" xmlns="http://www.w3.org/2000/svg" xmlns:xlink="http://www.w3.org/1999/xlink">
    <!-- Generator: Sketch 55.2 (78181) - https://sketchapp.com -->
    <title>crossfade</title>
    <desc>Created with Sketch.</desc>
    <g id="crossfade" stroke="none" stroke-width="1" fill="none" fill-rule="evenodd">
        <g id="Group" transform="translate(1.000000, 7.000000)" fill="#FFFFFF">
            <path d="M14.0482528,5.52529071 L12.1447584,7.96176357 L8.26838058,3 L2.5,3 C1.67157288,3 1,2.32842712 1,1.5 C1,0.671572875 1.67157288,0 2.5,0 L9.73161942,0 L14.0482528,5.52529071 Z M17.8552416,10.3982364 L22.2316194,16 L28,16 C28.8284271,16 29.5,16.6715729 29.5,17.5 C29.5,18.3284271 28.8284271,19 28,19 L20.7683806,19 L15.9517472,12.8347093 L17.8552416,10.3982364 L17.8552416,10.3982364 Z" id="Shape" fill-opacity="0.4"></path>
            <path d="M21.7316194,3 L27.5,3 C28.3284271,3 29,2.32842712 29,1.5 C29,0.671572875 28.3284271,0 27.5,0 L20.2683806,0 L7.76838058,16 L2,16 C1.17157288,16 0.5,16.6715729 0.5,17.5 C0.5,18.3284271 1.17157288,19 2,19 L9.23161942,19 L21.7316194,3 Z" id="Path"></path>
        </g>
    </g>
</svg>