<?xml version="1.0" encoding="UTF-8"?>
<svg width="32px" height="32px" viewBox="0 0 32 32" version="1.1" xmlns="http://www.w3.org/2000/svg" xmlns:xlink="http://www.w3.org/1999/xlink">
    <!-- Generator: Sketch 55.2 (78181) - https://sketchapp.com -->
    <title>crown</title>
    <desc>Created with Sketch.</desc>
    <g id="crown" stroke="none" stroke-width="1" fill="none" fill-rule="evenodd">
        <path d="M28.5,6.75 C29.87875,6.75 31,7.87125 31,9.25 C31,10.5975 29.92625,11.6925 28.59,11.74125 L25.98,21.905 C25.91,22.18125 25.66,22.375 25.375,22.375 L6.625,22.375 C6.33875,22.375 6.09,22.18125 6.01875,21.90375 L3.4475,11.745 C2.09375,11.71625 1,10.61 1,9.25 C1,7.87125 2.12125,6.75 3.5,6.75 C4.87875,6.75 6,7.87125 6,9.25 C6,10.065 5.60125,10.78375 4.99625,11.24 L9.09875,15.2275 L14.78375,9.00375 C13.66375,8.5275 12.875,7.4175 12.875,6.125 C12.875,4.4025 14.2775,3 16,3 C17.7225,3 19.125,4.4025 19.125,6.125 C19.125,7.4175 18.33625,8.5275 17.21625,9.00375 L22.90375,15.23 L27.03375,11.265 C26.41,10.81 26,10.08 26,9.25 C26,7.87125 27.12125,6.75 28.5,6.75 Z M26,23.625 C27.6325,23.625 28.48625,24.8825 28.48625,26.125 C28.48625,27.3675 27.6325,28.625 26,28.625 L6,28.625 C4.35875,28.625 3.5,27.3675 3.5,26.125 C3.5,24.8825 4.35875,23.625 6,23.625 L26,23.625 Z" id="Combined-Shape" fill="#FFFFFF"></path>
    </g>
</svg>