<?xml version="1.0" encoding="UTF-8"?>
<svg width="32px" height="32px" viewBox="0 0 32 32" version="1.1" xmlns="http://www.w3.org/2000/svg" xmlns:xlink="http://www.w3.org/1999/xlink">
    <!-- Generator: Sketch 55.2 (78181) - https://sketchapp.com -->
    <title>crown-inactive</title>
    <desc>Created with Sketch.</desc>
    <g id="crown-inactive" stroke="none" stroke-width="1" fill="none" fill-rule="evenodd">
        <g transform="translate(1.000000, 1.000000)" fill="#FFFFFF" id="Combined-Shape">
            <path d="M25.014803,20.7694718 L13.0511297,8.80579848 L13.78375,8.00375 C12.66375,7.5275 11.875,6.4175 11.875,5.125 C11.875,3.4025 13.2775,2 15,2 C16.7225,2 18.125,3.4025 18.125,5.125 C18.125,6.4175 17.33625,7.5275 16.21625,8.00375 L21.90375,14.23 L26.03375,10.265 C25.41,9.81 25,9.08 25,8.25 C25,6.87125 26.12125,5.75 27.5,5.75 C28.87875,5.75 30,6.87125 30,8.25 C30,9.5975 28.92625,10.6925 27.59,10.74125 L25.014803,20.7694718 Z M17.1350498,21.375 L5.625,21.375 C5.33875,21.375 5.09,21.18125 5.01875,20.90375 L2.4475,10.745 C1.09375,10.71625 0,9.61 0,8.25 C0,7.16714311 0.691629534,6.243122 1.65643754,5.89638771 L4.85158047,9.09153064 C4.68333188,9.55222086 4.38163611,9.94936792 3.99625,10.24 L8.09875,14.2275 L9.00042541,13.2403756 L17.1350498,21.375 Z M23.3850498,27.625 L5,27.625 C3.35875,27.625 2.5,26.3675 2.5,25.125 C2.5,23.8825 3.35875,22.625 5,22.625 L18.3850498,22.625 L23.3850498,27.625 Z" fill-opacity="0.4"></path>
            <path d="M0.943830586,3.06246041 L26.1472714,28.2659012 C26.7331315,28.8517613 27.6894865,28.8547691 28.2734731,28.2707825 C28.8610249,27.6832307 28.8580615,26.7340506 28.2685918,26.1445809 L3.06515093,0.941140063 C2.47929083,0.355279965 1.5229358,0.352272242 0.938949282,0.93625876 C0.351397459,1.52381058 0.35436087,2.47299069 0.943830586,3.06246041 Z"></path>
        </g>
    </g>
</svg>