<?xml version="1.0" encoding="UTF-8"?>
<svg width="32px" height="32px" viewBox="0 0 32 32" version="1.1" xmlns="http://www.w3.org/2000/svg" xmlns:xlink="http://www.w3.org/1999/xlink">
    <!-- Generator: Sketch 55.2 (78181) - https://sketchapp.com -->
    <title>cut</title>
    <desc>Created with Sketch.</desc>
    <g id="cut" stroke="none" stroke-width="1" fill="none" fill-rule="evenodd">
        <path d="M17.5,10 L17.5,23 L28.5263158,23 C29.3402091,23 30,23.6715729 30,24.5 C30,25.3284271 29.3402091,26 28.5263158,26 L3.47368421,26 C2.65979089,26 2,25.3284271 2,24.5 C2,23.6715729 2.65979089,23 3.47368421,23 L14.5,23 L14.5,10 L3.47368421,10 C2.65979089,10 2,9.32842712 2,8.5 C2,7.67157288 2.65979089,7 3.47368421,7 L28.5263158,7 C29.3402091,7 30,7.67157288 30,8.5 C30,9.32842712 29.3402091,10 28.5263158,10 L17.5,10 Z" id="Path" fill="#FFFFFF"></path>
    </g>
</svg>