<?xml version="1.0" encoding="UTF-8"?>
<svg width="32px" height="32px" viewBox="0 0 32 32" version="1.1" xmlns="http://www.w3.org/2000/svg" xmlns:xlink="http://www.w3.org/1999/xlink">
    <!-- Generator: Sketch 55.2 (78181) - https://sketchapp.com -->
    <title>device-connected</title>
    <desc>Created with Sketch.</desc>
    <g id="device-connected" stroke="none" stroke-width="1" fill="none" fill-rule="evenodd">
        <path d="M15,29 L15,23 L17,23 L17,29 L24,29 C24.5522847,29 25,29.4477153 25,30 C25,30.5522847 24.5522847,31 24,31 L8,31 C7.44771525,31 7,30.5522847 7,30 C7,29.4477153 7.44771525,29 8,29 L15,29 Z M1,30 C1,29.4478734 1.44787344,29 2,29 C2.55212656,29 3,29.4478734 3,30 C3,30.5521266 2.55212656,31 2,31 C1.44787344,31 1,30.5521266 1,30 Z M4,30 C4,29.4478734 4.44787344,29 5,29 C5.55212656,29 6,29.4478734 6,30 C6,30.5521266 5.55212656,31 5,31 C4.44787344,31 4,30.5521266 4,30 Z M26,30 C26,29.4478734 26.4478734,29 27,29 C27.5521266,29 28,29.4478734 28,30 C28,30.5521266 27.5521266,31 27,31 C26.4478734,31 26,30.5521266 26,30 Z M29,30 C29,29.4478734 29.4478734,29 30,29 C30.5521266,29 31,29.4478734 31,30 C31,30.5521266 30.5521266,31 30,31 C29.4478734,31 29,30.5521266 29,30 Z M24.0040031,1.6967783 L29.8717469,7.3032217 C30.2767471,7.6901866 30.1509494,8 29.5957839,8 L2.40371615,8 C1.84551583,8 1.72494205,7.68804173 2.12762872,7.3032217 L7.99437128,1.6967783 C8.39930241,1.3098134 9.17128972,1 9.72366634,1 L22.2745837,1 C22.8233036,1 23.6012478,1.31195827 24.0040031,1.6967783 Z M4,19 C4,19.8265 4.672,20.5 5.5,20.5 C6.3265,20.5 7,19.8265 7,19 C7,18.172 6.3265,17.5 5.5,17.5 C4.672,17.5 4,18.172 4,19 Z M26,19 C26,19.8265 26.672,20.5 27.5,20.5 C28.3265,20.5 29,19.8265 29,19 C29,18.172 28.3265,17.5 27.5,17.5 C26.672,17.5 26,18.172 26,19 Z M21,19 C21,19.8265 21.672,20.5 22.5,20.5 C23.3265,20.5 24,19.8265 24,19 C24,18.172 23.3265,17.5 22.5,17.5 C21.672,17.5 21,18.172 21,19 Z M16,19 C16,19.8265 16.672,20.5 17.5,20.5 C18.3265,20.5 19,19.8265 19,19 C19,18.172 18.3265,17.5 17.5,17.5 C16.672,17.5 16,18.172 16,19 Z M1.99815369,16.00025 L30.0018463,16.00025 C30.5526348,16.00025 31,16.4438364 31,16.991028 L31,21.009472 C31,21.5492748 30.5531114,22.00025 30.0018463,22.00025 L1.99815369,22.00025 C1.44736519,22.00025 1,21.5566636 1,21.009472 L1,16.991028 C1,16.4512252 1.44688863,16.00025 1.99815369,16.00025 Z M4,12 C4,12.8265 4.672,13.5 5.5,13.5 C6.3265,13.5 7,12.8265 7,12 C7,11.172 6.3265,10.5 5.5,10.5 C4.672,10.5 4,11.172 4,12 Z M26,12 C26,12.8265 26.672,13.5 27.5,13.5 C28.3265,13.5 29,12.8265 29,12 C29,11.172 28.3265,10.5 27.5,10.5 C26.672,10.5 26,11.172 26,12 Z M21,12 C21,12.8265 21.672,13.5 22.5,13.5 C23.3265,13.5 24,12.8265 24,12 C24,11.172 23.3265,10.5 22.5,10.5 C21.672,10.5 21,11.172 21,12 Z M16,12 C16,12.8265 16.672,13.5 17.5,13.5 C18.3265,13.5 19,12.8265 19,12 C19,11.172 18.3265,10.5 17.5,10.5 C16.672,10.5 16,11.172 16,12 Z M1.99815369,9.00025 L30.0018463,9.00025 C30.5526348,9.00025 31,9.44383641 31,9.99102797 L31,14.009472 C31,14.5492748 30.5531114,15.00025 30.0018463,15.00025 L1.99815369,15.00025 C1.44736519,15.00025 1,14.5566636 1,14.009472 L1,9.99102797 C1,9.45122518 1.44688863,9.00025 1.99815369,9.00025 Z" id="Shape" fill="#FFFFFF"></path>
    </g>
</svg>