<?xml version="1.0" encoding="UTF-8"?>
<svg width="32px" height="32px" viewBox="0 0 32 32" version="1.1" xmlns="http://www.w3.org/2000/svg" xmlns:xlink="http://www.w3.org/1999/xlink">
    <!-- Generator: Sketch 55.2 (78181) - https://sketchapp.com -->
    <title>duration</title>
    <desc>Created with Sketch.</desc>
    <g id="duration" stroke="none" stroke-width="1" fill="none" fill-rule="evenodd">
        <path d="M16,31 C7.72913043,31 1,24.2708696 1,16 C1,7.72913043 7.72913043,1 16,1 C24.2708696,1 31,7.72913043 31,16 C31,24.2708696 24.2708696,31 16,31 Z M16.1274433,15.8725567 L16.1274433,8.56372166 C16.1274433,7.7005473 15.426896,7 14.5637217,7 C13.7005473,7 13,7.7005473 13,8.56372166 L13,19 L22.365129,19 C23.2283034,19 23.9288507,18.2994527 23.9288507,17.4362783 C23.9288507,16.573104 23.2283034,15.8725567 22.365129,15.8725567 L16.1274433,15.8725567 Z" id="Combined-Shape" fill="#FFFFFF"></path>
    </g>
</svg>