<?xml version="1.0" encoding="UTF-8"?>
<svg width="32px" height="32px" viewBox="0 0 32 32" version="1.1" xmlns="http://www.w3.org/2000/svg" xmlns:xlink="http://www.w3.org/1999/xlink">
    <!-- Generator: Sketch 55.2 (78181) - https://sketchapp.com -->
    <title>edit</title>
    <desc>Created with Sketch.</desc>
    <g id="edit" stroke="none" stroke-width="1" fill="none" fill-rule="evenodd">
        <path d="M1.01700532,30.2212207 L2.94112296,22.0199388 C2.95380666,21.9666672 2.97410058,21.9146641 3.00073636,21.866466 L10.1353189,29.0010485 C10.0871208,29.0276843 10.0351176,29.0479782 9.98057773,29.0606619 L1.77929583,30.9835112 C1.73109776,30.9949265 1.68289969,31 1.63470162,31 C1.46854512,31 1.30619373,30.9353131 1.18569856,30.8148179 C1.03095739,30.6600768 0.966270511,30.4343069 1.01700532,30.2212207 Z M27.8298446,11.346096 L20.6546742,4.17092557 L21.551412,3.27418782 L28.7265824,10.4493582 L27.8298446,11.346096 Z M11.0520969,28.1242242 L3.87692651,20.9490538 L19.7581901,5.06779016 L26.9333605,12.2429605 L11.0520969,28.1242242 Z M29.623447,9.55262045 L22.4482766,2.37745007 L22.8972796,1.92971538 C23.4959504,1.32977626 24.2924869,1 25.1397582,1 C25.9857611,1 26.7822976,1.32977626 27.3809684,1.92971538 L30.07245,4.61992863 C31.3078426,5.85532124 31.3078426,7.86695642 30.07245,9.10361739 L29.623447,9.55262045 Z" id="Combined-Shape" fill="#FFFFFF"></path>
    </g>
</svg>