<?xml version="1.0" encoding="UTF-8"?>
<svg width="32px" height="32px" viewBox="0 0 32 32" version="1.1" xmlns="http://www.w3.org/2000/svg" xmlns:xlink="http://www.w3.org/1999/xlink">
    <!-- Generator: Sketch 55.2 (78181) - https://sketchapp.com -->
    <title>email-send</title>
    <desc>Created with Sketch.</desc>
    <g id="email-send" stroke="none" stroke-width="1" fill="none" fill-rule="evenodd">
        <g id="send" transform="translate(0.000000, 2.000000)" fill="#FFFFFF">
            <path d="M1.1887,12.543 L30.0277,0.66 L11.6517,17.691 L1.1917,13.469 C1.0037,13.393 0.8797,13.21 0.8787,13.007 C0.8787,12.804 1.0007,12.621 1.1887,12.543 Z M12.0146,18.7188 L30.9996,1.1228 L25.8236,24.4618 C25.7906,24.6148 25.6866,24.7418 25.5446,24.8078 C25.4786,24.8378 25.4066,24.8538 25.3356,24.8538 C25.2546,24.8538 25.1736,24.8338 25.1006,24.7948 L17.2446,20.5958 L12.9436,27.7578 C12.8516,27.9108 12.6866,28.0008 12.5146,28.0008 C12.4706,28.0008 12.4256,27.9948 12.3816,27.9828 C12.1646,27.9228 12.0146,27.7248 12.0146,27.5008 L12.0146,18.7188 Z" id="Combined-Shape"></path>
        </g>
    </g>
</svg>