<?xml version="1.0" encoding="UTF-8"?>
<svg width="32px" height="32px" viewBox="0 0 32 32" version="1.1" xmlns="http://www.w3.org/2000/svg" xmlns:xlink="http://www.w3.org/1999/xlink">
    <!-- Generator: Sketch 55.2 (78181) - https://sketchapp.com -->
    <title>exapnd-all</title>
    <desc>Created with Sketch.</desc>
    <g id="exapnd-all" stroke="none" stroke-width="1" fill="none" fill-rule="evenodd">
        <path d="M29.9668891,16.7214961 C28.9280706,16.3499932 27.7646345,16.4467514 26.7982046,17 L15.1997499,17 C14.0391774,16.3364939 12.5974809,16.330153 11.4278317,17 L11,17 C9.8954305,17 9,16.1045695 9,15 C9,13.8954305 9.8954305,13 11,13 L28.9997764,13 C29.0095972,13 29.0194178,13.0000734 29.0292375,13.0002202 C30.1174145,13.0164911 30.986366,13.911823 30.9700951,15 C30.9591056,15.7349674 30.5585986,16.3739234 29.9668891,16.7214961 Z" id="Combined-Shape" fill-opacity="0.4" fill="#FFFFFF"></path>
        <path d="M12.422148,25 L3,25 C1.8954305,25 1,24.1045695 1,23 C1,21.8954305 1.8954305,21 3,21 L9.55793066,21 C9.68110583,21.6990025 9.99904215,22.3715092 10.5147433,22.929908 L12.422148,25 Z M19.126674,21 L22.873024,21 L20.9998492,23.03283 L19.126674,21 Z" id="Combined-Shape" fill="#FFFFFF"></path>
        <path d="M24.0490886,31 L27.734729,27 L28.9997764,27 C29.0095972,27 29.0194178,27.0000734 29.0292375,27.0002202 C30.1174145,27.0164911 30.986366,27.911823 30.9700951,29 C30.9535073,30.1093736 30.0494643,31 28.9399667,31 L24.0490886,31 Z M17.9506116,31 L7,31 C5.8954305,31 5,30.1045695 5,29 C5,27.8954305 5.8954305,27 7,27 L14.2649692,27 L17.9506116,31 Z" id="Combined-Shape" fill-opacity="0.4" fill="#FFFFFF"></path>
        <path d="M28.9997764,7 C29.0095972,7 29.0194178,7.00007342 29.0292375,7.00022024 C30.1174145,7.01649114 30.986366,7.91182303 30.9700951,9 C30.9535073,10.1093736 30.0494643,11 28.9399667,11 L7,11 C5.8954305,11 5,10.1045695 5,9 C5,7.8954305 5.8954305,7 7,7 L28.9997764,7 Z" id="Combined-Shape" fill-opacity="0.4" fill="#FFFFFF"></path>
        <path d="M24.9997764,1 L3,1 C1.8954305,1 1,1.8954305 1,3 C1,4.1045695 1.8954305,5 3,5 L24.9399667,5 C26.0494643,5 26.9535073,4.10937362 26.9700951,3 C26.986366,1.91182303 26.1174145,1.01649114 25.0292375,1.00022024 C25.0194178,1.00007342 25.0095972,1 24.9997764,1 Z" id="Combined-Shape-path" fill="#FFFFFF"></path>
        <path d="M30.2708702,18.6330774 C29.3378564,17.7467596 27.8612893,17.7968542 26.9889039,18.7470738 L21.0000268,25.2463997 L15.0113234,18.7472645 C14.1407575,17.7975945 12.6633065,17.7457038 11.7281192,18.6340866 C10.8024971,19.5090196 10.752196,20.9759462 11.6185017,21.9139788 L19.3031639,30.254088 C19.7397495,30.7290823 20.3551518,31 21.0000271,31 C21.644707,31 22.2601732,30.7292262 22.6973824,30.2535532 L30.3820119,21.9134808 C31.2474045,20.9764369 31.1980432,19.5094766 30.2708702,18.6330774 Z" id="Path" fill="#FFFFFF" transform="translate(21.000000, 24.500000) scale(-1, 1) translate(-21.000000, -24.500000) "></path>
    </g>
</svg>