<?xml version="1.0" encoding="UTF-8"?>
<svg width="32px" height="32px" viewBox="0 0 32 32" version="1.1" xmlns="http://www.w3.org/2000/svg" xmlns:xlink="http://www.w3.org/1999/xlink">
    <!-- Generator: Sketch 55.2 (78181) - https://sketchapp.com -->
    <title>facebook</title>
    <desc>Created with Sketch.</desc>
    <defs>
        <linearGradient x1="50%" y1="0%" x2="50%" y2="100%" id="linearGradient-1">
            <stop stop-color="#6387D3" offset="0%"></stop>
            <stop stop-color="#2D4A86" offset="100%"></stop>
        </linearGradient>
    </defs>
    <g id="facebook" stroke="none" stroke-width="1" fill="none" fill-rule="evenodd">
        <g id="Facebook" transform="translate(1.000000, 1.000000)">
            <path d="M22.8515625,-1.53409893e-15 C27.1875,-1.53409893e-15 30,2.8125 30,7.1484375 L30,22.8515625 C30,27.1875 27.1875,30 22.8515625,30 L7.1484375,30 C2.8125,30 0,27.1875 0,22.8515625 L0,7.1484375 C0,2.8125 2.8125,-1.53409893e-15 7.1484375,-1.53409893e-15 L22.8515625,-1.53409893e-15 Z" id="App-Icon-Shape" fill="url(#linearGradient-1)"></path>
            <path d="M15.6929825,29.8516208 L15.6929825,18.2318456 L11.9181104,18.2318456 L11.9181104,14.0533362 L15.6929824,14.0533362 L15.6929825,10.9893749 C15.6929825,10.9893749 15.4214419,4.62061954 20.9329419,4.62061954 L25.3912502,4.62061954 L25.39125,8.87791959 L22.61325,8.87791959 C22.61325,8.87791959 20.56875,8.76698032 20.5465,10.8770753 L20.5464998,14.0533362 L25.0408578,14.0533362 L24.3926301,18.2318456 L20.5020004,18.2318456 L20.5020004,30 L15.6929825,30 L15.6929825,29.8516208 Z" id="Icon" fill="#FFFFFF"></path>
        </g>
    </g>
</svg>