<?xml version="1.0" encoding="UTF-8"?>
<svg width="32px" height="32px" viewBox="0 0 32 32" version="1.1" xmlns="http://www.w3.org/2000/svg" xmlns:xlink="http://www.w3.org/1999/xlink">
    <!-- Generator: Sketch 55.2 (78181) - https://sketchapp.com -->
    <title>fit-width</title>
    <desc>Created with Sketch.</desc>
    <g id="fit-width" stroke="none" stroke-width="1" fill="none" fill-rule="evenodd">
        <g transform="translate(1.000000, 3.000000)">
            <path d="M6,7.95724981 L6,0 L0,0 L0,27 L6,27 L6,19.1902382 L2.98667555,16.4146989 C2.08519162,15.951886 1.5,15.006481 1.5,13.9523565 C1.50066104,13.9301381 1.50120331,13.9119117 1.50169587,13.8965339 C1.48064982,13.1530951 1.75380348,12.4269311 2.26409144,11.8897858 L6,7.95724981 Z M24,19.1907575 L24,27 L30,27 L30,0 L24,0 L24,7.95665593 L27.7364727,11.8897858 C28.2484842,12.4287453 28.5217568,13.1580024 28.498645,13.9040673 L28.4993642,13.8576222 C28.498221,13.9009941 28.4986839,13.9217889 28.4993642,13.9523565 C28.4993642,15.006267 27.9153025,15.9517639 27.0139338,16.4146573 L24,19.1907575 L24,19.1907575 Z" id="Combined-Shape" fill-opacity="0.4" fill="#FFFFFF"></path>
            <path d="M26.9993642,13.8576222 C27.0101639,13.5089998 26.8829673,13.1692192 26.6489735,12.9229099 L21.8491007,7.8704113 C21.3799131,7.37652957 20.6203332,7.37652957 20.1511456,7.8704113 C19.683158,8.36302992 19.683158,9.16258783 20.1511456,9.65646957 L23.0334693,12.6892319 L6.96709491,12.6892319 L9.84941855,9.65646957 C10.3174062,9.16258783 10.3174062,8.36302992 9.84941855,7.8704113 C9.38023098,7.37652957 8.6206511,7.37652957 8.15146353,7.8704113 L3.35159069,12.9229099 C3.11759688,13.1692192 2.99040025,13.5089998 3.00119997,13.8576222 C3.00119997,13.8702534 3.00479987,13.8828847 3.00599984,13.8955159 C3.00479987,13.9144628 3,13.9334096 3,13.9523565 C3,14.5106576 3.34559084,14.9780137 3.82197822,15.1447462 L8.21026197,19.1867451 C8.43825593,19.3964238 8.71904849,19.5 8.99984106,19.5 C9.33343222,19.5 9.66582341,19.3534775 9.90341712,19.0680114 C10.3402055,18.5425515 10.2898069,17.7455199 9.79062011,17.2857425 L7.54307965,15.2154812 L22.4574845,15.2154812 L20.2099441,17.2857425 C19.7107573,17.7455199 19.6603586,18.5425515 20.0971471,19.0680114 C20.3335408,19.3534775 20.665932,19.5 21.0007231,19.5 C21.2815157,19.5 21.5623083,19.3964238 21.7903022,19.1867451 L26.178586,15.1447462 C26.6549733,14.9780137 26.9993642,14.5106576 26.9993642,13.9523565 C26.9993642,13.9334096 26.9957643,13.9144628 26.9945643,13.8955159 C26.9957643,13.8828847 26.9993642,13.8702534 26.9993642,13.8576222 Z" id="Path" fill="#6F8AC8"></path>
            <path d="M26.9993642,13.8576222 C27.0101639,13.5089998 26.8829673,13.1692192 26.6489735,12.9229099 L21.8491007,7.8704113 C21.3799131,7.37652957 20.6203332,7.37652957 20.1511456,7.8704113 C19.683158,8.36302992 19.683158,9.16258783 20.1511456,9.65646957 L23.0334693,12.6892319 L6.96709491,12.6892319 L9.84941855,9.65646957 C10.3174062,9.16258783 10.3174062,8.36302992 9.84941855,7.8704113 C9.38023098,7.37652957 8.6206511,7.37652957 8.15146353,7.8704113 L3.35159069,12.9229099 C3.11759688,13.1692192 2.99040025,13.5089998 3.00119997,13.8576222 C3.00119997,13.8702534 3.00479987,13.8828847 3.00599984,13.8955159 C3.00479987,13.9144628 3,13.9334096 3,13.9523565 C3,14.5106576 3.34559084,14.9780137 3.82197822,15.1447462 L8.21026197,19.1867451 C8.43825593,19.3964238 8.71904849,19.5 8.99984106,19.5 C9.33343222,19.5 9.66582341,19.3534775 9.90341712,19.0680114 C10.3402055,18.5425515 10.2898069,17.7455199 9.79062011,17.2857425 L7.54307965,15.2154812 L22.4574845,15.2154812 L20.2099441,17.2857425 C19.7107573,17.7455199 19.6603586,18.5425515 20.0971471,19.0680114 C20.3335408,19.3534775 20.665932,19.5 21.0007231,19.5 C21.2815157,19.5 21.5623083,19.3964238 21.7903022,19.1867451 L26.178586,15.1447462 C26.6549733,14.9780137 26.9993642,14.5106576 26.9993642,13.9523565 C26.9993642,13.9334096 26.9957643,13.9144628 26.9945643,13.8955159 C26.9957643,13.8828847 26.9993642,13.8702534 26.9993642,13.8576222 Z" id="Path" fill="#FFFFFF"></path>
        </g>
    </g>
</svg>