<?xml version="1.0" encoding="UTF-8"?>
<svg width="32px" height="32px" viewBox="0 0 32 32" version="1.1" xmlns="http://www.w3.org/2000/svg" xmlns:xlink="http://www.w3.org/1999/xlink">
    <!-- Generator: Sketch 55.2 (78181) - https://sketchapp.com -->
    <title>folder-up</title>
    <desc>Created with Sketch.</desc>
    <g id="folder-up" stroke="none" stroke-width="1" fill="none" fill-rule="evenodd">
        <g transform="translate(1.000000, 1.000000)" fill="#FFFFFF">
            <path d="M25.2218926,25.0001 L29.0018463,25.0001 C29.5526348,25.0001 30,24.5512826 30,23.9976383 L30,4.00256167 C30,3.43955834 29.5514791,3.0001 28.9982005,3.0001 L12.081,3.0001 L9.709,0.1781 C9.614,0.0651 9.474,0.0001 9.326,0.0001 L0.5,0.0001 C0.224,0.0001 0,0.2241 0,0.5001 L0,24.0093267 C0,24.5539424 0.446888627,25.0001 0.998153687,25.0001 L14.1025022,25.0001 C12.1339134,22.7717238 10.8814328,19.9807901 10.5203546,16.5851228 L9.5824726,16.5851228 C8.77618965,16.5851228 8.04037666,16.1197281 7.69850365,15.3923887 C7.35162828,14.6586084 7.46619033,13.791136 7.99220982,13.1654788 L13.8697592,6.23535699 C14.2676278,5.7662597 14.8544646,5.49591599 15.4711422,5.50004613 C16.085269,5.50413158 16.6667092,5.77689983 17.0608645,6.24984415 L22.8373928,13.1803935 C23.3538946,13.8005787 23.4635141,14.6616536 23.1159223,15.4010673 C22.7695436,16.124969 22.03771,16.5851228 21.2349822,16.5851228 L20.528807,16.5851228 C20.9848559,20.262176 22.6681654,23.0029841 25.2218926,25.0001 L25.2218926,25.0001 Z" id="Combined-Shape" fill-opacity="0.4"></path>
            <path d="M29.995339,29.4939435 C29.9976695,29.4696881 30,29.4454328 30,29.4223325 C30,29.1566789 29.8147251,28.9210557 29.5478826,28.8598399 C29.44301,28.8355845 19.2493946,26.3742461 18.9126371,15.0851228 L21.2349822,15.0851228 C21.4610409,15.0851228 21.6661251,14.955761 21.7628409,14.7536333 C21.8583915,14.5503505 21.828095,14.3124173 21.6847691,14.1403199 L15.9086201,7.21022579 C15.7979212,7.07739899 15.6347861,7.00116795 15.4611637,7 C15.2887066,6.99885792 15.1244062,7.07508896 15.0137073,7.20560573 L9.13618148,14.1356999 C8.99052511,14.3089522 8.95906334,14.5491955 9.05461391,14.7513232 C9.15016449,14.954606 9.35641391,15.0851228 9.5824726,15.0851228 L11.9211313,15.0851228 C12.3627614,29.4766182 29.2320996,29.9963753 29.4045568,30 C29.7040263,30.0067704 29.958051,29.7873175 29.995339,29.4939435 Z" id="Fill-2059"></path>
        </g>
    </g>
</svg>