<?xml version="1.0" encoding="UTF-8"?>
<svg width="32px" height="32px" viewBox="0 0 32 32" version="1.1" xmlns="http://www.w3.org/2000/svg" xmlns:xlink="http://www.w3.org/1999/xlink">
    <!-- Generator: Sketch 55.2 (78181) - https://sketchapp.com -->
    <title>folder-empty</title>
    <desc>Created with Sketch.</desc>
    <g id="folder-empty" stroke="none" stroke-width="1" fill="none" fill-rule="evenodd">
        <path d="M1,4.84210526 C1,3.82473862 1.82473862,3 2.84210526,3 L10.326,3 C10.474,3 10.614,3.065 10.709,3.178 L13.081,6 L25,6 C26.1045695,6 27,6.8954305 27,8 L27,27.5 C27,28.3284271 26.3284271,29 25.5,29 L2.5,29 C1.67157288,29 1,28.3284271 1,27.5 L1,4.84210526 Z" id="Combined-Shape" fill-opacity="0.4" fill="#FFFFFF"></path>
        <path d="M6.33333333,12 C5.86463468,12 5.45882129,12.325532 5.35714627,12.7830695 L2.02381294,27.7830695 C2.00798518,27.8542944 2,27.9270377 2,28 C2,28.5522847 2.44771525,29 3,29 L25.9899474,29 C26.4391553,29 26.8332376,28.7004636 26.9534654,28.2676439 L31.120132,13.2676439 C31.1443415,13.1804898 31.1566141,13.090454 31.1566141,13 C31.1566141,12.4477153 30.7088989,12 30.1566141,12 L6.33333333,12 Z" id="Combined-Shape" fill="#FFFFFF"></path>
    </g>
</svg>