<?xml version="1.0" encoding="UTF-8"?>
<svg width="30px" height="30px" viewBox="0 0 30 30" version="1.1" xmlns="http://www.w3.org/2000/svg" xmlns:xlink="http://www.w3.org/1999/xlink">
    <!-- Generator: Sketch 55.2 (78181) - https://sketchapp.com -->
    <title>go-to-in</title>
    <desc>Created with Sketch.</desc>
    <g id="go-to-in" stroke="none" stroke-width="1" fill="none" fill-rule="evenodd">
        <g fill="#FFFFFF" fill-opacity="0.4" id="Combined-Shape">
            <path d="M0,30 L0,0 L9.0000002,1.22464682e-15 L9,3.34782609 C9,3.61930435 8.8224,3.85852174 8.5638,3.93278261 L3,6.24156522 L3,23.3043478 L8.5638,25.6125217 C8.8224,25.6873913 9,25.9272174 9,26.198087 L9.0000002,30 L0,30 Z"></path>
        </g>
        <path d="M28.5917432,28.995339 C28.5673824,28.9976695 28.5430216,29 28.5198209,29 C28.2530123,29 28.0163646,28.8147251 27.9548826,28.5478826 C27.9305218,28.44301 25.4584819,18.2493946 14.1202755,17.9126371 L14.1202755,20.2349822 C14.1202755,20.4610409 13.9903513,20.6661251 13.7873447,20.7628409 C13.5831781,20.8583915 13.3442104,20.828095 13.1713648,20.6847691 L6.21113982,14.9086201 C6.07773551,14.7979212 6.00117303,14.6347861 6,14.4611637 C5.99885296,14.2887066 6.07541543,14.1244062 6.20649967,14.0137073 L13.1667246,8.13618148 C13.3407303,7.99052511 13.5820181,7.95906334 13.7850246,8.05461391 C13.9891912,8.15016449 14.1202755,8.35641391 14.1202755,8.5824726 L14.1202755,10.9211313 C28.5743427,11.3627614 29.0963595,28.2320996 29.1,28.4045568 C29.1067999,28.7040263 28.8863927,28.958051 28.5917432,28.995339 Z" id="Fill-2059" fill="#FFFFFF"></path>
    </g>
</svg>