<?xml version="1.0" encoding="UTF-8"?>
<svg width="32px" height="32px" viewBox="0 0 32 32" version="1.1" xmlns="http://www.w3.org/2000/svg" xmlns:xlink="http://www.w3.org/1999/xlink">
    <!-- Generator: Sketch 55.2 (78181) - https://sketchapp.com -->
    <title>helicopter</title>
    <desc>Created with Sketch.</desc>
    <g id="helicopter" stroke="none" stroke-width="1" fill="none" fill-rule="evenodd">
        <path d="M24.8169439,24.2818627 L18.8774428,24.2818627 L18.2225572,27.1004902 L25.4718295,27.1004902 L24.8169439,24.2818627 Z M4.3080758,14 L1.86397059,14 C1.38681281,14 1,13.6131872 1,13.1360294 C1,12.6588716 1.38681281,12.2720588 1.86397059,12.2720588 L4.25567916,12.2720588 L5.83931195,9.93917938 C6.13486339,9.50079276 6.73509159,9.38320852 7.17999477,9.67396725 C7.62466029,9.96457067 7.74485224,10.5537994 7.44889229,10.9908913 L7.20331062,11.3529412 L15.033264,11.3529412 L15.033264,9.54534314 C15.033264,9.02093885 15.4662197,8.59558824 16,8.59558824 L16.9043659,8.59558824 L16.9043659,5.81862745 L7.11226611,5.81862745 C6.57848578,5.81862745 6.14553015,5.39327684 6.14553015,4.86887255 C6.14553015,4.34446826 6.57848578,3.91911765 7.11226611,3.91911765 L16.9048598,3.91911765 C16.9213313,3.4088836 17.3477559,3 17.8711019,3 C18.3944478,3 18.8208724,3.4088836 18.837344,3.91911765 L29.0977131,3.91911765 C29.6314934,3.91911765 30.0644491,4.34446826 30.0644491,4.86887255 C30.0644491,5.39327684 29.6314934,5.81862745 29.0977131,5.81862745 L18.8378378,5.81862745 L18.8378378,8.59558824 L19.7422037,8.59558824 C20.2759841,8.59558824 20.7089397,9.02093885 20.7089397,9.54534314 L20.7089397,11.3679389 C25.08036,11.629652 29.1288981,15.2714242 29.1288981,18.7365196 C29.1288981,21.1388597 28.306843,23.2788749 26.9078963,24.0104205 L27.7658922,27.1004902 L29.2051426,27.1004902 C29.3744379,26.8251077 29.6820225,26.6409314 30.033264,26.6409314 C30.5670444,26.6409314 31,27.066282 31,27.5906863 C31,28.4367817 30.4267117,29 29.5654886,29 L13.6611227,29 C13.1273423,29 12.6943867,28.5746494 12.6943867,28.0502451 C12.6943867,27.5258408 13.1273423,27.1004902 13.6611227,27.1004902 L15.9274195,27.1004902 L16.8464187,23.9214074 C15.5398357,23.2388065 14.5471847,21.9606292 13.8151539,20.2624707 C13.3051147,19.0792863 12.9765694,17.8326158 12.7893591,16.7049943 L7.49157905,15.0610744 C7.71503325,15.4583143 7.62114805,15.9682103 7.24652388,16.2629803 C7.07348633,16.39787 6.86169774,16.4693627 6.64449064,16.4693627 C6.35427092,16.4693627 6.07585859,16.3415154 5.88903467,16.1134744 L4.3080758,14 Z M25.8232848,18.7365196 C25.8232848,16.5719975 23.8165281,14.6004902 21.6133056,14.6004902 C21.3550936,14.6004902 21.1455301,14.8063725 21.1455301,15.060049 L21.1455301,18.7365196 C21.1455301,18.9901961 21.3550936,19.1960784 21.6133056,19.1960784 L25.3555094,19.1960784 C25.6137214,19.1960784 25.8232848,18.9901961 25.8232848,18.7365196 Z" id="Shape" fill="#FFFFFF"></path>
    </g>
</svg>