<?xml version="1.0" encoding="UTF-8"?>
<svg width="32px" height="32px" viewBox="0 0 32 32" version="1.1" xmlns="http://www.w3.org/2000/svg" xmlns:xlink="http://www.w3.org/1999/xlink">
    <!-- Generator: Sketch 55.2 (78181) - https://sketchapp.com -->
    <title>highlight</title>
    <desc>Created with Sketch.</desc>
    <g id="highlight" stroke="none" stroke-width="1" fill="none" fill-rule="evenodd">
        <path d="M30.9884437,26.1593076 L29.8289488,25 L29.989982,25 C29.9933047,25 29.9966273,25.0000166 29.9999498,25.0000497 C30.5522071,25.0055547 30.9954374,25.4577105 30.9899323,26.0099678 L30.9884437,26.1593076 Z M26.1725037,31 L2,31 C1.44771525,31 1,30.5522847 1,30 L1,26 C1,25.4477152 1.44771525,25 2,25 L15.4833852,25 L16.6164574,28.1726022 C16.8493515,28.8191007 17.3925635,29.3001379 18.0601444,29.4511383 C18.731007,29.6006755 19.4266286,29.3978767 19.9103567,28.9181136 L22.0001535,26.8283286 L26.1725037,31 Z" id="Combined-Shape" fill-opacity="0.4" fill="#FFFFFF"></path>
        <path d="M27.8286258,23 L26.8284763,22.000012 L28.9147305,19.9137578 C29.399902,19.4285863 29.6031905,18.7275156 29.4506835,18.0572874 C29.3560864,17.6415581 29.1334531,17.2738528 28.8229208,17 L29.989982,17 C29.9933047,17 29.9966273,17.0000166 29.9999498,17.0000497 C30.5522071,17.0055547 30.9954374,17.4577105 30.9899323,18.0099678 L30.9500592,22.0099678 C30.9445929,22.5583366 30.4985049,23 29.9501089,23 L27.8286258,23 Z M14.7690995,23 L2,23 C1.44771525,23 1,22.5522847 1,22 L1,18 C1,17.4477152 1.44771525,17 2,17 L12.6262423,17 L14.7690995,23 Z" id="Combined-Shape" fill="#FFFFFF"></path>
        <path d="M23.6464167,15 L14.1725749,11.6164847 C13.4447873,11.3565606 12.632384,11.5394636 12.0864101,12.0854374 C11.5399951,12.6318524 11.3562665,13.4440675 11.6164574,14.1726022 L11.9119566,15 L2,15 C1.44771525,15 1,14.5522847 1,14 L1,10 C1,9.44771525 1.44771525,9 2,9 L29.989982,9 C29.9933047,9 29.9966273,9.00001656 29.9999498,9.00004968 C30.5522071,9.00555474 30.9954374,9.45771048 30.9899323,10.0099678 L30.9500592,14.0099678 C30.9445929,14.5583366 30.4985049,15 29.9501089,15 L23.6464167,15 Z" id="Combined-Shape" fill-opacity="0.4" fill="#FFFFFF"></path>
        <path d="M27.9880703,18.3900976 C27.9500703,18.2230976 27.8300703,18.0870976 27.6680703,18.0290976 L13.6680703,13.0290976 C13.4860703,12.9640976 13.2830703,13.0100976 13.1470703,13.1460976 C13.0100703,13.2830976 12.9640703,13.4860976 13.0290703,13.6680976 L18.0290703,27.6680976 C18.0870703,27.8290976 18.2230703,27.9500976 18.3910703,27.9880976 C18.5570703,28.0250976 18.7320703,27.9740976 18.8540703,27.8530976 L22.0000703,24.7070976 L28.1470703,30.8530976 C28.2440703,30.9510976 28.3720703,31.0000976 28.5000703,31.0000976 C28.6280703,31.0000976 28.7560703,30.9510976 28.8540703,30.8530976 L30.8540703,28.8530976 C31.0490703,28.6580976 31.0490703,28.3420976 30.8540703,28.1460976 L24.7070703,22.0000976 L27.8540703,18.8530976 C27.9750703,18.7320976 28.0260703,18.5570976 27.9880703,18.3900976 Z" id="Fill-884" fill="#FFFFFF"></path>
        <path d="M29.989982,1 L2,1 C1.44771525,1 1,1.44771525 1,2 L1,6 C1,6.55228475 1.44771525,7 2,7 L29.9501089,7 C30.4985049,7 30.9445929,6.55833658 30.9500592,6.0099678 L30.9899323,2.0099678 C30.9954374,1.45771048 30.5522071,1.00555474 29.9999498,1.00004968 C29.9966273,1.00001656 29.9933047,1 29.989982,1 Z" id="Combined-Shape" fill-opacity="0.4" fill="#FFFFFF"></path>
    </g>
</svg>