<?xml version="1.0" encoding="UTF-8"?>
<svg width="32px" height="32px" viewBox="0 0 32 32" version="1.1" xmlns="http://www.w3.org/2000/svg" xmlns:xlink="http://www.w3.org/1999/xlink">
    <!-- Generator: Sketch 55.2 (78181) - https://sketchapp.com -->
    <title>hotspots</title>
    <desc>Created with Sketch.</desc>
    <g id="hotspots" stroke="none" stroke-width="1" fill="none" fill-rule="evenodd">
        <g transform="translate(1.000000, 1.000000)" fill="#FFFFFF" id="Combined-Shape">
            <path d="M0.0145,27.0005 L0.0145,6.0005 L30.0145,6.0005 L30.0145,27.0005 C30.0145,28.6545 28.6685,30.0005 27.0145,30.0005 L3.0145,30.0005 C1.3605,30.0005 0.0145,28.6545 0.0145,27.0005 Z M14.0145,12.0005 L3.0145,12.0005 L3.0145,24.0005 L13.9870872,24.0005 L14.0145,12.0005 Z M27.0145,12.0005 L16.0145,12.0005 L16.0145,24.0005 L26.9870872,24.0005 L27.0145,12.0005 Z M27.0145,0.0005 L3.0145,0.0005 C1.3605,0.0005 0.0145,1.3465 0.0145,3.0005 L0.0145,5.0005 L30.0145,5.0005 L30.0145,3.0005 C30.0145,1.3465 28.6685,0.0005 27.0145,0.0005 Z"></path>
        </g>
    </g>
</svg>