<?xml version="1.0" encoding="UTF-8"?>
<svg width="32px" height="32px" viewBox="0 0 32 32" version="1.1" xmlns="http://www.w3.org/2000/svg" xmlns:xlink="http://www.w3.org/1999/xlink">
    <!-- Generator: Sketch 55.2 (78181) - https://sketchapp.com -->
    <title>import</title>
    <desc>Created with Sketch.</desc>
    <g id="import" stroke="none" stroke-width="1" fill="none" fill-rule="evenodd">
        <path d="M6.56648746,17.6196574 C5.7512154,16.8476647 4.42700299,16.8474804 3.61240812,17.6188326 C2.79587295,18.3900447 2.79585913,19.636915 3.61239565,20.4081284 L14.2150051,30.4240326 C14.3160679,30.5174549 14.4222502,30.5988676 14.5121017,30.6572518 C14.5962244,30.7041886 14.5975286,30.7049049 14.6050423,30.7086696 C14.7023414,30.7556505 14.7023414,30.7556505 14.7560924,30.7840294 C14.8182226,30.8175823 14.8511397,30.8332293 14.8927665,30.8492055 C14.9401122,30.8676186 14.9797132,30.8798173 15.1002102,30.9118991 C15.2029714,30.9441718 15.2421414,30.9546082 15.2827052,30.9614324 C15.5498234,31.0122818 15.8296025,31.0131615 16.0974666,30.9622172 C16.1388408,30.9554797 16.1702476,30.9474575 16.2588402,30.9192294 C16.3180726,30.9024168 16.3180726,30.9024168 16.3495193,30.8936968 C16.4354126,30.8690647 16.4354126,30.8690647 16.491148,30.8494768 C16.531439,30.8340172 16.5663452,30.8176205 16.6408125,30.7782537 C16.7515778,30.7225755 16.7676941,30.7143799 16.7919919,30.701336 C16.9646523,30.5974883 17.0706289,30.5155139 17.1708502,30.4228754 L27.7722088,20.4081402 C28.5887509,19.6369215 28.5887509,18.3900513 27.7722088,17.6188326 C27.3782326,17.2467246 26.8494362,17.0408771 26.2956053,17.0408771 C25.7417743,17.0408771 25.2129779,17.2467246 24.8190017,17.6188326 L17.780837,24.2663334 L17.780837,2.9726093 C17.780837,1.88368396 16.8452202,1 15.6923089,1 C14.5393975,1 13.6037807,1.88368396 13.6037807,2.97260915 L13.6037807,24.2663342 L6.56648746,17.6196574 Z" id="Path" fill="#FFFFFF"></path>
    </g>
</svg>