<?xml version="1.0" encoding="UTF-8"?>
<svg width="32px" height="32px" viewBox="0 0 32 32" version="1.1" xmlns="http://www.w3.org/2000/svg" xmlns:xlink="http://www.w3.org/1999/xlink">
    <!-- Generator: Sketch 55.2 (78181) - https://sketchapp.com -->
    <title>insert-at-start</title>
    <desc>Created with Sketch.</desc>
    <g id="insert-at-start" stroke="none" stroke-width="1" fill="none" fill-rule="evenodd">
        <path d="M12,18.0068455 C12,17.4507801 12.4463114,17 12.9975446,17 L20.0024554,17 C20.553384,17 21,17.4499488 21,18.0068455 L21,29.9931545 C21,30.5492199 20.5536886,31 20.0024554,31 L12.9975446,31 C12.446616,31 12,30.5500512 12,29.9931545 L12,18.0068455 Z" id="Combined-Shape" fill-opacity="0.4" fill="#FFFFFF"></path>
        <path d="M22,18.0068455 C22,17.4507801 22.4463114,17 22.9975446,17 L30.0024554,17 C30.553384,17 31,17.4499488 31,18.0068455 L31,29.9931545 C31,30.5492199 30.5536886,31 30.0024554,31 L22.9975446,31 C22.446616,31 22,30.5500512 22,29.9931545 L22,18.0068455 Z" id="Combined-Shape" fill-opacity="0.4" fill="#FFFFFF"></path>
        <path d="M8.95091844,17 L9.84520107,17 C10.3849342,17 10.8405986,17.4507801 10.8405986,18.0068455 L10.8405986,29.9931545 C10.8405986,30.5500512 10.394944,31 9.84520107,31 L1.8359962,31 C1.29626303,31 0.840598635,30.5492199 0.840598635,29.9931545 L0.840598635,18.0068455 C0.840598635,17.4499488 1.28625331,17 1.8359962,17 L2.83006571,17 L4.80216136,19.3458711 C5.07781674,19.6737559 5.48601215,19.8634696 5.91565583,19.8605666 C6.34373716,19.8576936 6.74813881,19.6662974 7.02122145,19.3357237 L8.95091844,17 Z M16.9964443,1.54887122 C16.9982222,1.56753854 17,1.58620586 17,1.60398427 C17,1.80843588 16.8586617,1.98977557 16.655099,2.03688833 C16.5750962,2.05555565 8.79882365,3.94984427 8.54192575,12.6381488 L10.3135434,12.6381488 C10.4859939,12.6381488 10.6424438,12.7377079 10.7162242,12.8932689 C10.7891156,13.0497188 10.7660037,13.2328363 10.6566665,13.3652854 L6.25028987,18.6988057 C6.16584247,18.8010315 6.04139366,18.8597002 5.90894458,18.8605991 C5.77738441,18.8614781 5.65204668,18.8028093 5.56759928,18.7023614 L1.08388656,13.3688411 C0.972771556,13.2355031 0.948770714,13.0506077 1.02166216,12.8950467 C1.0945536,12.7385968 1.25189245,12.6381488 1.42434294,12.6381488 L3.20840547,12.6381488 C3.54530617,1.56220502 16.4142017,1.162191 16.5457619,1.15940136 C16.7742143,1.15419072 16.9679989,1.32308553 16.9964443,1.54887122 Z" id="Combined-Shape" fill="#FFFFFF"></path>
    </g>
</svg>