<?xml version="1.0" encoding="UTF-8"?>
<svg width="32px" height="32px" viewBox="0 0 32 32" version="1.1" xmlns="http://www.w3.org/2000/svg" xmlns:xlink="http://www.w3.org/1999/xlink">
    <!-- Generator: Sketch 55.2 (78181) - https://sketchapp.com -->
    <title>insert-at-end</title>
    <desc>Created with Sketch.</desc>
    <g id="insert-at-end" stroke="none" stroke-width="1" fill="none" fill-rule="evenodd">
        <path d="M22.8896802,17 L21.9953976,17 C21.4556644,17 21,17.4507801 21,18.0068455 L21,29.9931545 C21,30.5500512 21.4456547,31 21.9953976,31 L30.0046024,31 C30.5443356,31 31,30.5492199 31,29.9931545 L31,18.0068455 C31,17.4499488 30.5543453,17 30.0046024,17 L29.0105329,17 L27.0384373,19.3458711 C26.7627819,19.6737559 26.3545865,19.8634696 25.9249428,19.8605666 C25.4968615,19.8576936 25.0924598,19.6662974 24.8193772,19.3357237 L22.8896802,17 Z" id="Combined-Shape" fill="#FFFFFF"></path>
        <path d="M1,18.0068455 C1,17.4507801 1.4463114,17 1.99754465,17 L9.00245535,17 C9.55338405,17 10,17.4499488 10,18.0068455 L10,29.9931545 C10,30.5492199 9.5536886,31 9.00245535,31 L1.99754465,31 C1.44661595,31 1,30.5500512 1,29.9931545 L1,18.0068455 Z" id="Combined-Shape" fill-opacity="0.4" fill="#FFFFFF"></path>
        <path d="M11,18.0068455 C11,17.4507801 11.4463114,17 11.9975446,17 L19.0024554,17 C19.553384,17 20,17.4499488 20,18.0068455 L20,29.9931545 C20,30.5492199 19.5536886,31 19.0024554,31 L11.9975446,31 C11.446616,31 11,30.5500512 11,29.9931545 L11,18.0068455 Z" id="Combined-Shape" fill-opacity="0.4" fill="#FFFFFF"></path>
        <path d="M14.8441543,1.54887122 C14.8423765,1.56753854 14.8405986,1.58620586 14.8405986,1.60398427 C14.8405986,1.80843588 14.9819369,1.98977557 15.1854996,2.03688833 C15.2655024,2.05555565 23.041775,3.94984427 23.2986729,12.6381488 L21.5270552,12.6381488 C21.3546047,12.6381488 21.1981548,12.7377079 21.1243744,12.8932689 C21.051483,13.0497188 21.0745949,13.2328363 21.1839321,13.3652854 L25.5903088,18.6988057 C25.6747562,18.8010315 25.799205,18.8597002 25.9316541,18.8605891 C26.0632142,18.8614781 26.188552,18.8028093 26.2729994,18.7023614 L30.7567121,13.3688411 C30.8678271,13.2355031 30.8918279,13.0506077 30.8189365,12.8950467 C30.746045,12.7385968 30.5887062,12.6381488 30.4162557,12.6381488 L28.6321932,12.6381488 C28.2952925,1.56220502 15.4263969,1.162191 15.2948368,1.15952424 C15.0663843,1.15419072 14.8725998,1.32308553 14.8441543,1.54887122 Z" id="Fill-2059" fill="#FFFFFF"></path>
    </g>
</svg>