<?xml version="1.0" encoding="UTF-8"?>
<svg width="32px" height="32px" viewBox="0 0 32 32" version="1.1" xmlns="http://www.w3.org/2000/svg" xmlns:xlink="http://www.w3.org/1999/xlink">
    <!-- Generator: Sketch 55.2 (78181) - https://sketchapp.com -->
    <title>insert</title>
    <desc>Created with Sketch.</desc>
    <g id="insert" stroke="none" stroke-width="1" fill="none" fill-rule="evenodd">
        <g id="Group" transform="translate(1.000000, 1.000000)" fill="#FFFFFF">
            <path d="M0,17.0068455 C-7.17677061e-16,16.4507801 0.437881351,16 1.00292933,16 L5.99707067,16 C6.55097324,16 7,16.4499488 7,17.0068455 L7,28.9931545 C7,29.5492199 6.56211865,30 5.99707067,30 L1.00292933,30 C0.449026756,30 1.61886912e-14,29.5500512 1.54699412e-14,28.9931545 L0,17.0068455 Z M23,17.0068455 C23,16.4507801 23.4378814,16 24.0029293,16 L28.9970707,16 C29.5509732,16 30,16.4499488 30,17.0068455 L30,28.9931545 C30,29.5492199 29.5621186,30 28.9970707,30 L24.0029293,30 C23.4490268,30 23,29.5500512 23,28.9931545 L23,17.0068455 Z" id="Combined-Shape" fill-opacity="0.4"></path>
            <path d="M16.5584327,14 L20.9931545,14 C21.5500512,14 22,13.5523026 22,13.0000398 L22,0.999960201 C22,0.454708934 21.5492199,0 20.9931545,0 L9.00684547,0 C8.44994876,0 8,0.447697432 8,0.999960201 L8,13.0000398 C8,13.5452911 8.45078007,14 9.00684547,14 L13.5,14 L13.5,19 L10.5093689,19 C9.95190985,19 9.78030723,19.3567547 10.1202286,19.7893819 L14.3797714,25.2106181 C14.7223142,25.6465817 15.2803072,25.6432453 15.6202286,25.2106181 L19.8797714,19.7893819 C20.2223142,19.3534183 20.0478521,19 19.5053762,19 L16.5584327,19 L16.5584327,14 Z" id="Combined-Shape"></path>
        </g>
    </g>
</svg>