<?xml version="1.0" encoding="UTF-8"?>
<svg width="32px" height="32px" viewBox="0 0 32 32" version="1.1" xmlns="http://www.w3.org/2000/svg" xmlns:xlink="http://www.w3.org/1999/xlink">
    <!-- Generator: Sketch 55.2 (78181) - https://sketchapp.com -->
    <title>key-default</title>
    <desc>Created with Sketch.</desc>
    <g id="key-default" stroke="none" stroke-width="1" fill="none" fill-rule="evenodd">
        <path d="M7.875,21.625 C9.25375,21.625 10.375,22.74625 10.375,24.125 C10.375,25.50375 9.25375,26.625 7.875,26.625 C6.49625,26.625 5.375,25.50375 5.375,24.125 C5.375,22.74625 6.49625,21.625 7.875,21.625 M10.375,31 C15.54375,31 19.75,26.795 19.75,21.625 C19.75,20.26875 19.46375,18.9625 18.9,17.73375 L22.50875,14.125 L24.75,14.125 L24.75,11.88375 L25.00875,11.625 L27.25,11.625 L27.25,9.38375 L27.50875,9.125 L29.75,9.125 L29.75,6.88375 L31,5.63375 L31,1 L26.36625,1 L14.26625,13.1 C13.0375,12.53625 11.73125,12.25 10.375,12.25 C5.20625,12.25 1,16.45625 1,21.625 C1,26.795 5.20625,31 10.375,31" id="Combined-Shape" fill="#FFFFFF"></path>
    </g>
</svg>