<?xml version="1.0" encoding="UTF-8"?>
<svg width="32px" height="32px" viewBox="0 0 32 32" version="1.1" xmlns="http://www.w3.org/2000/svg" xmlns:xlink="http://www.w3.org/1999/xlink">
    <!-- Generator: Sketch 55.2 (78181) - https://sketchapp.com -->
    <title>key-danger</title>
    <desc>Created with Sketch.</desc>
    <g id="key-danger" stroke="none" stroke-width="1" fill="none" fill-rule="evenodd">
        <path d="M8.25244993,12.4924001 L19.5076735,23.7476237 C18.5432936,27.8983819 14.814118,31 10.375,31 C5.20625,31 1,26.795 1,21.625 C1,17.185995 4.10238217,13.4568962 8.25244993,12.4924001 Z M15.8057906,11.5604594 L26.36625,1 L31,1 L31,5.63375 L29.75,6.88375 L29.75,9.125 L27.50875,9.125 L27.25,9.38375 L27.25,11.625 L25.00875,11.625 L24.75,11.88375 L24.75,14.125 L22.50875,14.125 L20.4395406,16.1942094 L15.8057906,11.5604594 Z M7.875,21.625 C6.49625,21.625 5.375,22.74625 5.375,24.125 C5.375,25.50375 6.49625,26.625 7.875,26.625 C9.25375,26.625 10.375,25.50375 10.375,24.125 C10.375,22.74625 9.25375,21.625 7.875,21.625 Z" id="Combined-Shape" fill-opacity="0.4" fill="#FFFFFF"></path>
        <path d="M1.94383059,4.06246041 L27.1472714,29.2659012 C27.7331315,29.8517613 28.6894865,29.8547691 29.2734731,29.2707825 C29.8610249,28.6832307 29.8580615,27.7340506 29.2685918,27.1445809 L4.06515093,1.94114006 C3.47929083,1.35527997 2.5229358,1.35227224 1.93894928,1.93625876 C1.35139746,2.52381058 1.35436087,3.47299069 1.94383059,4.06246041 Z" id="Combined-Shape" fill="#FFFFFF"></path>
    </g>
</svg>