<?xml version="1.0" encoding="UTF-8"?>
<svg width="32px" height="32px" viewBox="0 0 32 32" version="1.1" xmlns="http://www.w3.org/2000/svg" xmlns:xlink="http://www.w3.org/1999/xlink">
    <!-- Generator: Sketch 55.2 (78181) - https://sketchapp.com -->
    <title>keyframe-add</title>
    <desc>Created with Sketch.</desc>
    <g id="keyframe-add" stroke="none" stroke-width="1" fill="none" fill-rule="evenodd">
        <g transform="translate(1.000000, 1.000000)" fill="#FFFFFF">
            <g id="keyframe-previous" fill-opacity="0.4">
                <path d="M25.0163909,8.28365982 C23.3518294,7.46192939 21.4789896,7 19.5,7 C12.6047867,7 7,12.605382 7,19.5 C7,21.4788089 7.46168565,23.351419 8.28305761,25.0157886 L1.22522586,17.9579569 C-0.408408621,16.3243224 -0.408408621,13.6756776 1.22522586,12.0420431 L12.0420431,1.22522586 C13.6756776,-0.408408621 16.3243224,-0.408408621 17.9579569,1.22522586 L25.0163909,8.28365982 Z" id="Combined-Shape"></path>
            </g>
            <path d="M19.5,9 C25.2895385,9 30,13.7104615 30,19.5 C30,25.2895385 25.2895385,30 19.5,30 C13.7088462,30 9,25.2895385 9,19.5 C9,13.7104615 13.7088462,9 19.5,9 Z M20.8076923,24.5916923 L20.8076923,20.8076923 L24.5916923,20.8076923 C25.3136809,20.8076923 25.8993846,20.2219886 25.8993846,19.5 C25.8993846,18.7780114 25.3136809,18.1923077 24.5916923,18.1923077 L20.8076923,18.1923077 L20.8076923,14.4083077 C20.8076923,13.6863191 20.2219886,13.1006154 19.5,13.1006154 C18.7780114,13.1006154 18.1923077,13.6863191 18.1923077,14.4083077 L18.1923077,18.1923077 L14.4066923,18.1923077 C13.6847038,18.1923077 13.099,18.7780115 13.099,19.5 C13.099,20.2219885 13.6847038,20.8076923 14.4066923,20.8076923 L18.1923077,20.8076923 L18.1923077,24.5916923 C18.1923077,25.3148932 18.7776075,25.8993846 19.5,25.8993846 C20.2223925,25.8993846 20.8076923,25.3148932 20.8076923,24.5916923 Z" id="Combined-Shape"></path>
        </g>
    </g>
</svg>