<?xml version="1.0" encoding="UTF-8"?>
<svg width="32px" height="32px" viewBox="0 0 32 32" version="1.1" xmlns="http://www.w3.org/2000/svg" xmlns:xlink="http://www.w3.org/1999/xlink">
    <!-- Generator: Sketch 55.2 (78181) - https://sketchapp.com -->
    <title>lightning</title>
    <desc>Created with Sketch.</desc>
    <g id="lightning" stroke="none" stroke-width="1" fill="none" fill-rule="evenodd">
        <path d="M23.4997189,11 L17.9207189,11 L23.9187189,1.773 C24.0187189,1.619 24.0267189,1.423 23.9397189,1.262 C23.8517189,1.101 23.6827189,1 23.4997189,1 L12.9997189,1 C12.7677189,1 12.5657189,1.161 12.5127189,1.387 L9.01271893,16.387 C8.97871893,16.535 9.01371893,16.691 9.10771893,16.811 C9.20271893,16.93 9.34671893,17 9.49971893,17 L13.8367189,17 L10.0187189,30.363 C9.95171893,30.599 10.0657189,30.849 10.2867189,30.953 C10.3557189,30.985 10.4277189,31 10.4997189,31 C10.6597189,31 10.8167189,30.923 10.9127189,30.783 L23.9127189,11.783 C24.0167189,11.629 24.0287189,11.431 23.9417189,11.267 C23.8557189,11.103 23.6857189,11 23.4997189,11" id="Fill-1710" fill="#FFFFFF"></path>
    </g>
</svg>