<?xml version="1.0" encoding="UTF-8"?>
<svg width="32px" height="32px" viewBox="0 0 32 32" version="1.1" xmlns="http://www.w3.org/2000/svg" xmlns:xlink="http://www.w3.org/1999/xlink">
    <!-- Generator: Sketch 55.2 (78181) - https://sketchapp.com -->
    <title>monitor</title>
    <desc>Created with Sketch.</desc>
    <g id="monitor" stroke="none" stroke-width="1" fill="none" fill-rule="evenodd">
        <path d="M16,31 C7.72913043,31 1,24.2708696 1,16 C1,7.72913043 7.72913043,1 16,1 C24.2708696,1 31,7.72913043 31,16 C31,24.2708696 24.2708696,31 16,31 Z" id="Combined-Shape" fill-opacity="0.4" fill="#FFFFFF"></path>
        <path d="M7.40909091,9.18181818 L24.5909091,9.18181818 C25.1171818,9.18181818 25.5454545,9.60078063 25.5454545,10.1156126 L25.5454545,20.076087 C25.5454545,20.5915415 25.1171818,21.0098814 24.5909091,21.0098814 L17.9090909,21.0098814 L17.9090909,22.8774704 L20.7199852,22.8774704 C21.056636,22.8774704 21.3295455,23.1503798 21.3295455,23.4870306 C21.3295455,23.8236815 21.056636,24.0965909 20.7199852,24.0965909 L11.2800148,24.0965909 C10.943364,24.0965909 10.6704545,23.8236815 10.6704545,23.4870306 C10.6704545,23.1503798 10.943364,22.8774704 11.2800148,22.8774704 L14.0909091,22.8774704 L14.0909091,21.0098814 L7.40909091,21.0098814 C6.88218182,21.0098814 6.45454545,20.5915415 6.45454545,20.076087 L6.45454545,10.1156126 C6.45454545,9.60078063 6.88218182,9.18181818 7.40909091,9.18181818 Z M23.7556818,19.3238636 L23.7556818,10.9715909 L8.24431818,10.9715909 L8.24431818,19.3238636 L23.7556818,19.3238636 Z" id="Combined-Shape" fill="#FFFFFF"></path>
    </g>
</svg>