<?xml version="1.0" encoding="UTF-8"?>
<svg width="32px" height="32px" viewBox="0 0 32 32" version="1.1" xmlns="http://www.w3.org/2000/svg" xmlns:xlink="http://www.w3.org/1999/xlink">
    <!-- Generator: Sketch 55.2 (78181) - https://sketchapp.com -->
    <title>options</title>
    <desc>Created with Sketch.</desc>
    <g id="options" stroke="none" stroke-width="1" fill="none" fill-rule="evenodd">
        <g transform="translate(4.000000, 4.000000)" fill="#FFFFFF" id="Combined-Shape">
            <path d="M24,22 C24,23.1045695 23.1045695,24 22,24 L2,24 C0.8954305,24 0,23.1045695 0,22 C0,20.8954305 0.8954305,20 2,20 L22,20 C23.1045695,20 24,20.8954305 24,22 Z M24,12 C24,13.1045695 23.1045695,14 22,14 L2,14 C0.8954305,14 0,13.1045695 0,12 C0,10.8954305 0.8954305,10 2,10 L22,10 C23.1045695,10 24,10.8954305 24,12 Z M24,2 C24,3.1045695 23.1045695,4 22,4 L2,4 C0.8954305,4 0,3.1045695 0,2 C0,0.8954305 0.8954305,0 2,0 L22,0 C23.1045695,0 24,0.8954305 24,2 Z"></path>
        </g>
    </g>
</svg>