<?xml version="1.0" encoding="UTF-8"?>
<svg width="32px" height="32px" viewBox="0 0 32 32" version="1.1" xmlns="http://www.w3.org/2000/svg" xmlns:xlink="http://www.w3.org/1999/xlink">
    <!-- Generator: Sketch 55.2 (78181) - https://sketchapp.com -->
    <title>page-first</title>
    <desc>Created with Sketch.</desc>
    <g id="page-first" stroke="none" stroke-width="1" fill="none" fill-rule="evenodd">
        <path d="M30.3248271,30.1942818 C29.3903171,31.2189502 27.8244008,31.2735609 26.824392,30.3163727 L13.7948801,17.8734686 C13.2883173,17.390905 12.9999176,16.7114934 12.9999176,15.9999921 C12.9999176,15.2882749 13.2884707,14.6089334 13.7950876,14.1263175 L26.8245859,1.68342606 C27.8249249,0.725921169 29.390806,0.78157155 30.3252166,1.80612833 C31.2709141,2.83791822 31.2156724,4.46808358 30.202963,5.43026174 L19.1355499,15.9999918 L30.2041075,26.5708111 C31.2164363,27.533362 31.2700037,29.1630575 30.3248271,30.1942818 Z M18.3249095,30.1942818 C17.3903995,31.2189502 15.8244832,31.2735609 14.8244745,30.3163727 L1.79496255,17.8734686 C1.28839973,17.390905 1,16.7114934 1,15.9999921 C1,15.2882749 1.28855317,14.6089334 1.79517001,14.1263175 L14.8246683,1.68342606 C15.8250074,0.725921169 17.3908885,0.78157155 18.325299,1.80612833 C19.2709965,2.83791822 19.2157548,4.46808358 18.2030454,5.43026174 L7.13563231,15.9999918 L18.20419,26.5708111 C19.2165188,27.533362 19.2700861,29.1630575 18.3249095,30.1942818 Z" id="Combined-Shape" fill="#FFFFFF"></path>
    </g>
</svg>