<?xml version="1.0" encoding="UTF-8"?>
<svg width="32px" height="32px" viewBox="0 0 32 32" version="1.1" xmlns="http://www.w3.org/2000/svg" xmlns:xlink="http://www.w3.org/1999/xlink">
    <!-- Generator: Sketch 55.2 (78181) - https://sketchapp.com -->
    <title>panel-record</title>
    <desc>Created with Sketch.</desc>
    <g id="panel-record" stroke="none" stroke-width="1" fill="none" fill-rule="evenodd">
        <path d="M4.73504356,19 C4.74510032,19.0240763 4.75547285,19.0480377 4.7661598,19.0718778 C5.45342827,20.6050152 7.25342282,21.2907274 8.78656016,20.6034589 L9,20.507779 L9,23 C9,23.5522847 8.55228475,24 8,24 L2,24 C1.44771525,24 1,23.5522847 1,23 L1,20 C1,19.4477153 1.44771525,19 2,19 L4.73504356,19 Z" id="Combined-Shape" fill="#FFFFFF"></path>
        <rect id="Rectangle-11" fill="#FFFFFF" x="12" y="19" width="8" height="5" rx="1"></rect>
        <rect id="Rectangle-11" fill="#FFFFFF" x="23" y="19" width="8" height="5" rx="1"></rect>
        <path d="M2,26 L30,26 C30.5522847,26 31,26.4477153 31,27 L31,30 C31,30.5522847 30.5522847,31 30,31 L2,31 C1.44771525,31 1,30.5522847 1,30 L1,27 C1,26.4477153 1.44771525,26 2,26 Z" id="Rectangle-11" fill="#FFFFFF"></path>
        <path d="M25.2219845,11.5920361 L8.1729763,19.2346949 C7.39578644,19.5830904 6.48331925,19.2354838 6.13492379,18.458294 C6.04598043,18.2598819 6,18.0449039 6,17.8274682 L6,2.54215052 C6,1.69044431 6.69044431,1 7.54215052,1 C7.75958622,1 7.9745642,1.04598043 8.1729763,1.13492379 L25.2219845,8.77758263 C25.9991743,9.12597809 26.3467809,10.0384453 25.9983854,10.8156351 C25.8436013,11.1609229 25.5672722,11.4372519 25.2219845,11.5920361 Z M9.08430105,4.92347008 L9.08430105,15.4461487 L20.8211348,10.1848094 L9.08430105,4.92347008 Z" id="Combined-Shape" fill="#FFFFFF"></path>
    </g>
</svg>