<?xml version="1.0" encoding="UTF-8"?>
<svg width="32px" height="32px" viewBox="0 0 32 32" version="1.1" xmlns="http://www.w3.org/2000/svg" xmlns:xlink="http://www.w3.org/1999/xlink">
    <!-- Generator: Sketch 57.1 (83088) - https://sketch.com -->
    <title>paste</title>
    <desc>Created with Sketch.</desc>
    <g id="paste" stroke="none" stroke-width="1" fill="none" fill-rule="evenodd">
        <path d="M9.13793103,5.13793103 L9.13793103,8.24137931 L8.10344828,8.24137931 L8.10344828,27.8965517 L24.6551724,27.8965517 L24.6551724,8.24137931 L23.6206897,8.24137931 L23.6206897,5.13793103 L27.2413793,5.13793103 C27.5268966,5.13793103 27.7586207,5.36965517 27.7586207,5.65517241 L27.7586207,5.65517241 L27.7586207,30.4827586 C27.7586207,30.7682759 27.5268966,31 27.2413793,31 L27.2413793,31 L5.51724138,31 C5.23172414,31 5,30.7682759 5,30.4827586 L5,30.4827586 L5,5.65517241 C5,5.36965517 5.23172414,5.13793103 5.51724138,5.13793103 L5.51724138,5.13793103 L9.13793103,5.13793103 Z M16.3626354,1 C16.565394,1 16.7578078,1.01241379 16.9429802,1.03413793 C17.0029802,1.04137931 17.0578078,1.0537931 17.1157388,1.06310345 C17.2378078,1.08275862 17.3598768,1.10344828 17.4747043,1.13241379 C17.5367733,1.14793103 17.5936699,1.16862069 17.6526354,1.18724138 C17.7560836,1.21931034 17.857463,1.25241379 17.9526354,1.29275862 C18.0084974,1.31655172 18.0612561,1.34344828 18.1150492,1.37034483 C18.2040147,1.41482759 18.2919457,1.46137931 18.3726354,1.51310345 C18.4212561,1.54413793 18.4667733,1.5762069 18.5122905,1.61034483 C18.5888423,1.6662069 18.6622905,1.72724138 18.7295319,1.79034483 C18.7698768,1.82758621 18.8091871,1.86586207 18.845394,1.9062069 C18.9084974,1.97448276 18.965394,2.04689655 19.0191871,2.12137931 C19.0512561,2.16586207 19.083325,2.20931034 19.1122905,2.25689655 C19.1598768,2.33551724 19.2002216,2.41931034 19.2384974,2.50413793 C19.2612561,2.55482759 19.2860836,2.60448276 19.3057388,2.65724138 C19.3543595,2.78862069 19.3947043,2.92413793 19.4216009,3.06896552 L19.4216009,3.06896552 L22.0689655,3.06896552 C22.3544828,3.06896552 22.5862069,3.30068966 22.5862069,3.5862069 L22.5862069,3.5862069 L22.5862069,9.79310345 C22.5862069,10.0786207 22.3544828,10.3103448 22.0689655,10.3103448 L22.0689655,10.3103448 L10.6896552,10.3103448 C10.4041379,10.3103448 10.1724138,10.0786207 10.1724138,9.79310345 L10.1724138,9.79310345 L10.1724138,3.5862069 C10.1724138,3.30068966 10.4041379,3.06896552 10.6896552,3.06896552 L10.6896552,3.06896552 L13.3047043,3.06896552 C13.3305664,2.92413793 13.3709112,2.78862069 13.4195319,2.65724138 C13.4391871,2.60448276 13.4640147,2.55482759 13.4867733,2.50413793 C13.5250492,2.41931034 13.565394,2.33551724 13.6140147,2.25689655 C13.6419457,2.20931034 13.6740147,2.16586207 13.7060836,2.12137931 C13.7598768,2.04689655 13.8167733,1.97448276 13.8798768,1.9062069 C13.9160836,1.86586207 13.955394,1.82758621 13.9957388,1.79034483 C14.0629802,1.72724138 14.1364285,1.6662069 14.2129802,1.61034483 C14.2584974,1.5762069 14.3040147,1.54413793 14.3526354,1.51310345 C14.4343595,1.46137931 14.5212561,1.41482759 14.6102216,1.37034483 C14.6640147,1.34344828 14.7167733,1.31655172 14.7726354,1.29275862 C14.8678078,1.25241379 14.9691871,1.21931034 15.0726354,1.18724138 C15.1316009,1.16862069 15.1884974,1.14793103 15.2505664,1.13241379 C15.365394,1.10344828 15.487463,1.08275862 15.6095319,1.06310345 C15.667463,1.0537931 15.7222905,1.04137931 15.7822905,1.03413793 C15.967463,1.01241379 16.1609112,1 16.3626354,1 Z" id="Combined-Shape" fill="#FFFFFF"></path>
        <path d="M20.8544828,21.6551724 C21.4256645,21.6551724 21.8889655,22.1184734 21.8889655,22.6896552 C21.8889655,23.2608369 21.4256645,23.7241379 20.8544828,23.7241379 L11.7241379,23.7241379 C11.1529562,23.7241379 10.6896552,23.2608369 10.6896552,22.6896552 C10.6896552,22.1184734 11.1529562,21.6551724 11.7241379,21.6551724 L20.8544828,21.6551724 Z M20.8544828,17.5172414 C21.4256645,17.5172414 21.8889655,17.9805424 21.8889655,18.5517241 C21.8889655,19.1229059 21.4256645,19.5862069 20.8544828,19.5862069 L11.7241379,19.5862069 C11.1529562,19.5862069 10.6896552,19.1229059 10.6896552,18.5517241 C10.6896552,17.9805424 11.1529562,17.5172414 11.7241379,17.5172414 L20.8544828,17.5172414 Z M20.8544828,13.3793103 C21.4256645,13.3793103 21.8889655,13.8426113 21.8889655,14.4137931 C21.8889655,14.9849749 21.4256645,15.4482759 20.8544828,15.4482759 L11.7241379,15.4482759 C11.1529562,15.4482759 10.6896552,14.9849749 10.6896552,14.4137931 C10.6896552,13.8426113 11.1529562,13.3793103 11.7241379,13.3793103 L20.8544828,13.3793103 Z" id="Combined-Shape" fill="#FFFFFF"></path>
    </g>
</svg>