<?xml version="1.0" encoding="UTF-8"?>
<svg width="32px" height="32px" viewBox="0 0 32 32" version="1.1" xmlns="http://www.w3.org/2000/svg" xmlns:xlink="http://www.w3.org/1999/xlink">
    <!-- Generator: Sketch 55.2 (78181) - https://sketchapp.com -->
    <title>paste-top</title>
    <desc>Created with Sketch.</desc>
    <g id="paste-top" stroke="none" stroke-width="1" fill="none" fill-rule="evenodd">
        <path d="M23.7586207,8.94934849 C22.7696658,8.67007446 21.7292225,8.51466019 20.6551724,8.50098722 L20.6551724,8.24137931 L19.6206897,8.24137931 L19.6206897,5.13793103 L23.2413793,5.13793103 C23.5268966,5.13793103 23.7586207,5.36965517 23.7586207,5.65517241 L23.7586207,8.94934849 Z M14.6930298,31 L1.51724138,31 C1.23172414,31 1,30.7682759 1,30.4827586 L1,5.65517241 C1,5.36965517 1.23172414,5.13793103 1.51724138,5.13793103 L5.13793103,5.13793103 L5.13793103,8.24137931 L4.10344828,8.24137931 L4.10344828,27.8965517 L11.0554817,27.8965517 C12.0455016,29.1581139 13.2824638,30.2170529 14.6930298,31 Z M14.1660175,10.3103448 L6.68965517,10.3103448 C6.40413793,10.3103448 6.17241379,10.0786207 6.17241379,9.79310345 L6.17241379,3.5862069 C6.17241379,3.30068966 6.40413793,3.06896552 6.68965517,3.06896552 L8.90332503,3.06896552 L9.30470434,3.06896552 C9.33056641,2.92413793 9.37091123,2.78862069 9.41953192,2.65724138 C9.4391871,2.60448276 9.46401468,2.55482759 9.4867733,2.50413793 C9.52504916,2.41931034 9.56539399,2.33551724 9.61401468,2.25689655 C9.64194572,2.20931034 9.67401468,2.16586207 9.70608365,2.12137931 C9.75987675,2.04689655 9.8167733,1.97448276 9.87987675,1.9062069 C9.91608365,1.86586207 9.95539399,1.82758621 9.99573882,1.79034483 C10.0629802,1.72724138 10.1364285,1.6662069 10.2129802,1.61034483 C10.2584974,1.5762069 10.3040147,1.54413793 10.3526354,1.51310345 C10.4343595,1.46137931 10.5212561,1.41482759 10.6102216,1.37034483 C10.6640147,1.34344828 10.7167733,1.31655172 10.7726354,1.29275862 C10.8678078,1.25241379 10.9691871,1.21931034 11.0726354,1.18724138 C11.1316009,1.16862069 11.1884974,1.14793103 11.2505664,1.13241379 C11.365394,1.10344828 11.487463,1.08275862 11.6095319,1.06310345 C11.667463,1.0537931 11.7222905,1.04137931 11.7822905,1.03413793 C11.967463,1.01241379 12.1609112,1 12.3626354,1 C12.565394,1 12.7578078,1.01241379 12.9429802,1.03413793 C13.0029802,1.04137931 13.0578078,1.0537931 13.1157388,1.06310345 C13.2378078,1.08275862 13.3598768,1.10344828 13.4747043,1.13241379 C13.5367733,1.14793103 13.5936699,1.16862069 13.6526354,1.18724138 C13.7560836,1.21931034 13.857463,1.25241379 13.9526354,1.29275862 C14.0084974,1.31655172 14.0612561,1.34344828 14.1150492,1.37034483 C14.2040147,1.41482759 14.2919457,1.46137931 14.3726354,1.51310345 C14.4212561,1.54413793 14.4667733,1.5762069 14.5122905,1.61034483 C14.5888423,1.6662069 14.6622905,1.72724138 14.7295319,1.79034483 C14.7698768,1.82758621 14.8091871,1.86586207 14.845394,1.9062069 C14.9084974,1.97448276 14.965394,2.04689655 15.0191871,2.12137931 C15.0512561,2.16586207 15.083325,2.20931034 15.1122905,2.25689655 C15.1598768,2.33551724 15.2002216,2.41931034 15.2384974,2.50413793 C15.2612561,2.55482759 15.2860836,2.60448276 15.3057388,2.65724138 C15.3543595,2.78862069 15.3947043,2.92413793 15.4216009,3.06896552 L15.8219457,3.06896552 L18.0689655,3.06896552 C18.3544828,3.06896552 18.5862069,3.30068966 18.5862069,3.5862069 L18.5862069,8.65233284 C16.98547,8.90975788 15.489798,9.48471329 14.1660175,10.3103448 Z M9.61512486,15.4482759 L7.72413793,15.4482759 C7.15295616,15.4482759 6.68965517,14.9849749 6.68965517,14.4137931 C6.68965517,13.8426113 7.15295616,13.3793103 7.72413793,13.3793103 L10.8453272,13.3793103 C10.3694807,14.0229093 9.95638008,14.7155989 9.61512486,15.4482759 Z M8.53440923,19.5862069 L7.72413793,19.5862069 C7.15295616,19.5862069 6.68965517,19.1229059 6.68965517,18.5517241 C6.68965517,17.9805424 7.15295616,17.5172414 7.72413793,17.5172414 L8.87490116,17.5172414 C8.7032495,18.1863005 8.58795972,18.8777489 8.53440923,19.5862069 Z M8.93953827,23.7241379 L7.72413793,23.7241379 C7.15295616,23.7241379 6.68965517,23.2608369 6.68965517,22.6896552 C6.68965517,22.1184734 7.15295616,21.6551724 7.72413793,21.6551724 L8.5550994,21.6551724 C8.62310626,22.364523 8.7530822,23.0560086 8.93953827,23.7241379 Z" id="Combined-Shape" fill-opacity="0.4" fill="#FFFFFF"></path>
        <path d="M20.5,10 C26.2895385,10 31,14.7104615 31,20.5 C31,26.2895385 26.2895385,31 20.5,31 C14.7088462,31 10,26.2895385 10,20.5 C10,14.7104615 14.7088462,10 20.5,10 Z M15.0026634,25.713968 C15.0239709,25.8797881 15.1691279,26.0038268 15.3402533,26 C15.4388002,25.9979513 25.0784221,25.7041755 25.3307821,17.569852 L26.6671585,17.569852 C26.7963349,17.569852 26.9141917,17.4960816 26.968792,17.3811827 C27.0233924,17.2669366 27.0054142,17.1311469 26.922182,17.0332217 L23.5635958,13.1162119 C23.5003393,13.0424416 23.4064534,12.9993545 23.3079064,13 C23.2086937,13.0006601 23.1154736,13.0437473 23.0522171,13.1188233 L19.7515605,17.035833 C19.66966,17.1331054 19.6523477,17.2675894 19.706948,17.3824884 C19.7622142,17.4967345 19.8794052,17.569852 20.0085816,17.569852 L21.335636,17.569852 C21.1432031,23.9506608 15.31828,25.3418521 15.2583528,25.3555617 C15.1058714,25.3901619 15,25.5233402 15,25.6734923 C15,25.686549 15.0013317,25.7002585 15.0026634,25.713968 Z" id="Combined-Shape" fill="#FFFFFF"></path>
    </g>
</svg>