<?xml version="1.0" encoding="UTF-8"?>
<svg width="32px" height="32px" viewBox="0 0 32 32" version="1.1" xmlns="http://www.w3.org/2000/svg" xmlns:xlink="http://www.w3.org/1999/xlink">
    <!-- Generator: Sketch 55.2 (78181) - https://sketchapp.com -->
    <title>paste-successful</title>
    <desc>Created with Sketch.</desc>
    <g id="paste-successful" stroke="none" stroke-width="1" fill="none" fill-rule="evenodd">
        <g id="Group" transform="translate(1.000000, 1.000000)" fill="#FFFFFF">
            <path d="M22.7586207,7.94934849 C21.7696658,7.67007446 20.7292225,7.51466019 19.6551724,7.50098722 L19.6551724,7.24137931 L18.6206897,7.24137931 L18.6206897,4.13793103 L22.2413793,4.13793103 C22.5268966,4.13793103 22.7586207,4.36965517 22.7586207,4.65517241 L22.7586207,7.94934849 Z M13.6930298,30 L0.517241379,30 C0.231724138,30 3.37507799e-14,29.7682759 3.37507799e-14,29.4827586 L3.37507799e-14,4.65517241 C3.37507799e-14,4.36965517 0.231724138,4.13793103 0.517241379,4.13793103 L4.13793103,4.13793103 L4.13793103,7.24137931 L3.10344828,7.24137931 L3.10344828,26.8965517 L10.0554817,26.8965517 C11.0455016,28.1581139 12.2824638,29.2170529 13.6930298,30 Z M13.1660175,9.31034483 L5.68965517,9.31034483 C5.40413793,9.31034483 5.17241379,9.07862069 5.17241379,8.79310345 L5.17241379,2.5862069 C5.17241379,2.30068966 5.40413793,2.06896552 5.68965517,2.06896552 L7.90332503,2.06896552 L8.30470434,2.06896552 C8.33056641,1.92413793 8.37091123,1.78862069 8.41953192,1.65724138 C8.4391871,1.60448276 8.46401468,1.55482759 8.4867733,1.50413793 C8.52504916,1.41931034 8.56539399,1.33551724 8.61401468,1.25689655 C8.64194572,1.20931034 8.67401468,1.16586207 8.70608365,1.12137931 C8.75987675,1.04689655 8.8167733,0.974482759 8.87987675,0.906206897 C8.91608365,0.865862069 8.95539399,0.827586207 8.99573882,0.790344828 C9.0629802,0.727241379 9.13642848,0.666206897 9.2129802,0.610344828 C9.25849744,0.576206897 9.30401468,0.544137931 9.35263537,0.513103448 C9.43435951,0.46137931 9.52125606,0.414827586 9.61022158,0.370344828 C9.66401468,0.343448276 9.7167733,0.316551724 9.77263537,0.292758621 C9.86780779,0.252413793 9.9691871,0.219310345 10.0726354,0.187241379 C10.1316009,0.16862069 10.1884974,0.147931034 10.2505664,0.132413793 C10.365394,0.103448276 10.487463,0.0827586207 10.6095319,0.0631034483 C10.667463,0.0537931034 10.7222905,0.0413793103 10.7822905,0.034137931 C10.967463,0.0124137931 11.1609112,-3.01980663e-14 11.3626354,-3.01980663e-14 C11.565394,-3.01980663e-14 11.7578078,0.0124137931 11.9429802,0.034137931 C12.0029802,0.0413793103 12.0578078,0.0537931034 12.1157388,0.0631034483 C12.2378078,0.0827586207 12.3598768,0.103448276 12.4747043,0.132413793 C12.5367733,0.147931034 12.5936699,0.16862069 12.6526354,0.187241379 C12.7560836,0.219310345 12.857463,0.252413793 12.9526354,0.292758621 C13.0084974,0.316551724 13.0612561,0.343448276 13.1150492,0.370344828 C13.2040147,0.414827586 13.2919457,0.46137931 13.3726354,0.513103448 C13.4212561,0.544137931 13.4667733,0.576206897 13.5122905,0.610344828 C13.5888423,0.666206897 13.6622905,0.727241379 13.7295319,0.790344828 C13.7698768,0.827586207 13.8091871,0.865862069 13.845394,0.906206897 C13.9084974,0.974482759 13.965394,1.04689655 14.0191871,1.12137931 C14.0512561,1.16586207 14.083325,1.20931034 14.1122905,1.25689655 C14.1598768,1.33551724 14.2002216,1.41931034 14.2384974,1.50413793 C14.2612561,1.55482759 14.2860836,1.60448276 14.3057388,1.65724138 C14.3543595,1.78862069 14.3947043,1.92413793 14.4216009,2.06896552 L14.8219457,2.06896552 L17.0689655,2.06896552 C17.3544828,2.06896552 17.5862069,2.30068966 17.5862069,2.5862069 L17.5862069,7.65233284 C15.98547,7.90975788 14.489798,8.48471329 13.1660175,9.31034483 Z M8.61512486,14.4482759 L6.72413793,14.4482759 C6.15295616,14.4482759 5.68965517,13.9849749 5.68965517,13.4137931 C5.68965517,12.8426113 6.15295616,12.3793103 6.72413793,12.3793103 L9.84532716,12.3793103 C9.36948071,13.0229093 8.95638008,13.7155989 8.61512486,14.4482759 Z M7.53440923,18.5862069 L6.72413793,18.5862069 C6.15295616,18.5862069 5.68965517,18.1229059 5.68965517,17.5517241 C5.68965517,16.9805424 6.15295616,16.5172414 6.72413793,16.5172414 L7.87490116,16.5172414 C7.7032495,17.1863005 7.58795972,17.8777489 7.53440923,18.5862069 Z M7.93953827,22.7241379 L6.72413793,22.7241379 C6.15295616,22.7241379 5.68965517,22.2608369 5.68965517,21.6896552 C5.68965517,21.1184734 6.15295616,20.6551724 6.72413793,20.6551724 L7.5550994,20.6551724 C7.62310626,21.364523 7.7530822,22.0560086 7.93953827,22.7241379 Z" id="Combined-Shape" fill-opacity="0.4"></path>
            <path d="M19.5,9 C25.2895385,9 30,13.7104615 30,19.5 C30,25.2895385 25.2895385,30 19.5,30 C13.7088462,30 9,25.2895385 9,19.5 C9,13.7104615 13.7088462,9 19.5,9 Z M24.7180689,16.3408967 C25.1254133,15.782574 25.0870933,15.01374 24.631596,14.49741 L24.6053816,14.4336337 L24.3896479,14.2779327 L24.2352751,14.1811882 C24.1679119,14.1453395 24.1679119,14.1453395 24.1241122,14.1253613 C23.4939584,13.8462427 22.7528704,14.0449364 22.3453208,14.6048009 L17.5063119,21.269914 L16.5043122,20.2691172 C15.9302998,19.697258 15.0051307,19.697258 14.4325842,20.2691172 C13.8554265,20.845582 13.8558271,21.7830326 14.4336566,22.3586924 L16.6484013,24.5710673 C16.9291743,24.8500295 17.302095,25.000467 17.7079456,25 C17.7270929,24.9995659 17.7270929,24.9995659 17.7331413,24.9993524 L17.7374751,24.9991878 C17.7524066,24.9985377 17.7524066,24.9985377 17.7761272,24.9973264 C18.2272729,24.960767 18.6189669,24.7428794 18.8723984,24.3926219 L24.7180689,16.3408967 Z" id="Combined-Shape"></path>
        </g>
    </g>
</svg>