<?xml version="1.0" encoding="UTF-8"?>
<svg width="30px" height="30px" viewBox="0 0 30 30" version="1.1" xmlns="http://www.w3.org/2000/svg" xmlns:xlink="http://www.w3.org/1999/xlink">
    <!-- Generator: Sketch 55.2 (78181) - https://sketchapp.com -->
    <title>playback-looped</title>
    <desc>Created with Sketch.</desc>
    <g id="playback-looped" stroke="none" stroke-width="1" fill="none" fill-rule="evenodd">
        <path d="M21.4627054,23 L23.6627054,21.5 L21.4627054,20 L25,20 C25.5522847,20 26,19.5522847 26,19 L26,5 C26,4.44771525 25.5522847,4 25,4 L5,4 C4.44771525,4 4,4.44771525 4,5 L4,19 C4,19.5522847 4.44771525,20 5,20 L8.5,20 L8.5,23 L4,23 C2.34314575,23 1,21.6568542 1,20 L1,4 C1,2.34314575 2.34314575,1 4,1 L26,1 C27.6568542,1 29,2.34314575 29,4 L29,20 C29,21.6568542 27.6568542,23 26,23 L21.4627054,23 Z" id="Path" fill-opacity="0.4" fill="#FFFFFF"></path>
        <polygon id="Path" fill="#FFFFFF" points="10 29 10 14 21 21.5"></polygon>
    </g>
</svg>