<?xml version="1.0" encoding="UTF-8"?>
<svg width="32px" height="32px" viewBox="0 0 32 32" version="1.1" xmlns="http://www.w3.org/2000/svg" xmlns:xlink="http://www.w3.org/1999/xlink">
    <!-- Generator: Sketch 55.2 (78181) - https://sketchapp.com -->
    <title>play-list</title>
    <desc>Created with Sketch.</desc>
    <g id="play-list" stroke="none" stroke-width="1" fill="none" fill-rule="evenodd">
        <g id="Group" transform="translate(1.000000, 1.000000)" fill="#FFFFFF">
            <path d="M27,10.4963932 C27,10.2222428 27.2157526,10 27.495389,10 L29.504611,10 C29.7782068,10 30,10.2246094 30,10.4943848 L30,29.5056152 C30,29.7786564 29.7723609,30 29.4982224,30 L7.5017776,30 C7.22465349,30 7,29.7849426 7,29.5095215 L7,26.4904785 C7,26.2195947 7.22460938,26 7.49438477,26 L26.5056152,26 C26.7786564,26 27,25.773819 27,25.5036068 L27,10.4963932 Z M23.0622,5.4963932 C23.0622,5.22224281 23.2927242,5 23.5605577,5 L25.5016423,5 C25.7768776,5 25.9997664,5.22461499 25.9994858,5.49439713 L25.9797142,24.5061029 C25.9794302,24.7791509 25.7517668,25.0004951 25.4778762,25.0004891 L3.50132382,25.0000109 C3.22445032,25.0000049 3,24.7849426 3,24.5095215 L3,21.4904785 C3,21.2195947 3.22530791,21 3.4959223,21 L22.5662777,21 C22.840168,21 23.0622,20.773819 23.0622,20.5036068 L23.0622,5.4963932 Z" id="Combined-Shape" fill-opacity="0.4"></path>
            <path d="M21.9997,19.5056152 C21.9997,19.7786564 21.7819583,20 21.4988639,20 L0.500536134,20 C0.223931975,20 -0.0003,19.7753906 -0.0003,19.5056152 L-0.0003,0.494384766 C-0.0003,0.221343599 0.217441728,0 0.500536134,0 L21.4988639,0 C21.775468,0 21.9997,0.224609375 21.9997,0.494384766 L21.9997,19.5056152 Z M10.5,17 C14.6421356,17 18,13.6421356 18,9.5 C18,5.35786438 14.6421356,2 10.5,2 C6.35786438,2 3,5.35786438 3,9.5 C3,13.6421356 6.35786438,17 10.5,17 Z" id="Combined-Shape"></path>
            <path d="M10.5,16 C6.91014913,16 4,13.0898509 4,9.5 C4,5.91014913 6.91014913,3 10.5,3 C14.0898509,3 17,5.91014913 17,9.5 C17,13.0898509 14.0898509,16 10.5,16 Z M8,13 L14,9.5 L8,6 L8,13 Z" id="Combined-Shape"></path>
        </g>
    </g>
</svg>