<?xml version="1.0" encoding="UTF-8"?>
<svg width="32px" height="32px" viewBox="0 0 32 32" version="1.1" xmlns="http://www.w3.org/2000/svg" xmlns:xlink="http://www.w3.org/1999/xlink">
    <!-- Generator: Sketch 55.2 (78181) - https://sketchapp.com -->
    <title>position</title>
    <desc>Created with Sketch.</desc>
    <g id="position" stroke="none" stroke-width="1" fill="none" fill-rule="evenodd">
        <path d="M16.0146,18.5005 C13.2574571,18.5005 11.0146,16.2576429 11.0146,13.5005 C11.0146,10.7433571 13.2574571,8.5005 16.0146,8.5005 C18.7717429,8.5005 21.0146,10.7433571 21.0146,13.5005 C21.0146,16.2576429 18.7717429,18.5005 16.0146,18.5005 M16.0146,1.0005 C9.7806,1.0005 4.5146,6.2675 4.5146,12.5005 C4.5146,16.7085 6.4576,21.2295 10.1326,25.5735 C12.8896,28.8325 15.6066,30.8215 15.7206,30.9045 C15.8076,30.9685 15.9116,31.0005 16.0146,31.0005 C16.1176,31.0005 16.2216,30.9685 16.3086,30.9045 C16.4226,30.8215 19.1396,28.8325 21.8966,25.5735 C25.5716,21.2295 27.5146,16.7085 27.5146,12.5005 C27.5146,6.2675 22.2486,1.0005 16.0146,1.0005" id="Fill-570" fill="#FFFFFF"></path>
    </g>
</svg>