<?xml version="1.0" encoding="UTF-8"?>
<svg width="32px" height="32px" viewBox="0 0 32 32" version="1.1" xmlns="http://www.w3.org/2000/svg" xmlns:xlink="http://www.w3.org/1999/xlink">
    <!-- Generator: Sketch 55.2 (78181) - https://sketchapp.com -->
    <title>prefs</title>
    <desc>Created with Sketch.</desc>
    <g id="prefs" stroke="none" stroke-width="1" fill="none" fill-rule="evenodd">
        <path d="M16.0146,21 C13.2576,21 11.0146,18.757 11.0146,16 C11.0146,13.243 13.2576,11 16.0146,11 C18.7716,11 21.0146,13.243 21.0146,16 C21.0146,18.757 18.7716,21 16.0146,21 M30.5146,13 L26.8056,13 C26.5616,12.132 26.2066,11.269 25.7816,10.506 L28.4046,7.883 C28.4976,7.79 28.5506,7.663 28.5506,7.53 C28.5506,7.397 28.4976,7.27 28.4046,7.176 L24.8376,3.61 C24.6416,3.415 24.3256,3.415 24.1306,3.61 L21.5046,6.235 C20.7136,5.81 19.6786,5.404 19.0146,5.207 L19.0146,1.5 C19.0146,1.224 18.7906,1 18.5146,1 L13.5146,1 C13.2386,1 13.0146,1.224 13.0146,1.5 L13.0146,5.209 C12.3376,5.41 11.3206,5.804 10.5236,6.235 L7.8976,3.61 C7.7026,3.415 7.3866,3.415 7.1906,3.61 L3.6246,7.176 C3.4286,7.372 3.4286,7.688 3.6246,7.883 L6.2496,10.51 C5.8286,11.294 5.4366,12.314 5.2276,13 L1.5146,13 C1.2386,13 1.0146,13.224 1.0146,13.5 L1.0146,17.5 C1.0146,17.776 1.2386,18 1.5146,18 L5.1766,18 C5.3926,19.301 5.7926,20.593 6.2526,21.488 L3.6236,24.117 C3.5296,24.211 3.4766,24.337 3.4766,24.47 C3.4766,24.603 3.5296,24.73 3.6236,24.824 L7.1906,28.39 C7.3786,28.578 7.7106,28.577 7.8976,28.39 L10.5266,25.76 C11.1016,26.053 11.7996,26.298 12.3796,26.502 C12.6136,26.584 12.8396,26.664 13.0146,26.732 L13.0146,30.5 C13.0146,30.776 13.2386,31 13.5146,31 L18.5146,31 C18.7906,31 19.0146,30.776 19.0146,30.5 L19.0146,26.732 C19.1896,26.664 19.4166,26.584 19.6506,26.502 C20.2306,26.298 20.9276,26.053 21.5006,25.761 L24.1316,28.39 C24.3266,28.585 24.6426,28.585 24.8386,28.39 L28.4046,24.824 C28.5996,24.628 28.5996,24.312 28.4046,24.117 L25.7866,21.499 C26.2486,20.727 26.6206,19.956 26.8676,18 L30.5146,18 C30.7906,18 31.0146,17.776 31.0146,17.5 L31.0146,13.5 C31.0146,13.224 30.7906,13 30.5146,13" id="Fill-1249" fill="#FFFFFF"></path>
    </g>
</svg>