<?xml version="1.0" encoding="UTF-8"?>
<svg width="32px" height="32px" viewBox="0 0 32 32" version="1.1" xmlns="http://www.w3.org/2000/svg" xmlns:xlink="http://www.w3.org/1999/xlink">
    <!-- Generator: Sketch 55.2 (78181) - https://sketchapp.com -->
    <title>record</title>
    <desc>Created with Sketch.</desc>
    <g id="record" stroke="none" stroke-width="1" fill="none" fill-rule="evenodd">
        <path d="M16,28.1535789 C22.7122363,28.1535789 28.1535789,22.7122363 28.1535789,16 C28.1535789,9.28776373 22.7122363,3.84642113 16,3.84642113 C9.28776373,3.84642113 3.84642113,9.28776373 3.84642113,16 C3.84642113,22.7122363 9.28776373,28.1535789 16,28.1535789 Z M16,31 C7.71572875,31 1,24.2842712 1,16 C1,7.71572875 7.71572875,1 16,1 C24.2842712,1 31,7.71572875 31,16 C31,24.2842712 24.2842712,31 16,31 Z M15.8962726,25.6112329 C21.261697,25.6112329 25.6112329,21.261697 25.6112329,15.8962726 C25.6112329,10.5308481 21.261697,6.18131219 15.8962726,6.18131219 C10.5308481,6.18131219 6.18131219,10.5308481 6.18131219,15.8962726 C6.18131219,21.261697 10.5308481,25.6112329 15.8962726,25.6112329 Z" fill="#FFFFFF"></path>
    </g>
</svg>