<?xml version="1.0" encoding="UTF-8"?>
<svg width="32px" height="32px" viewBox="0 0 32 32" version="1.1" xmlns="http://www.w3.org/2000/svg" xmlns:xlink="http://www.w3.org/1999/xlink">
    <!-- Generator: Sketch 55.2 (78181) - https://sketchapp.com -->
    <title>redo</title>
    <desc>Created with Sketch.</desc>
    <g id="redo" stroke="none" stroke-width="1" fill="none" fill-rule="evenodd">
        <path d="M4.54480445,25.4147304 C2.13397108,22.8052078 0.877688723,19.4053381 1.00939881,15.8472619 C1.13914334,12.2893311 2.64069641,8.9921617 5.23555356,6.56742877 C7.82676905,4.14609875 11.2092542,2.88296019 14.7525601,3.0085382 C18.3544733,3.14220809 21.6670948,4.71006718 24.074243,7.41879089 C25.6725946,9.21933626 26.7617952,11.4225527 27.2760628,13.8596781 L28.207057,12.5218646 C28.6929521,11.8235459 29.6504426,11.6539777 30.3462551,12.1421276 C31.0400226,12.6314612 31.2079367,13.5909434 30.7228093,14.2866195 L27.2956311,19.2105379 C27.262462,19.2550399 27.2563194,19.2632812 27.2426326,19.2774314 C27.210851,19.3170922 27.1800948,19.3509942 27.1259106,19.4078573 C27.1002724,19.4363889 27.1002724,19.4363889 27.0443361,19.4888883 C26.9860798,19.5397709 26.9271089,19.5813585 26.8541826,19.6267611 C26.799824,19.6613154 26.7392733,19.6941528 26.6623343,19.7292592 C26.6050607,19.7561438 26.5618226,19.7745862 26.5069473,19.7925225 C26.4304827,19.814082 26.4304827,19.814082 26.3741133,19.8260042 C26.3122382,19.8400206 26.2652198,19.8490924 26.1479448,19.8649806 C26.0900809,19.8683813 26.0900809,19.8683813 26.0376266,19.8692578 C26.0099931,19.8677361 25.9916041,19.8667235 25.9203508,19.8646482 C25.8470388,19.8558254 25.8470388,19.8558254 25.8028125,19.8458563 C25.7571641,19.8396513 25.7272992,19.8345647 25.6805484,19.8239478 C25.6057483,19.8049011 25.5543558,19.7873209 25.482668,19.7600774 C25.4398272,19.7445906 25.4398272,19.7445906 25.3769772,19.7165107 C25.3220646,19.6903592 25.2858312,19.6689537 25.1891421,19.6079683 C25.1596503,19.5897035 25.1596503,19.5897035 25.1111795,19.5547549 C25.0608627,19.515729 25.0223651,19.4807083 24.973972,19.4326424 C24.949777,19.4127126 24.9470354,19.409848 24.8891751,19.3493936 L20.4892995,14.4328807 C19.923129,13.8019219 19.9737419,12.8295535 20.6028868,12.2599368 C21.233228,11.6893912 22.2064322,11.7410812 22.7729323,12.3756631 L24.1283701,13.8898576 C23.6826563,12.2177032 22.8882538,10.7136816 21.7824974,9.4685739 C19.9365069,7.38978496 17.4018594,6.19037309 14.6397722,6.08766248 C11.9150058,5.98865995 9.32360484,6.95804305 7.32795882,8.82305638 C5.33062766,10.688776 4.17678445,13.2220471 4.0773399,15.9607 C3.97510563,18.6994024 4.94015433,21.3112943 6.79563854,23.3204116 C8.64958046,25.3269249 11.1677546,26.4863111 13.8897436,26.5872165 C14.7371846,26.6180961 15.398004,27.3332235 15.3674001,28.1827126 C15.3368346,29.0111619 14.6591789,29.6666917 13.797676,29.6666917 C10.2355652,29.5347365 6.95579078,28.0244187 4.54480445,25.4147304 Z" id="Fill-1360" fill="#FFFFFF"></path>
    </g>
</svg>