<?xml version="1.0" encoding="UTF-8"?>
<svg width="32px" height="32px" viewBox="0 0 32 32" version="1.1" xmlns="http://www.w3.org/2000/svg" xmlns:xlink="http://www.w3.org/1999/xlink">
    <!-- Generator: Sketch 57.1 (83088) - https://sketch.com -->
    <title>rule-add</title>
    <desc>Created with Sketch.</desc>
    <g id="rule-add" stroke="none" stroke-width="1" fill="none" fill-rule="evenodd">
        <g transform="translate(1.000000, 1.000000)" fill="#FFFFFF">
            <path d="M29.375,-4.08562073e-14 C29.72,-4.08562073e-14 30,0.28 30,0.625 L30,0.625 L30.0011092,18.5357707 C29.4125119,18.1950335 28.7290322,18 28,18 L28,18 L26,18 L26,16 C26,14.4925443 25.1661174,13.1798523 23.9344693,12.4980412 L25.625,12.5 C25.97,12.5 26.25,12.22 26.25,11.875 C26.25,11.53 25.97,11.25 25.625,11.25 L25.625,11.25 L13.125,11.25 C12.78,11.25 12.5,11.53 12.5,11.875 C12.5,12.22 12.78,12.5 13.125,12.5 L13.125,12.5 L20.0655307,12.4980412 C19.1159337,13.0237155 18.402783,13.9244083 18.1259548,15.0002435 L13,15 C12.724,15 12.5,15.28 12.5,15.625 C12.5,15.97 12.724,16.25 13,16.25 L13,16.25 L18,16.25 L18,18 L16,18 C13.790861,18 12,19.790861 12,22 C12,24.209139 13.790861,26 16,26 L16,26 L18,26 L18,28 C18,28.7290322 18.1950335,29.4125119 18.5357707,30.0011092 L0.625,30 C0.28,30 -7.81597009e-14,29.72 -7.81597009e-14,29.375 L-7.81597009e-14,29.375 L-7.81597009e-14,0.625 C-7.81597009e-14,0.28 0.28,-4.08562073e-14 0.625,-4.08562073e-14 L0.625,-4.08562073e-14 Z M30.0011092,25.4642293 L30,29.375 C30,29.72 29.72,30 29.375,30 L29.375,30 L25.4642293,30.0011092 C25.8049665,29.4125119 26,28.7290322 26,28 L26,28 L26,26 L28,26 C28.7290322,26 29.4125119,25.8049665 30.0011092,25.4642293 Z M9.375,20 L4.375,20 C4.03,20 3.75,20.28 3.75,20.625 L3.75,20.625 L3.75,25.625 C3.75,25.97 4.03,26.25 4.375,26.25 L4.375,26.25 L9.375,26.25 C9.72,26.25 10,25.97 10,25.625 L10,25.625 L10,20.625 C10,20.28 9.72,20 9.375,20 L9.375,20 Z M9.375,11.875 L4.375,11.875 C4.03,11.875 3.75,12.155 3.75,12.5 L3.75,12.5 L3.75,17.5 C3.75,17.845 4.03,18.125 4.375,18.125 L4.375,18.125 L9.375,18.125 C9.72,18.125 10,17.845 10,17.5 L10,17.5 L10,12.5 C10,12.155 9.72,11.875 9.375,11.875 L9.375,11.875 Z M9.375,3.75 L4.375,3.75 C4.03,3.75 3.75,4.03 3.75,4.375 L3.75,4.375 L3.75,9.375 C3.75,9.72 4.03,10 4.375,10 L4.375,10 L9.375,10 C9.72,10 10,9.72 10,9.375 L10,9.375 L10,4.375 C10,4.03 9.72,3.75 9.375,3.75 L9.375,3.75 Z M25.625,7.5 L16.875,7.5 C16.53,7.5 16.25,7.78 16.25,8.125 C16.25,8.47 16.53,8.75 16.875,8.75 L16.875,8.75 L25.625,8.75 C25.97,8.75 26.25,8.47 26.25,8.125 C26.25,7.78 25.97,7.5 25.625,7.5 L25.625,7.5 Z" id="Combined-Shape" fill-opacity="0.4"></path>
            <path d="M24,28 L24,24 L28,24 C29.1045695,24 30,23.1045695 30,22 C30,20.8954305 29.1045695,20 28,20 L24,20 L24,16 C24,14.8954305 23.1045695,14 22,14 C20.8954305,14 20,14.8954305 20,16 L20,20 L16,20 C14.8954305,20 14,20.8954305 14,22 C14,23.1045695 14.8954305,24 16,24 L20,24 L20,28 C20,29.1045695 20.8954305,30 22,30 C23.1045695,30 24,29.1045695 24,28 Z" id="Path"></path>
        </g>
    </g>
</svg>