<?xml version="1.0" encoding="UTF-8"?>
<svg width="32px" height="32px" viewBox="0 0 32 32" version="1.1" xmlns="http://www.w3.org/2000/svg" xmlns:xlink="http://www.w3.org/1999/xlink">
    <!-- Generator: Sketch 55.2 (78181) - https://sketchapp.com -->
    <title>rule</title>
    <desc>Created with Sketch.</desc>
    <g id="rule" stroke="none" stroke-width="1" fill="none" fill-rule="evenodd">
        <path d="M26.625,9.75 L17.875,9.75 C17.53,9.75 17.25,9.47 17.25,9.125 C17.25,8.78 17.53,8.5 17.875,8.5 L26.625,8.5 C26.97,8.5 27.25,8.78 27.25,9.125 C27.25,9.47 26.97,9.75 26.625,9.75 L26.625,9.75 Z M26.625,13.5 L14.125,13.5 C13.78,13.5 13.5,13.22 13.5,12.875 C13.5,12.53 13.78,12.25 14.125,12.25 L26.625,12.25 C26.97,12.25 27.25,12.53 27.25,12.875 C27.25,13.22 26.97,13.5 26.625,13.5 L26.625,13.5 Z M26.625,17.25 L14.125,17.25 C13.78,17.25 13.5,16.97 13.5,16.625 C13.5,16.28 13.78,16 14.125,16 L26.625,16 C26.97,16 27.25,16.28 27.25,16.625 C27.25,16.97 26.97,17.25 26.625,17.25 L26.625,17.25 Z M26.625,21 L14.125,21 C13.78,21 13.5,20.72 13.5,20.375 C13.5,20.03 13.78,19.75 14.125,19.75 L26.625,19.75 C26.97,19.75 27.25,20.03 27.25,20.375 C27.25,20.72 26.97,21 26.625,21 L26.625,21 Z M22.875,24.75 L14.125,24.75 C13.78,24.75 13.5,24.47 13.5,24.125 C13.5,23.78 13.78,23.5 14.125,23.5 L22.875,23.5 C23.22,23.5 23.5,23.78 23.5,24.125 C23.5,24.47 23.22,24.75 22.875,24.75 L22.875,24.75 Z M11,10.375 C11,10.72 10.72,11 10.375,11 L5.375,11 C5.03,11 4.75,10.72 4.75,10.375 L4.75,5.375 C4.75,5.03 5.03,4.75 5.375,4.75 L10.375,4.75 C10.72,4.75 11,5.03 11,5.375 L11,10.375 Z M11,18.5 C11,18.845 10.72,19.125 10.375,19.125 L5.375,19.125 C5.03,19.125 4.75,18.845 4.75,18.5 L4.75,13.5 C4.75,13.155 5.03,12.875 5.375,12.875 L10.375,12.875 C10.72,12.875 11,13.155 11,13.5 L11,18.5 Z M11,26.625 C11,26.97 10.72,27.25 10.375,27.25 L5.375,27.25 C5.03,27.25 4.75,26.97 4.75,26.625 L4.75,21.625 C4.75,21.28 5.03,21 5.375,21 L10.375,21 C10.72,21 11,21.28 11,21.625 L11,26.625 Z M30.375,1 L1.625,1 C1.28,1 1,1.28 1,1.625 L1,30.375 C1,30.72 1.28,31 1.625,31 L30.375,31 C30.72,31 31,30.72 31,30.375 L31,1.625 C31,1.28 30.72,1 30.375,1 L30.375,1 Z" id="Combined-Shape" fill="#FFFFFF"></path>
    </g>
</svg>