<?xml version="1.0" encoding="UTF-8"?>
<svg width="32px" height="32px" viewBox="0 0 32 32" version="1.1" xmlns="http://www.w3.org/2000/svg" xmlns:xlink="http://www.w3.org/1999/xlink">
    <!-- Generator: Sketch 55.2 (78181) - https://sketchapp.com -->
    <title>satellite</title>
    <desc>Created with Sketch.</desc>
    <g id="satellite" stroke="none" stroke-width="1" fill="none" fill-rule="evenodd">
        <path d="M23.0747863,9.632 C23.351785,9.83 23.6637836,9.983 23.999782,10.078 L23.999782,13.793 L21.4567937,11.25 L23.0747863,9.632 Z M21.9217915,8 C22.0177911,8.336 22.1697904,8.648 22.3677895,8.925 L20.7497969,10.543 L18.2068085,8 L21.9217915,8 Z M30.8537507,20.647 L24.9997775,14.793 L24.9997775,10.187 C26.5847702,10.095 27.8477644,8.761 27.8477644,7.131 C27.8477644,5.461 26.5197705,4.153 24.8257783,4.153 C23.2187856,4.153 21.9037916,5.415 21.812792,7 L17.2068131,7 L11.3538399,1.147 C11.1578408,0.951 10.8418422,0.951 10.6468431,1.147 C5.50186668,6.291 5.07586863,14.383 9.36984898,19.984 L1.11088677,30.186 C0.989887327,30.336 0.965887437,30.541 1.04888706,30.715 C1.13188668,30.889 1.30688588,31 1.49988499,31 L18.9998049,31 C19.194804,31 19.3728032,30.886 19.4538028,30.709 C19.5358025,30.532 19.5068026,30.323 19.3798032,30.174 L14.0328276,23.937 C16.0608184,25.012 18.330808,25.584 20.6857972,25.584 L20.6857972,25.584 C24.5137797,25.584 28.1257632,24.082 30.8537507,21.354 C31.0487498,21.158 31.0487498,20.842 30.8537507,20.647 L30.8537507,20.647 Z" id="Fill-845" fill="#FFFFFF"></path>
    </g>
</svg>