<?xml version="1.0" encoding="UTF-8"?>
<svg width="32px" height="32px" viewBox="0 0 32 32" version="1.1" xmlns="http://www.w3.org/2000/svg" xmlns:xlink="http://www.w3.org/1999/xlink">
    <!-- Generator: Sketch 55.2 (78181) - https://sketchapp.com -->
    <title>save-events</title>
    <desc>Created with Sketch.</desc>
    <g id="save-events" stroke="none" stroke-width="1" fill="none" fill-rule="evenodd">
        <g id="Fill-2778-+-Fill-2779-+-Fill-2780" transform="translate(15.000000, 14.000000)"></g>
        <path d="M10.5,29 L10.5,29.1 C10.5,29.8034083 10.7142712,30.4573385 11.081023,31 L1.5,31 C1.224,31 1,30.776 1,30.5 L1,1.5 C1,1.224 1.224,1 1.5,1 L26.5,1 C26.633,1 26.76,1.053 26.854,1.146 L30.854,5.146 C30.947,5.24 31,5.368 31,5.5 L31,11.6458402 C30.2038653,10.9332804 29.1525317,10.5 28,10.5 L25,10.5 L25,4.99961498 C25,3.89525812 24.1073772,3 23.0049107,3 L8.99508929,3 C7.8932319,3 7,3.88743329 7,4.99961498 L7,11.000385 C7,12.1047419 7.8926228,13 8.99508929,13 L10.9677598,13 C10.6683531,13.6024795 10.5,14.2815793 10.5,15 L10.5,16 L4.99700466,16 C3.89408944,16 3,16.8935426 3,18.0027601 L3,26.9972399 C3,28.1033337 3.89497885,29 4.99700466,29 L10.5,29 Z M10.5,17 L10.5,28 L5.00246167,28 C4.43945834,28 4,27.553384 4,27.0024554 L4,17.9975446 C4,17.4463114 4.44881738,17 5.00246167,17 L10.5,17 Z M24,10.5 L18,10.5 L18,4.99703014 C18,4.45303631 18.4435864,4 18.990778,4 L23.009222,4 C23.5490248,4 24,4.4463856 24,4.99703014 L24,10.5 Z" id="Combined-Shape" fill-opacity="0.4" fill="#FFFFFF"></path>
        <path d="M12,29.1 L12,15 C12,13.3431458 13.3431458,12 15,12 L28,12 C29.6568542,12 31,13.3431458 31,15 L31,29.1 C31,30.1475333 30.1475333,31 29.1,31 L13.9,31 C12.8524667,31 12,30.1475333 12,29.1 Z M28.0975048,13.9 L14.9,13.9 C14.3477153,13.9 13.9,14.3477153 13.9,14.9 L13.9,28.1 C13.9,28.6522847 14.3477153,29.1 14.9,29.1 L28.0646095,29.1 C28.6159212,29.1 29.0632325,28.6538021 29.0646064,28.1024921 L29.0975017,14.9024921 C29.098878,14.350209 28.6522799,13.9013794 28.0999969,13.9000031 C28.0991662,13.900001 28.0983355,13.9 28.0975048,13.9 Z M26.8212998,15.1666667 C26.825287,15.1666667 26.8292741,15.1666905 26.8332609,15.1667382 C27.3855062,15.1733441 27.8278342,15.6263825 27.8212283,16.1786278 L27.8072727,17.3452944 C27.8007226,17.8928746 27.3549635,18.3333333 26.8073442,18.3333333 L16.1666667,18.3333333 C15.6143819,18.3333333 15.1666667,17.8856181 15.1666667,17.3333333 L15.1666667,16.1666667 C15.1666667,15.6143819 15.6143819,15.1666667 16.1666667,15.1666667 L26.8212998,15.1666667 Z M26.8212998,19.91635 C26.825287,19.91635 26.8292741,19.9163738 26.8332609,19.9164215 C27.3855062,19.9230275 27.8278342,20.3760659 27.8212283,20.9283111 L27.8072727,22.0949778 C27.8007226,22.6425579 27.3549635,23.0830167 26.8073442,23.0830167 L16.1666667,23.0830167 C15.6143819,23.0830167 15.1666667,22.6353014 15.1666667,22.0830167 L15.1666667,20.91635 C15.1666667,20.3640653 15.6143819,19.91635 16.1666667,19.91635 L26.8212998,19.91635 Z M26.8212998,24.6666667 C26.825287,24.6666667 26.8292741,24.6666905 26.8332609,24.6667382 C27.3855062,24.6733441 27.8278342,25.1263825 27.8212283,25.6786278 L27.8072727,26.8452944 C27.8007226,27.3928746 27.3549635,27.8333333 26.8073442,27.8333333 L16.1666667,27.8333333 C15.6143819,27.8333333 15.1666667,27.3856181 15.1666667,26.8333333 L15.1666667,25.6666667 C15.1666667,25.1143819 15.6143819,24.6666667 16.1666667,24.6666667 L26.8212998,24.6666667 Z" id="Combined-Shape" fill="#FFFFFF"></path>
    </g>
</svg>