<?xml version="1.0" encoding="UTF-8"?>
<svg width="32px" height="32px" viewBox="0 0 32 32" version="1.1" xmlns="http://www.w3.org/2000/svg" xmlns:xlink="http://www.w3.org/1999/xlink">
    <!-- Generator: Sketch 55.2 (78181) - https://sketchapp.com -->
    <title>server2</title>
    <desc>Created with Sketch.</desc>
    <g id="server2" stroke="none" stroke-width="1" fill="none" fill-rule="evenodd">
        <g id="server" transform="translate(8.000000, 1.000000)" fill="#FFFFFF">
            <path d="M16,2.30769231 L16,27.6923077 C16,28.966811 14.966811,30 13.6923077,30 L2.30769231,30 C1.03318904,30 -2.88007575e-16,28.966811 0,27.6923077 L0,2.30769231 C-1.56081635e-16,1.03318904 1.03318904,-2.09966758e-16 2.30769231,0 L13.6923077,0 C14.966811,-1.36610875e-15 16,1.03318904 16,2.30769231 Z M3.43956044,2.30769231 C2.80230881,2.30769231 2.28571429,2.82428683 2.28571429,3.46153846 L2.28571429,26.5384615 C2.28571429,27.1757132 2.80230881,27.6923077 3.43956044,27.6923077 L12.5604396,27.6923077 C13.1976912,27.6923077 13.7142857,27.1757132 13.7142857,26.5384615 L13.7142857,3.46153846 C13.7142857,2.82428683 13.1976912,2.30769231 12.5604396,2.30769231 L3.43956044,2.30769231 Z M5.72527473,4.61538462 L10.2747253,4.61538462 C10.9119769,4.61538462 11.4285714,5.13197913 11.4285714,5.76923077 L11.4285714,6.92307692 C11.4285714,7.56032856 10.9119769,8.07692308 10.2747253,8.07692308 L5.72527473,8.07692308 C5.08802309,8.07692308 4.57142857,7.56032856 4.57142857,6.92307692 L4.57142857,5.76923077 C4.57142857,5.13197913 5.08802309,4.61538462 5.72527473,4.61538462 Z M8,25.3846154 C6.73763486,25.3846154 5.71428571,24.3514263 5.71428571,23.0769231 C5.71428571,21.8024198 6.73763486,20.7692308 8,20.7692308 C9.26236514,20.7692308 10.2857143,21.8024198 10.2857143,23.0769231 C10.2857143,24.3514263 9.26236514,25.3846154 8,25.3846154 Z" id="Combined-Shape"></path>
        </g>
    </g>
</svg>