<?xml version="1.0" encoding="UTF-8"?>
<svg width="32px" height="32px" viewBox="0 0 32 32" version="1.1" xmlns="http://www.w3.org/2000/svg" xmlns:xlink="http://www.w3.org/1999/xlink">
    <!-- Generator: Sketch 55.2 (78181) - https://sketchapp.com -->
    <title>servers-show</title>
    <desc>Created with Sketch.</desc>
    <g id="servers-show" stroke="none" stroke-width="1" fill="none" fill-rule="evenodd">
        <g id="Group" transform="translate(19.000000, 21.000000)"></g>
        <path d="M26.0268599,15.3839613 C25.3715431,15.1818637 24.6812095,15.066808 23.9698657,15.0297902 C24.8192762,14.6105875 25.5146123,14.1353578 26.0268599,13.6201088 L26.0268599,15.3839613 Z M15.1686117,21.9705449 C15.0765672,22.4707866 15.0215406,22.9850352 15.0215406,23.5112895 C15.0215406,24.7268771 15.2826668,25.8814351 15.7438898,26.9289414 C15.0235416,26.9829675 14.2821833,27.012982 13.5208153,27.012982 C6.50842596,27.012982 1.01477069,24.5968142 1.01477069,21.5103224 L1.01477069,18.6219264 C3.0107354,20.6288964 7.79604831,22.0105642 13.5208153,22.0105642 C14.0800856,22.0105642 14.6293511,21.9955569 15.1686117,21.9705449 Z M13.5208153,21.0101807 C6.04019965,21.0101807 1.01477069,18.6820554 1.01477069,16.5080046 L1.01477069,13.6196086 C3.0107354,15.6265786 7.79604831,17.0082464 13.5208153,17.0082464 C15.3106804,17.0082464 17.0065,16.8721806 18.5552486,16.6250612 C17.0905406,17.6855738 15.969999,19.196304 15.4147307,20.9581555 C14.8024347,20.9911715 14.1721301,21.0101807 13.5208153,21.0101807 Z M13.5208153,16.0077628 C6.04019965,16.0077628 1.01477069,13.6796376 1.01477069,11.5055868 L1.01477069,8.61719073 C3.0107354,10.6241608 7.79604831,12.0058286 13.5208153,12.0058286 C19.2455822,12.0058286 24.0308951,10.6241608 26.0268599,8.61719073 L26.0268599,11.5055868 C26.0268599,13.6796376 21.0014309,16.0077628 13.5208153,16.0077628 Z M13.5208153,11.005345 C6.04019965,11.005345 1.01477069,8.67721974 1.01477069,6.50316895 C1.01477069,3.41767763 6.50842596,1.00050933 13.5208153,1.00050933 C20.5332046,1.00050933 26.0268599,3.41767763 26.0268599,6.50316895 C26.0268599,8.67721974 21.0014309,11.005345 13.5208153,11.005345 Z" id="Combined-Shape" fill-opacity="0.4" fill="#FFFFFF"></path>
        <path d="M23.5111439,16.0072626 C27.649144,16.0072626 31.0147707,19.3738898 31.0147707,23.5108894 C31.0147707,27.6488894 27.649144,31.0145161 23.5111439,31.0145161 C19.3741444,31.0145161 16.0075172,27.6488894 16.0075172,23.5108894 C16.0075172,19.3738898 19.3741444,16.0072626 23.5111439,16.0072626 Z M25.7009459,21.3038309 L23.4445542,23.7515634 L21.1879578,21.3036087 C20.8454934,20.9301759 20.2634557,20.9095104 19.8952268,21.2591706 C19.5316596,21.6026915 19.5119628,22.1780643 19.8521688,22.5462912 L22.776476,25.718755 C22.9481983,25.90551 23.1904982,26.0121684 23.4445543,26.0121684 C23.6985118,26.0121684 23.9408442,25.9055823 24.1128441,25.7185252 L27.0371373,22.5460772 C27.3770219,22.1781981 27.3575816,21.6028162 26.9939816,21.2592651 C26.6259863,20.9098277 26.0441172,20.9299132 25.7009459,21.3038309 Z" id="Combined-Shape" fill="#FFFFFF"></path>
    </g>
</svg>