<?xml version="1.0" encoding="UTF-8"?>
<svg width="32px" height="32px" viewBox="0 0 32 32" version="1.1" xmlns="http://www.w3.org/2000/svg" xmlns:xlink="http://www.w3.org/1999/xlink">
    <!-- Generator: Sketch 55.2 (78181) - https://sketchapp.com -->
    <title>server</title>
    <desc>Created with Sketch.</desc>
    <g id="server" stroke="none" stroke-width="1" fill="none" fill-rule="evenodd">
        <path d="M1.2,18.8847552 C1.2,21.4414883 7.7014115,23.877003 16,23.877003 C24.2985885,23.877003 30.8,21.4414883 30.8,18.8847552 L30.8,16.0025803 C28.1437265,18.235453 22.4886836,19.6616716 16,19.6616716 C9.51131637,19.6616716 3.85627353,18.235453 1.2,16.0025803 L1.2,18.8847552 Z M1.2,24.6539194 C1.2,28.0548235 7.68870654,30.8 16,30.8 C24.3112935,30.8 30.8,28.0548235 30.8,24.6539194 L30.8,21.7717445 C28.1437265,24.0046172 22.4886836,25.4308358 16,25.4308358 C9.51131637,25.4308358 3.85627353,24.0046172 1.2,21.7717445 L1.2,24.6539194 Z M1.2,13.115591 C1.2,15.6723241 7.7014115,18.1078388 16,18.1078388 C24.2985885,18.1078388 30.8,15.6723241 30.8,13.115591 L30.8,10.2334161 C28.1437265,12.4662888 22.4886836,13.8925074 16,13.8925074 C9.51131637,13.8925074 3.85627353,12.4662888 1.2,10.2334161 L1.2,13.115591 Z M16,12.3383284 C24.2985885,12.3383284 30.8,9.90281375 30.8,7.34608062 C30.8,3.94517645 24.3112935,1.2 16,1.2 C7.68870654,1.2 1.2,3.94517645 1.2,7.34608062 C1.2,9.90281375 7.7014115,12.3383284 16,12.3383284 Z" id="disc" fill="#FFFFFF"></path>
    </g>
</svg>