<?xml version="1.0" encoding="UTF-8"?>
<svg width="32px" height="32px" viewBox="0 0 32 32" version="1.1" xmlns="http://www.w3.org/2000/svg" xmlns:xlink="http://www.w3.org/1999/xlink">
    <!-- Generator: Sketch 55.2 (78181) - https://sketchapp.com -->
    <title>servers-hide</title>
    <desc>Created with Sketch.</desc>
    <g id="servers-hide" stroke="none" stroke-width="1" fill="none" fill-rule="evenodd">
        <path d="M26.0268599,15.3839613 C25.3715431,15.1818637 24.6812095,15.066808 23.9698657,15.0297902 C24.8192762,14.6105875 25.5146123,14.1353578 26.0268599,13.6201088 L26.0268599,15.3839613 Z M15.1686117,21.9705449 C15.0765672,22.4707866 15.0215406,22.9850352 15.0215406,23.5112895 C15.0215406,24.7268771 15.2826668,25.8814351 15.7438898,26.9289414 C15.0235416,26.9829675 14.2821833,27.012982 13.5208153,27.012982 C6.50842596,27.012982 1.01477069,24.5968142 1.01477069,21.5103224 L1.01477069,18.6219264 C3.0107354,20.6288964 7.79604831,22.0105642 13.5208153,22.0105642 C14.0800856,22.0105642 14.6293511,21.9955569 15.1686117,21.9705449 Z M13.5208153,21.0101807 C6.04019965,21.0101807 1.01477069,18.6820554 1.01477069,16.5080046 L1.01477069,13.6196086 C3.0107354,15.6265786 7.79604831,17.0082464 13.5208153,17.0082464 C15.3106804,17.0082464 17.0065,16.8721806 18.5552486,16.6250612 C17.0905406,17.6855738 15.969999,19.196304 15.4147307,20.9581555 C14.8024347,20.9911715 14.1721301,21.0101807 13.5208153,21.0101807 Z M13.5208153,16.0077628 C6.04019965,16.0077628 1.01477069,13.6796376 1.01477069,11.5055868 L1.01477069,8.61719073 C3.0107354,10.6241608 7.79604831,12.0058286 13.5208153,12.0058286 C19.2455822,12.0058286 24.0308951,10.6241608 26.0268599,8.61719073 L26.0268599,11.5055868 C26.0268599,13.6796376 21.0014309,16.0077628 13.5208153,16.0077628 Z M13.5208153,11.005345 C6.04019965,11.005345 1.01477069,8.67721974 1.01477069,6.50316895 C1.01477069,3.41767763 6.50842596,1.00050933 13.5208153,1.00050933 C20.5332046,1.00050933 26.0268599,3.41767763 26.0268599,6.50316895 C26.0268599,8.67721974 21.0014309,11.005345 13.5208153,11.005345 Z" id="Combined-Shape" fill-opacity="0.4" fill="#FFFFFF"></path>
        <path d="M23.5111439,16.0072626 C27.649144,16.0072626 31.0147707,19.3738898 31.0147707,23.5108894 C31.0147707,27.6488894 27.649144,31.0145161 23.5111439,31.0145161 C19.3741444,31.0145161 16.0075172,27.6488894 16.0075172,23.5108894 C16.0075172,19.3738898 19.3741444,16.0072626 23.5111439,16.0072626 Z M21.1881025,25.718018 L23.4444942,23.2702854 L25.7010907,25.7182402 C26.0435551,26.091673 26.6255928,26.1123384 26.9938217,25.7626783 C27.3573888,25.4191574 27.3770857,24.8437846 27.0368797,24.4755577 L24.1125724,21.3030938 C23.9408502,21.1163389 23.6985502,21.0096804 23.4444942,21.0096804 C23.1905367,21.0096804 22.9482042,21.1162666 22.7762044,21.3033236 L19.8519112,24.4757717 C19.5120266,24.8436508 19.5314668,25.4190327 19.8950668,25.7625837 C20.2630622,26.1120211 20.8449313,26.0919357 21.1881025,25.718018 Z" id="Combined-Shape" fill="#FFFFFF"></path>
    </g>
</svg>