<?xml version="1.0" encoding="UTF-8"?>
<svg width="32px" height="32px" viewBox="0 0 32 32" version="1.1" xmlns="http://www.w3.org/2000/svg" xmlns:xlink="http://www.w3.org/1999/xlink">
    <!-- Generator: Sketch 55.2 (78181) - https://sketchapp.com -->
    <title>server-3-screen</title>
    <desc>Created with Sketch.</desc>
    <g id="server-3-screen" stroke="none" stroke-width="1" fill="none" fill-rule="evenodd">
        <path d="M4,10 L4,23 L2,23 C1.44771525,23 1,22.5522847 1,22 L1,11 C1,10.4477153 1.44771525,10 2,10 L4,10 Z M13,10 L30,10 C30.5522847,10 31,10.4477153 31,11 L31,22 C31,22.5522847 30.5522847,23 30,23 L13,23 L13,10 Z M15.5,12 C15.2238576,12 15,12.2238576 15,12.5 L15,20.5 C15,20.7761424 15.2238576,21 15.5,21 L28.5,21 C28.7761424,21 29,20.7761424 29,20.5 L29,12.5 C29,12.2238576 28.7761424,12 28.5,12 L15.5,12 Z" id="Combined-Shape" fill-opacity="0.4" fill="#FFFFFF"></path>
        <rect id="Rectangle-Copy-4" fill="#FFFFFF" x="6" y="8" width="5" height="17"></rect>
    </g>
</svg>