<?xml version="1.0" encoding="UTF-8"?>
<svg width="32px" height="32px" viewBox="0 0 32 32" version="1.1" xmlns="http://www.w3.org/2000/svg" xmlns:xlink="http://www.w3.org/1999/xlink">
    <!-- Generator: Sketch 55.2 (78181) - https://sketchapp.com -->
    <title>server-audio</title>
    <desc>Created with Sketch.</desc>
    <g id="server-audio" stroke="none" stroke-width="1" fill="none" fill-rule="evenodd">
        <path d="M5.28571429,22.4766481 C2.56444965,21.4855819 1,20.162109 1,18.8847552 L1,15.5536398 C1.94895797,16.4711199 3.4235938,17.2752899 5.28571429,17.9118206 L5.28571429,16.7074839 C2.56444965,15.7164177 1,14.3929448 1,13.115591 L1,9.78447556 C1.94895797,10.7019557 3.4235938,11.5061257 5.28571429,12.1426564 L5.28571429,10.9379736 C2.56444965,9.94690732 1,8.62343442 1,7.34608062 C1,3.78766014 7.5892,1 16,1 C24.4108,1 31,3.78766014 31,7.34608062 C31,8.62343442 29.4355504,9.94690732 26.7142857,10.9379736 L26.7142857,12.1426564 C28.5764062,11.5061257 30.051042,10.7019557 31,9.78447556 L31,13.115591 C31,14.3929448 29.4355504,15.7164177 26.7142857,16.7074839 L26.7142857,17.9118206 C28.5764062,17.2752899 30.051042,16.4711199 31,15.5536398 L31,18.8847552 C31,20.162109 29.4355504,21.4855819 26.7142857,22.4766481 L26.7142857,23.6809848 C28.5764062,23.0444541 30.051042,22.2402841 31,21.322804 L31,24.6539194 C31,28.2123399 24.4108,31 16,31 C7.5892,31 1,28.2123399 1,24.6539194 L1,21.322804 C1.94895797,22.2402841 3.4235938,23.0444541 5.28571429,23.6809848 L5.28571429,22.4766481 L5.28571429,22.4766481 Z M17.7886208,8.53174528 C17.635967,8.46725821 17.4604559,8.50317506 17.3437207,8.61990481 L11.7494083,14.2147698 L9.06123226,14.2147698 C8.16081981,14.2147698 7.42857143,14.9469837 7.42857143,15.8473537 L7.42857143,18.2962296 C7.42857143,19.1965996 8.16081981,19.9288135 9.06123226,19.9288135 L11.7494083,19.9288135 L17.3437207,25.5228622 C17.4220884,25.6012263 17.5257624,25.6428571 17.6327017,25.6428571 C17.6849468,25.6428571 17.7380083,25.6330616 17.7886208,25.611838 C17.9412746,25.5489836 18.0408669,25.3996021 18.0408669,25.2347112 L18.0408669,8.90887216 C18.0408669,8.74398119 17.9412746,8.59459976 17.7886208,8.53174528 Z M21.9738652,11.8591145 C21.7999868,11.7162634 21.5428427,11.7407522 21.3991686,11.9138061 C21.2554944,12.0876763 21.2799843,12.3456245 21.4538627,12.4884756 C22.8522367,13.6427124 23.7550982,15.4410036 23.7550982,17.0719549 C23.7550982,18.6988248 22.8514204,20.4979322 21.4538627,21.6546179 C21.2799843,21.7991016 21.2554944,22.0562336 21.3991686,22.2301038 C21.4799853,22.3272425 21.5967205,22.3778526 21.7142721,22.3778526 C21.8057011,22.3778526 21.8979465,22.3468335 21.9738652,22.283979 C23.5518319,20.9779119 24.5714286,18.9322843 24.5714286,17.0719549 C24.5714286,15.2075441 23.5518319,13.1619165 21.9738652,11.8591145 Z M20.3212859,13.8846614 C20.1392442,13.7524221 19.8837328,13.7924204 19.7514873,13.9744535 C19.6184254,14.1564866 19.6592419,14.411986 19.8412836,14.5450416 C20.5090419,15.0307353 21.3057804,15.8633531 21.3057804,17.0714651 C21.3057804,18.2812098 20.5090419,19.1130113 19.8412836,19.598705 C19.6592419,19.7309443 19.6184254,19.9864437 19.7514873,20.1684768 C19.8306713,20.2786762 19.9555699,20.3366329 20.0821011,20.3366329 C20.1645504,20.3366329 20.2486325,20.3121442 20.3212859,20.2590852 C21.4829241,19.4150393 22.1221108,18.2836587 22.1221108,17.0714651 C22.1221108,15.8609042 21.4829241,14.7287072 20.3212859,13.8846614 Z" id="Combined-Shape" fill="#FFFFFF"></path>
    </g>
</svg>