<?xml version="1.0" encoding="UTF-8"?>
<svg width="32px" height="32px" viewBox="0 0 32 32" version="1.1" xmlns="http://www.w3.org/2000/svg" xmlns:xlink="http://www.w3.org/1999/xlink">
    <!-- Generator: Sketch 55.2 (78181) - https://sketchapp.com -->
    <title>share</title>
    <desc>Created with Sketch.</desc>
    <g id="share" stroke="none" stroke-width="1" fill="none" fill-rule="evenodd">
        <g transform="translate(1.000000, 1.000000)" fill="#FFFFFF" id="Combined-Shape">
            <path d="M26.5,0 C28.43,0 30,1.57 30,3.5 L30,26.5 C30,28.43 28.43,30 26.5,30 L3.5,30 C1.57,30 0,28.43 0,26.5 L0,3.5 C0,1.57 1.57,0 3.5,0 L26.5,0 Z M21,12 C23.209139,12 25,10.209139 25,8 C25,5.790861 23.209139,4 21,4 C18.790861,4 17,5.790861 17,8 C17,8.38426906 17.0541859,8.75588232 17.1553339,9.10761581 L10.8267625,12.1699092 C10.1030368,11.4470293 9.10372305,11 8,11 C5.790861,11 4,12.790861 4,15 C4,17.209139 5.790861,19 8,19 C9.10372305,19 10.1030368,18.5529707 10.8267625,17.8300908 L17.1553339,20.8923842 C17.0541859,21.2441177 17,21.6157309 17,22 C17,24.209139 18.790861,26 21,26 C23.209139,26 25,24.209139 25,22 C25,19.790861 23.209139,18 21,18 C19.896277,18 18.8969632,18.4470293 18.1732375,19.1699092 L11.8446661,16.1076158 C11.9458141,15.7558823 12,15.3842691 12,15 C12,14.6157309 11.9458141,14.2441177 11.8446661,13.8923842 L18.1732375,10.8300908 C18.8969632,11.5529707 19.896277,12 21,12 Z"></path>
        </g>
    </g>
</svg>