<?xml version="1.0" encoding="UTF-8"?>
<svg width="32px" height="32px" viewBox="0 0 32 32" version="1.1" xmlns="http://www.w3.org/2000/svg" xmlns:xlink="http://www.w3.org/1999/xlink">
    <!-- Generator: Sketch 55.2 (78181) - https://sketchapp.com -->
    <title>sidebar-dock</title>
    <desc>Created with Sketch.</desc>
    <g id="sidebar-dock" stroke="none" stroke-width="1" fill="none" fill-rule="evenodd">
        <path d="M5.52678577,24 L13.3999996,24 C13.9522844,24 14.3999996,24.4477153 14.3999996,25 L14.3999996,30 C14.3999996,30.5522847 13.9522844,31 13.3999996,31 L2,31 C1.44771525,31 1,30.5522847 1,30 L1,25 C1,24.6039734 1.23021021,24.2617152 1.56410962,24.0997465 C1.8182361,24.8281084 2.47488092,25.3826884 3.31540978,25.4885217 C3.37375908,25.4947189 3.44648719,25.5 3.5301791,25.5 C4.45746512,25.5 5.26937088,24.8847344 5.52678577,24 Z" id="Combined-Shape" fill-opacity="0.4" fill="#FFFFFF"></path>
        <path d="M21,15.8735415 L26.7967821,11.0629102 C27.271505,10.6689853 27.5458408,10.0867353 27.5500005,9.47118557 C27.5541115,8.85304039 27.2821997,8.26535479 26.8112996,7.86768612 L21,2.96036436 L21,2 C21,1.44771525 21.4477153,1 22,1 L30,1 C30.5522847,1 31,1.44771525 31,2 L31,30 C31,30.5522847 30.5522847,31 30,31 L22,31 C21.4477153,31 21,30.5522847 21,30 L21,15.8735415 Z M3.45825678,23.995339 C3.16360725,23.958051 2.94320013,23.7040263 2.95,23.4045568 C2.95364047,23.2320996 3.47565734,6.3627614 17.9297245,5.92113129 L17.9297245,3.5824726 C17.9297245,3.35641391 18.0608088,3.15016449 18.2649754,3.05461391 C18.4679819,2.95906334 18.7092697,2.99052511 18.8832754,3.13618148 L25.8435003,9.01370735 C25.9745846,9.12440619 26.051147,9.28870657 26.05,9.46116372 C26.048827,9.63478611 25.9722645,9.79792125 25.8388602,9.90862009 L18.8786352,15.6847691 C18.7057896,15.828095 18.4668219,15.8583915 18.2626553,15.7628409 C18.0596487,15.6661251 17.9297245,15.4610409 17.9297245,15.2349822 L17.9297245,12.9126371 C6.59151805,13.2493946 4.11947815,23.44301 4.09511736,23.5478826 C4.03363538,23.8147251 3.79698773,24 3.5301791,24 C3.50697835,24 3.48261756,23.9976695 3.45825678,23.995339 Z" id="Combined-Shape" fill="#FFFFFF"></path>
    </g>
</svg>