<?xml version="1.0" encoding="UTF-8"?>
<svg width="32px" height="32px" viewBox="0 0 32 32" version="1.1" xmlns="http://www.w3.org/2000/svg" xmlns:xlink="http://www.w3.org/1999/xlink">
    <!-- Generator: Sketch 55.2 (78181) - https://sketchapp.com -->
    <title>sizzors</title>
    <desc>Created with Sketch.</desc>
    <g id="sizzors" stroke="none" stroke-width="1" fill="none" fill-rule="evenodd">
        <path d="M6.21107612,26.7933475 C8.257106,26.7933475 9.92213032,25.1283232 9.92213032,23.0832934 C9.92213032,21.0362635 8.257106,19.3712391 6.21107612,19.3712391 C4.16504623,19.3712391 2.50002191,21.0362635 2.50002191,23.0832934 C2.50002191,25.1283232 4.16504623,26.7933475 6.21107612,26.7933475 Z M6.21107612,4.50002191 C4.16504623,4.50002191 2.50002191,6.16504623 2.50002191,8.21107612 C2.50002191,10.258106 4.16504623,11.9231303 6.21107612,11.9231303 C8.257106,11.9231303 9.92213032,10.258106 9.92213032,8.21107612 C9.92213032,6.16504623 8.257106,4.50002191 6.21107612,4.50002191 Z M6.21107612,17.8712172 C7.85410012,17.8712172 9.31912152,18.6372284 10.2741355,19.8282458 C10.5921401,18.3582243 11.1281479,16.9502038 11.8631587,15.6471847 C11.1281479,14.3441657 10.5921401,12.9361451 10.2741355,11.4661237 C9.3181215,12.6571411 7.8531001,13.4231522 6.21107612,13.4231522 C3.33803415,13.4231522 1,11.0851181 1,8.21107612 C1,5.33803415 3.33803415,3 6.21107612,3 C9.0851181,3 11.4221522,5.33803415 11.4221522,8.21107612 C11.4221522,10.4051082 11.9361597,12.5441394 12.914174,14.4491672 C15.5082119,10.8301144 19.5932716,8.7030833 24.0563368,8.7030833 C25.3983564,8.7030833 29.6004178,9.39009334 30.8004353,10.2901065 C30.9524375,10.4041082 31.0264386,10.5951109 30.9914381,10.7831137 C30.9564376,10.9701164 30.8184356,11.1201186 30.6344329,11.1711194 L14.5891985,15.6411846 L30.6354329,20.1442504 C30.8184356,20.1952512 30.9564376,20.3462534 30.9914381,20.5332561 C31.0264386,20.7202588 30.9524375,20.9112616 30.8004353,21.0252633 C29.5974177,21.9302765 25.4463571,22.5912862 24.0563368,22.5912862 C19.5932716,22.5912862 15.5092119,20.4632551 12.914174,16.8442022 C11.9371598,18.7502301 11.4221522,20.8882613 11.4221522,23.0832934 C11.4221522,25.9563353 9.0851181,28.2933695 6.21107612,28.2933695 C3.33803415,28.2933695 1,25.9563353 1,23.0832934 C1,20.2092514 3.33803415,17.8712172 6.21107612,17.8712172 Z" id="Fill-2201" fill="#FFFFFF"></path>
    </g>
</svg>