<?xml version="1.0" encoding="UTF-8"?>
<svg width="32px" height="32px" viewBox="0 0 32 32" version="1.1" xmlns="http://www.w3.org/2000/svg" xmlns:xlink="http://www.w3.org/1999/xlink">
    <!-- Generator: Sketch 55.2 (78181) - https://sketchapp.com -->
    <title>snapchat</title>
    <desc>Created with Sketch.</desc>
    <g id="snapchat" stroke="none" stroke-width="1" fill="none" fill-rule="evenodd">
        <g id="Snapchat" transform="translate(1.000000, 1.000000)">
            <path d="M22.8515625,-1.53409893e-15 C27.1875,-1.53409893e-15 30,2.8125 30,7.1484375 L30,22.8515625 C30,27.1875 27.1875,30 22.8515625,30 L7.1484375,30 C2.8125,30 0,27.1875 0,22.8515625 L0,7.1484375 C0,2.8125 2.8125,-1.53409893e-15 7.1484375,-1.53409893e-15 L22.8515625,-1.53409893e-15 Z" id="App-Icon-Shape" fill="#FFFC00"></path>
            <path d="M20.3866901,7.36064706 C20.3866901,7.36064706 20.9665089,8.35326182 21.1082401,9.46494471 C21.1082401,9.46494471 21.213618,10.0490366 21.0713959,12.9988098 C21.0713959,12.9988098 21.0319977,13.2731171 21.2211609,13.2532291 C21.2211609,13.2532291 21.4603615,13.2901306 22.3310547,12.9988098 C22.3310547,12.9988098 22.6850441,12.8849643 22.9925995,12.9124994 C23.1669502,12.9281089 23.3047905,12.957283 23.5730877,13.1304741 C23.8413849,13.3036652 23.9447241,13.5677122 23.9586487,13.8006439 C23.9738204,14.0544372 23.8748016,14.2639463 23.8748016,14.2639463 C23.8748016,14.2639463 23.5950623,14.9231107 22.2392845,15.1909807 C22.2392845,15.1909807 20.8480396,15.5535886 21.3039818,16.3279798 C21.3039818,16.3279798 21.6696339,17.4460698 22.6074047,18.4810827 C23.3225554,19.2703908 24.2961156,20.0485659 25.5370312,20.27058 C25.5370312,20.27058 26.1829047,20.3425849 26.2378902,20.8282316 C26.2928758,21.3138782 26.0185722,21.4876043 26.0185722,21.4876043 C26.0185722,21.4876043 25.3598066,22.0881573 23.2220097,22.3812959 L22.9925995,23.2744748 C22.9925995,23.2744748 22.8845673,24.0481412 21.7090302,23.7470701 C21.7090302,23.7470701 19.8980729,23.2910073 18.7060547,24.1874845 C17.5140364,25.0839617 16.8323364,25.3699338 16.8323364,25.3699338 C16.8323364,25.3699338 15.1185513,26.1635282 13.1877899,25.3699338 C13.1877899,25.3699338 12.4732781,25.0634839 11.3871967,24.2516839 C11.3871967,24.2516839 10.6363154,23.6633506 9.66872308,23.6395 C8.701072,23.6155907 8.16948661,23.7768463 8.16948661,23.7768463 C8.16948661,23.7768463 7.17798497,24.0635817 7.03464666,23.3408394 L6.79291012,22.3812952 C6.79291012,22.3812952 4.23813973,22.1550086 3.82057878,21.1375416 C3.82057878,21.1375416 3.44690051,20.5214806 4.41919246,20.2705798 C4.41919246,20.2705798 6.31125815,20.1046246 7.97727228,17.7444771 C7.97727228,17.7444771 8.60690343,16.9255688 8.80223125,16.0088499 C8.80223125,16.0088499 8.92248269,15.4753846 7.39716334,15.0846702 C5.87184399,14.6938971 6.04669976,13.7573757 6.04669976,13.7573757 C6.04669976,13.7573757 6.10955732,13.0140116 7.03464675,12.9124994 C7.03464675,12.9124994 7.45230055,12.9028826 7.94928074,13.0946178 C8.22527154,13.2010953 8.60009909,13.2607074 8.80223131,13.2532291 C8.96408118,13.2472412 8.92370605,12.9988098 8.92370605,12.9988098 L8.82290957,10.9464815 C8.82290957,10.9464815 8.44130069,7.43539782 11.3112391,5.54245095 C11.3112391,5.54245095 12.7271162,4.49972349 15.0584785,4.50130961 C15.0584785,4.50130961 18.7231741,4.37148653 20.3866901,7.36064706 Z" id="Icon" fill="#000000" fill-rule="nonzero"></path>
            <path d="M9.41627691,13.2094791 C9.36805327,13.4945233 9.17141004,13.7399127 8.82071722,13.7528873 C8.53271548,13.7635425 8.09013093,13.6848782 7.76930965,13.5611051 C7.59856504,13.4952318 7.42572656,13.4529285 7.26025713,13.4300446 C7.17466963,13.4182081 7.10718851,13.41342 7.06380889,13.4125416 C6.83816717,13.441643 6.7069397,13.5188031 6.62527545,13.6282445 C6.59206494,13.6727511 6.56860652,13.7214667 6.5539548,13.7694889 C6.5490532,13.7855543 6.54380368,13.8121059 6.53820625,13.8491438 C6.53916311,13.8543861 6.54131431,13.8908115 6.55249749,13.9360679 C6.57162659,14.0134799 6.61201531,14.0922521 6.68341833,14.17234 C6.83541945,14.3428295 7.10253704,14.4930419 7.52123387,14.6003083 C7.85436266,14.6856401 8.13571672,14.7827403 8.36979255,14.8910838 C9.05942817,15.2102861 9.34871115,15.6458634 9.29991354,16.0601331 C9.2092612,16.4978569 9.05949436,16.8841463 8.86192038,17.2641733 C8.68136822,17.6114594 8.50043673,17.8843462 8.38575396,18.0328219 C8.20229571,18.2927167 8.01134643,18.5344213 7.81358642,18.7584811 C7.10370843,19.5627645 6.33599116,20.1115882 5.56267894,20.4488582 C5.11603022,20.6436582 4.7520837,20.7355862 4.51044291,20.763788 C4.4066251,20.792949 4.3314112,20.8257791 4.2818995,20.8586812 C4.26418505,20.8794602 4.26459887,20.9091363 4.28314097,20.9477095 C4.37635807,21.1748508 4.78908755,21.4216865 5.42064088,21.6096013 C5.7286044,21.701234 6.0628295,21.7727435 6.39765862,21.8257237 C6.51524067,21.8443288 6.62421698,21.8592365 6.72152915,21.8707609 C6.77860489,21.8775202 6.81810942,21.8815696 6.83702448,21.883245 L7.19095781,21.9145944 L7.5194971,23.2186918 C7.53682657,23.3027277 7.55284244,23.3146937 7.65607918,23.3277228 C7.74314723,23.3387113 7.84984869,23.3319955 7.95434897,23.3129835 C7.99436568,23.3057031 8.02170583,23.2990951 8.0243435,23.2983764 C8.1034865,23.2743685 8.2385946,23.2429734 8.42723298,23.213113 C8.78292633,23.1568087 9.20217712,23.1278197 9.68104403,23.1396519 C10.1744419,23.1518138 10.6473263,23.2835962 11.0873647,23.4942205 C11.3634547,23.626371 11.5710641,23.7605497 11.6865447,23.8511957 C12.1445364,24.1935252 12.5662903,24.467807 12.9412112,24.6801837 C13.0703955,24.7533611 13.1838928,24.8133632 13.2803724,24.8609552 C13.3353264,24.8880633 13.3706053,24.9042949 13.3778729,24.9074747 C14.336904,25.301662 15.3075507,25.301662 16.1857394,25.0636925 C16.3125728,25.0293235 16.4249698,24.9928074 16.5210694,24.9568123 C16.5751984,24.9365378 16.6095329,24.9221006 16.6389168,24.9088603 C16.6506873,24.9039225 16.6832093,24.8890787 16.7358275,24.8630565 C16.8296901,24.816637 16.9423241,24.7564984 17.0730735,24.6813658 C17.454485,24.4621951 17.9003934,24.1677749 18.4055264,23.7878812 C18.7478751,23.5304122 19.1439829,23.3546789 19.5802747,23.2496886 C20.2078529,23.0986667 20.8618494,23.1014169 21.4774585,23.1947168 C21.6377221,23.2190058 21.7586984,23.2439667 21.833083,23.2627036 C22.2376493,23.3663186 22.4036966,23.322557 22.4747164,23.2335993 C22.4862872,23.219106 22.4951496,23.200373 22.5013036,23.1774003 L22.8212926,21.9315642 L23.1540844,21.8859312 C23.7882225,21.7989771 24.3218042,21.6796993 24.7629955,21.5372541 C25.0872426,21.4325662 25.3389801,21.3229786 25.5261418,21.2168605 C25.6242385,21.1612411 25.6734126,21.1256771 25.6817216,21.1181023 C25.7399362,21.0513064 25.7532608,20.9922034 25.7410645,20.8844828 C25.7395592,20.8711875 25.7258533,20.855385 25.6659995,20.8255058 C25.5959215,20.7905226 25.5163828,20.7713757 25.4816321,20.7675015 C24.2273838,20.5442083 23.1743315,19.8514683 22.2368739,18.8168012 C22.1679635,18.7407451 22.1008347,18.6630906 22.0354616,18.5839421 C21.6589796,18.1281273 21.3542388,17.6416205 21.1140113,17.1546793 C20.9841993,16.8915502 20.8961295,16.6772382 20.8455322,16.5328615 C20.4823777,15.8623901 20.8348028,15.3061984 21.4893835,14.9550446 C21.723163,14.8296322 21.9497841,14.7497311 22.1131796,14.7071444 C22.5425451,14.6213978 22.8518193,14.502675 23.0834109,14.3585444 C23.2190427,14.2741343 23.3156087,14.1889674 23.3806826,14.1094664 C23.4094232,14.074354 23.4188221,14.0585123 23.4227472,14.0502951 C23.4541755,13.9473382 23.4628422,13.8857258 23.4595397,13.8304805 C23.4524078,13.7111774 23.4022397,13.6153134 23.301918,13.5505539 C23.1319707,13.4408495 23.0774688,13.4220976 22.9480133,13.4105075 C22.8058009,13.4086918 22.7097553,13.4212942 22.6119399,13.4423303 C22.5505821,13.4555259 22.5046001,13.468218 22.4897026,13.4729731 C21.8522473,13.6862561 21.4546423,13.7629236 21.2214189,13.754229 C20.8624061,13.7678512 20.6377017,13.5183249 20.5822423,13.2170577 C20.5661991,13.1299074 20.5649873,13.0491858 20.5714773,12.9725828 C20.6534821,11.2793097 20.6615961,10.2417555 20.6279817,9.69945475 C20.622056,9.60385554 20.6170732,9.55864682 20.616184,9.55371814 C20.5635126,9.14586431 20.4522792,8.74515554 20.2970873,8.34697968 C20.2206901,8.15096736 20.1387824,7.96878871 20.0572143,7.80593578 C20.0093221,7.71031773 19.9732662,7.64419453 19.954951,7.61284003 C19.4654453,6.73347389 18.7660061,6.09932423 17.9002266,5.66422826 C17.315043,5.37014524 16.6839917,5.18201141 16.0468896,5.08072386 C15.8143933,5.04376122 15.5948808,5.02074781 15.3934524,5.00903475 C15.2609645,5.00133057 15.156393,4.99950316 15.0848097,5.00081151 C14.1049542,5.00066101 13.2462564,5.18262835 12.4963737,5.48549417 C12.2367501,5.59035205 12.0101395,5.70205345 11.8186735,5.81269167 C11.7084785,5.87636767 11.6374535,5.92316895 11.6077372,5.94505359 C10.8295932,6.4591001 10.2777617,7.10827342 9.90064038,7.87641744 C9.62039967,8.44722899 9.44764005,9.06100237 9.36357591,9.68699156 C9.30546793,10.1196966 9.29578491,10.5037316 9.31362561,10.8068397 C9.31628808,10.8520743 9.31875029,10.8811211 9.31998226,10.8924562 L9.42215112,12.9548788 C9.43095638,13.0444897 9.43075846,13.1238804 9.41627691,13.2094791 Z" id="Path" fill="#FFFFFF" fill-rule="nonzero"></path>
        </g>
    </g>
</svg>