<?xml version="1.0" encoding="UTF-8"?>
<svg width="32px" height="32px" viewBox="0 0 32 32" version="1.1" xmlns="http://www.w3.org/2000/svg" xmlns:xlink="http://www.w3.org/1999/xlink">
    <!-- Generator: Sketch 55.2 (78181) - https://sketchapp.com -->
    <title>source-tracks</title>
    <desc>Created with Sketch.</desc>
    <g id="source-tracks" stroke="none" stroke-width="1" fill="none" fill-rule="evenodd">
        <g id="tracks" transform="translate(1.000000, 1.000000)" fill="#FFFFFF">
            <path d="M0.0145,27.0005 L0.0145,3.0005 C0.0145,1.34364575 1.35764575,0.0005 3.0145,0.0005 L27.0145,0.0005 C28.6713542,0.0005 30.0145,1.34364575 30.0145,3.0005 L30.0145,27.0005 C30.0145,28.6545 28.6685,30.0005 27.0145,30.0005 L3.0145,30.0005 C1.3605,30.0005 0.0145,28.6545 0.0145,27.0005 Z M26.0120048,3.0005 L4.0145,3.0005 C3.46221525,3.0005 3.0145,3.44821525 3.0145,4.0005 L3.0145,26.0005 C3.0145,26.5527847 3.46221525,27.0005 4.0145,27.0005 L25.9571792,27.0005 C26.508491,27.0005 26.9558022,26.5543021 26.9571761,26.0029921 L27.0120017,4.00299206 C27.013378,3.45070903 26.5667799,3.00187943 26.0144969,3.00050311 C26.0136662,3.00050104 26.0128355,3.0005 26.0120048,3.0005 Z" id="Combined-Shape" fill-opacity="0.4"></path>
            <path d="M24.0024665,5.0005 L6.0145,5.0005 C5.46221525,5.0005 5.0145,5.44821525 5.0145,6.0005 L5.0145,9.0005 C5.0145,9.55278475 5.46221525,10.0005 6.0145,10.0005 L23.9665807,10.0005 C24.5142,10.0005 24.959959,9.56004122 24.9665091,9.01246109 L25.002395,6.01246109 C25.0090009,5.46021585 24.5666728,5.00717747 24.0144276,5.00057154 C24.0104407,5.00052385 24.0064536,5.0005 24.0024665,5.0005 Z" id="Combined-Shape-path"></path>
            <path d="M24.0024665,12.5 L6.0145,12.5 C5.46221525,12.5 5.0145,12.9477153 5.0145,13.5 L5.0145,16.5 C5.0145,17.0522847 5.46221525,17.5 6.0145,17.5 L23.9665807,17.5 C24.5142,17.5 24.959959,17.0595412 24.9665091,16.5119611 L25.002395,13.5119611 C25.0090009,12.9597159 24.5666728,12.5066775 24.0144276,12.5000715 C24.0104407,12.5000238 24.0064536,12.5 24.0024665,12.5 Z" id="Combined-Shape-path"></path>
            <path d="M24.0024665,20.0005 L6.0145,20.0005 C5.46221525,20.0005 5.0145,20.4482153 5.0145,21.0005 L5.0145,24.0005 C5.0145,24.5527847 5.46221525,25.0005 6.0145,25.0005 L23.9665807,25.0005 C24.5142,25.0005 24.959959,24.5600412 24.9665091,24.0124611 L25.002395,21.0124611 C25.0090009,20.4602159 24.5666728,20.0071775 24.0144276,20.0005715 C24.0104407,20.0005238 24.0064536,20.0005 24.0024665,20.0005 Z" id="Combined-Shape-path"></path>
        </g>
    </g>
</svg>