<?xml version="1.0" encoding="UTF-8"?>
<svg width="32px" height="32px" viewBox="0 0 32 32" version="1.1" xmlns="http://www.w3.org/2000/svg" xmlns:xlink="http://www.w3.org/1999/xlink">
    <!-- Generator: Sketch 55.2 (78181) - https://sketchapp.com -->
    <title>speed-6x</title>
    <desc>Created with Sketch.</desc>
    <g id="speed-6x" stroke="none" stroke-width="1" fill="none" fill-rule="evenodd">
        <path d="M12.315509,15 L14.8588941,11.962905 L16.9208611,9.5 L9.96130346,9.5 C9.24299886,9.5 8.57454747,9.63703254 7.97004798,9.91867434 C7.3564671,10.2045473 6.85771793,10.5861659 6.49779237,11.0769735 L4.95548147,13.1600245 C4.86540863,13.0090775 4.78737252,12.8523589 4.7233453,12.6912727 L1.19043767,3.78218182 C0.901393068,3.05418182 0.943045784,2.32872727 1.30403599,1.79036364 C1.63978212,1.28890909 2.22670676,1 2.91208326,1 L14.0391027,1 C15.3391723,1 16.7616757,2.01436364 17.2753925,3.31 L21.8095623,12.2190909 C22.0986069,12.9470909 22.0569542,13.6725455 21.695964,14.2109091 C21.3589557,14.7123636 20.7732932,15 20.0879167,15 L12.315509,15 Z M29.5002548,4 L20.5,4 C19.6715729,4 19,3.32842712 19,2.5 C19,1.67157288 19.6715729,1 20.5,1 L29.5002548,1 C30.3286819,1 31.0002548,1.67157288 31.0002548,2.5 C31.0002548,3.32842712 30.3286819,4 29.5002548,4 Z M25.5,12 L29.5002548,12 C30.3286819,12 31.0002548,12.6715729 31.0002548,13.5 C31.0002548,14.3284271 30.3286819,15 29.5002548,15 L25.5,15 C24.6715729,15 24,14.3284271 24,13.5 C24,12.6715729 24.6715729,12 25.5,12 Z M23.5,6.5 L29.5002548,6.5 C30.3286819,6.5 31.0002548,7.17157288 31.0002548,8 C31.0002548,8.82842712 30.3286819,9.5 29.5002548,9.5 L23.5,9.5 C22.6715729,9.5 22,8.82842712 22,8 C22,7.17157288 22.6715729,6.5 23.5,6.5 Z" id="Combined-Shape" fill-opacity="0.4" fill="#FFFFFF"></path>
        <path d="M9.44534963,18.2505092 C10.1604471,18.2505092 10.8664821,18.3681817 11.5634759,18.6035302 C12.2604697,18.8388788 12.8850391,19.200948 13.437203,19.6897488 C13.9893669,20.1785496 14.4351646,20.7963303 14.7746096,21.5431093 C15.1140547,22.2898883 15.2837746,23.1701692 15.2837746,24.1839783 C15.2837746,25.1072687 15.1117917,25.9830237 14.7678208,26.8112695 C14.4238498,27.6395153 13.9373193,28.3636538 13.3082145,28.9837067 C12.6791098,29.6037596 11.9210273,30.094816 11.0339443,30.4568907 C10.1468614,30.8189654 9.16474854,31 8.08757637,31 C6.98324861,31 5.99208405,30.8257542 5.11405295,30.4772573 C4.23602186,30.1287604 3.49151697,29.6422299 2.88051595,29.0176511 C2.26951494,28.3930722 1.80335078,27.6463044 1.4820095,26.7773252 C1.16066823,25.908346 1,24.9533883 1,23.9124236 C1,22.9257701 1.19008635,21.9436573 1.57026477,20.9660557 C1.95044318,19.988454 2.51165051,18.9927636 3.2539036,17.9789545 L7.70739986,11.964019 C7.90654094,11.692463 8.20524807,11.4639068 8.60353021,11.2783435 C9.00181236,11.0927802 9.45439891,11 9.96130346,11 L13.7087576,11 L7.84317719,18.00611 C7.75265852,18.1056805 7.66440414,18.2075125 7.57841141,18.311609 C7.49241867,18.4157054 7.40869016,18.5175374 7.32722335,18.6171079 C7.6440387,18.4994337 7.97668982,18.4089164 8.32518669,18.3455533 C8.67368357,18.2821902 9.04706748,18.2505092 9.44534963,18.2505092 Z M5.04616429,24.4826884 C5.04616429,24.9714892 5.10500054,25.4104982 5.22267481,25.7997284 C5.34034908,26.1889587 5.52138371,26.5238728 5.76578411,26.8044807 C6.01018452,27.0850885 6.31794338,27.3000671 6.68906993,27.4494229 C7.06019647,27.5987788 7.49920543,27.6734555 8.00610998,27.6734555 C8.44059959,27.6734555 8.84566456,27.59199 9.22131704,27.4290563 C9.59696952,27.2661227 9.92056891,27.0420924 10.1921249,26.7569586 C10.4636809,26.4718248 10.6786595,26.1369107 10.8370672,25.7522064 C10.9954749,25.367502 11.0746775,24.9488595 11.0746775,24.4962661 C11.0746775,23.9893616 11.0000007,23.536775 10.8506449,23.1384929 C10.7012891,22.7402107 10.4908364,22.4052967 10.2192804,22.1337407 C9.94772437,21.8621847 9.61959912,21.6539948 9.23489477,21.509165 C8.85019043,21.3643351 8.42249613,21.2919212 7.95179905,21.2919212 C7.5263613,21.2919212 7.13713686,21.366598 6.78411405,21.5159538 C6.43109124,21.6653096 6.12559532,21.8802883 5.86761711,22.1608961 C5.6096389,22.441504 5.40823788,22.7764181 5.26340801,23.1656483 C5.11857814,23.5548786 5.04616429,23.9938876 5.04616429,24.4826884 Z" id="6" fill="#FFFFFF"></path>
    </g>
</svg>