<?xml version="1.0" encoding="UTF-8"?>
<svg width="32px" height="32px" viewBox="0 0 32 32" version="1.1" xmlns="http://www.w3.org/2000/svg" xmlns:xlink="http://www.w3.org/1999/xlink">
    <!-- Generator: Sketch 55.2 (78181) - https://sketchapp.com -->
    <title>speed-4x</title>
    <desc>Created with Sketch.</desc>
    <g id="speed-4x" stroke="none" stroke-width="1" fill="none" fill-rule="evenodd">
        <path d="M15.8960309,15 L15.8960309,9.5 L9.57923086,9.5 L6.00671336,14.3022268 C5.44246631,13.8893503 4.97483811,13.3240038 4.7233453,12.6912727 L1.19043767,3.78218182 C0.901393068,3.05418182 0.943045784,2.32872727 1.30403599,1.79036364 C1.63978212,1.28890909 2.22670676,1 2.91208326,1 L14.0391027,1 C15.3391723,1 16.7616757,2.01436364 17.2753925,3.31 L21.8095623,12.2190909 C22.0986069,12.9470909 22.0569542,13.6725455 21.695964,14.2109091 C21.3589557,14.7123636 20.7732932,15 20.0879167,15 L15.8960309,15 Z M29.5002548,4 L20.5,4 C19.6715729,4 19,3.32842712 19,2.5 C19,1.67157288 19.6715729,1 20.5,1 L29.5002548,1 C30.3286819,1 31.0002548,1.67157288 31.0002548,2.5 C31.0002548,3.32842712 30.3286819,4 29.5002548,4 Z M25.5,12 L29.5002548,12 C30.3286819,12 31.0002548,12.6715729 31.0002548,13.5 C31.0002548,14.3284271 30.3286819,15 29.5002548,15 L25.5,15 C24.6715729,15 24,14.3284271 24,13.5 C24,12.6715729 24.6715729,12 25.5,12 Z M23.5,6.5 L29.5002548,6.5 C30.3286819,6.5 31.0002548,7.17157288 31.0002548,8 C31.0002548,8.82842712 30.3286819,9.5 29.5002548,9.5 L23.5,9.5 C22.6715729,9.5 22,8.82842712 22,8 C22,7.17157288 22.6715729,6.5 23.5,6.5 Z" id="Combined-Shape" fill-opacity="0.4" fill="#FFFFFF"></path>
        <path d="M14.3960309,23.2306108 L16.4550563,23.2306108 L16.4550563,25.6190803 C16.4550563,25.8295595 16.384135,26.0125822 16.2422903,26.1681537 C16.1004456,26.3237253 15.8968329,26.40151 15.6314461,26.40151 L14.3960309,26.40151 L14.3960309,31 L10.6897852,31 L10.6897852,26.40151 L2.6458593,26.40151 C2.38047248,26.40151 2.14025525,26.3191498 1.92520041,26.1544269 C1.71014557,25.989704 1.57516637,25.7838036 1.52025875,25.5367193 L1.081,23.4365134 L10.3328874,11 L14.3960309,11 L14.3960309,23.2306108 Z M10.6897852,18.0144132 C10.6897852,17.6941187 10.7012241,17.3486635 10.7241023,16.9780371 C10.7469804,16.6074106 10.7812972,16.2253509 10.8270535,15.8318463 L5.54222169,23.2306108 L10.6897852,23.2306108 L10.6897852,18.0144132 Z" id="4" fill="#FFFFFF"></path>
    </g>
</svg>