<?xml version="1.0" encoding="UTF-8"?>
<svg width="32px" height="32px" viewBox="0 0 32 32" version="1.1" xmlns="http://www.w3.org/2000/svg" xmlns:xlink="http://www.w3.org/1999/xlink">
    <!-- Generator: Sketch 55.2 (78181) - https://sketchapp.com -->
    <title>speed-8x</title>
    <desc>Created with Sketch.</desc>
    <g id="speed-8x" stroke="none" stroke-width="1" fill="none" fill-rule="evenodd">
        <path d="M15.6909942,15 C15.5883326,14.5024761 15.426389,14.0232013 15.2050921,13.5648005 C14.7991497,12.7239199 14.2287233,11.9934249 13.5035874,11.3833899 C12.797156,10.7890904 11.9692318,10.3266713 11.0286883,9.99503452 C10.08888,9.66365706 9.07205995,9.5 7.98455339,9.5 C6.89704684,9.5 5.88022674,9.66365706 4.94041852,9.99503452 C4.55514471,10.1308825 4.18876797,10.2886753 3.84189819,10.4684882 L1.19043767,3.78218182 C0.901393068,3.05418182 0.943045784,2.32872727 1.30403599,1.79036364 C1.63978212,1.28890909 2.22670676,1 2.91208326,1 L14.0391027,1 C15.3391723,1 16.7616757,2.01436364 17.2753925,3.31 L21.8095623,12.2190909 C22.0986069,12.9470909 22.0569542,13.6725455 21.695964,14.2109091 C21.3589557,14.7123636 20.7732932,15 20.0879167,15 L15.6909942,15 Z M29.5002548,4 L20.5,4 C19.6715729,4 19,3.32842712 19,2.5 C19,1.67157288 19.6715729,1 20.5,1 L29.5002548,1 C30.3286819,1 31.0002548,1.67157288 31.0002548,2.5 C31.0002548,3.32842712 30.3286819,4 29.5002548,4 Z M25.5,12 L29.5002548,12 C30.3286819,12 31.0002548,12.6715729 31.0002548,13.5 C31.0002548,14.3284271 30.3286819,15 29.5002548,15 L25.5,15 C24.6715729,15 24,14.3284271 24,13.5 C24,12.6715729 24.6715729,12 25.5,12 Z M23.5,6.5 L29.5002548,6.5 C30.3286819,6.5 31.0002548,7.17157288 31.0002548,8 C31.0002548,8.82842712 30.3286819,9.5 29.5002548,9.5 L23.5,9.5 C22.6715729,9.5 22,8.82842712 22,8 C22,7.17157288 22.6715729,6.5 23.5,6.5 Z" id="Combined-Shape" fill-opacity="0.4" fill="#FFFFFF"></path>
        <path d="M7.98455339,31 C6.94581974,31 5.99664634,30.8612058 5.1370047,30.5836132 C4.27736306,30.3060206 3.54085823,29.9142627 2.9274681,29.4083277 C2.31407797,28.9023928 1.83949127,28.2912505 1.50369375,27.5748825 C1.16789624,26.8585144 1,26.061567 1,25.1840161 C1,24.6556947 1.06044265,24.1564832 1.18132975,23.6863667 C1.30221686,23.2162502 1.49473788,22.7864358 1.75889859,22.3969107 C2.0230593,22.0073856 2.36332901,21.6604 2.77971793,21.3559436 C3.19610685,21.0514872 3.69979557,20.7962849 4.29079919,20.5903291 C3.39533915,20.1873721 2.73047005,19.6277179 2.29617193,18.9113499 C1.86187381,18.1949819 1.64472801,17.3353531 1.64472801,16.3324379 C1.64472801,15.5712968 1.80143116,14.8661326 2.11484218,14.2169241 C2.42825319,13.5677156 2.86702203,13.0058228 3.43116185,12.531229 C3.99530168,12.0566352 4.66464802,11.6827862 5.43922095,11.4096709 C6.21379389,11.1365556 7.06222955,11 7.98455339,11 C8.90687723,11 9.75531289,11.1365556 10.5298858,11.4096709 C11.3044588,11.6827862 11.9738051,12.0566352 12.5379449,12.531229 C13.1020848,13.0058228 13.5408536,13.5677156 13.8542646,14.2169241 C14.1676756,14.8661326 14.3243788,15.5712968 14.3243788,16.3324379 C14.3243788,17.3353531 14.1049944,18.1949819 13.6662189,18.9113499 C13.2274435,19.6277179 12.564813,20.1873721 11.6783076,20.5903291 C12.2603566,20.7962849 12.7595681,21.0514872 13.175957,21.3559436 C13.5923459,21.6604 13.9326156,22.0073856 14.1967764,22.3969107 C14.4609371,22.7864358 14.6556967,23.2162502 14.7810611,23.6863667 C14.9064255,24.1564832 14.9691068,24.6556947 14.9691068,25.1840161 C14.9691068,26.061567 14.8012105,26.8585144 14.465413,27.5748825 C14.1296155,28.2912505 13.6550288,28.9023928 13.0416387,29.4083277 C12.4282486,29.9142627 11.6917437,30.3060206 10.8321021,30.5836132 C9.97246044,30.8612058 9.02328704,31 7.98455339,31 Z M7.98455339,27.856951 C8.45019261,27.856951 8.85314359,27.7853152 9.1934184,27.6420416 C9.53369322,27.498768 9.81352028,27.3040084 10.032908,27.0577569 C10.2522957,26.8115054 10.4134761,26.5204852 10.516454,26.1846877 C10.6194319,25.8488902 10.6709201,25.4884729 10.6709201,25.1034251 C10.6709201,24.6825589 10.6261478,24.2975169 10.5366017,23.9482874 C10.4470557,23.599058 10.2993071,23.301322 10.0933512,23.0550705 C9.88739543,22.808819 9.6120456,22.616298 9.26729349,22.4775017 C8.92254137,22.3387054 8.49496561,22.2693083 7.98455339,22.2693083 C7.47414117,22.2693083 7.04656541,22.3387054 6.7018133,22.4775017 C6.35706118,22.616298 6.08171135,22.808819 5.87575554,23.0550705 C5.66979973,23.301322 5.52205104,23.599058 5.43250504,23.9482874 C5.34295903,24.2975169 5.2981867,24.6825589 5.2981867,25.1034251 C5.2981867,25.4884729 5.34967488,25.8488902 5.45265279,26.1846877 C5.55563069,26.5204852 5.71681108,26.8115054 5.93619879,27.0577569 C6.1555865,27.3040084 6.43317495,27.498768 6.76897246,27.6420416 C7.10476998,27.7853152 7.50995957,27.856951 7.98455339,27.856951 Z M7.98455339,19.0993956 C8.45019261,19.0993956 8.83075742,19.0232826 9.12625923,18.8710544 C9.42176105,18.7188262 9.65457717,18.5173507 9.82471457,18.2666219 C9.99485198,18.0158931 10.11126,17.7293502 10.1739422,17.4069846 C10.2366244,17.0846189 10.2679651,16.7533037 10.2679651,16.4130289 C10.2679651,16.1085725 10.22767,15.8130751 10.1470786,15.5265279 C10.0664872,15.2399807 9.9344088,14.987017 9.75083949,14.7676293 C9.56727018,14.5482416 9.32997683,14.3713909 9.03895232,14.2370719 C8.7479278,14.1027529 8.39646501,14.0355944 7.98455339,14.0355944 C7.56368717,14.0355944 7.20998576,14.1027529 6.92343855,14.2370719 C6.63689134,14.3713909 6.4018366,14.5482416 6.21826729,14.7676293 C6.03469799,14.987017 5.90261961,15.2399807 5.82202821,15.5265279 C5.7414368,15.8130751 5.70114171,16.1085725 5.70114171,16.4130289 C5.70114171,16.7533037 5.73248234,17.0846189 5.79516454,17.4069846 C5.85784674,17.7293502 5.9742548,18.0158931 6.14439221,18.2666219 C6.31452962,18.5173507 6.54734574,18.7188262 6.84284755,18.8710544 C7.13834936,19.0232826 7.51891417,19.0993956 7.98455339,19.0993956 Z" id="8" fill="#FFFFFF"></path>
    </g>
</svg>