<?xml version="1.0" encoding="UTF-8"?>
<svg width="32px" height="32px" viewBox="0 0 32 32" version="1.1" xmlns="http://www.w3.org/2000/svg" xmlns:xlink="http://www.w3.org/1999/xlink">
    <!-- Generator: Sketch 55.2 (78181) - https://sketchapp.com -->
    <title>speed-2x</title>
    <desc>Created with Sketch.</desc>
    <g id="speed-2x" stroke="none" stroke-width="1" fill="none" fill-rule="evenodd">
        <path d="M15.7427876,15 C15.6560687,14.6443817 15.5430931,14.2992284 15.4036472,13.9651233 C15.0280072,13.0651095 14.4818999,12.281668 13.7728793,11.6276706 C13.073852,10.9828911 12.2383605,10.4849052 11.2780421,10.1335319 C10.3264294,9.78534406 9.27652452,9.6145 8.13424324,9.6145 C7.08796115,9.6145 6.09785917,9.75547534 5.1682461,10.039979 C4.71632582,10.178287 4.28585876,10.351446 3.87788056,10.5592265 L1.19043767,3.78218182 C0.901393068,3.05418182 0.943045784,2.32872727 1.30403599,1.79036364 C1.63978212,1.28890909 2.22670676,1 2.91208326,1 L14.0391027,1 C15.3391723,1 16.7616757,2.01436364 17.2753925,3.31 L21.8095623,12.2190909 C22.0986069,12.9470909 22.0569542,13.6725455 21.695964,14.2109091 C21.3589557,14.7123636 20.7732932,15 20.0879167,15 L15.7427876,15 Z M29.5002548,4 L20.5,4 C19.6715729,4 19,3.32842712 19,2.5 C19,1.67157288 19.6715729,1 20.5,1 L29.5002548,1 C30.3286819,1 31.0002548,1.67157288 31.0002548,2.5 C31.0002548,3.32842712 30.3286819,4 29.5002548,4 Z M25.5,12 L29.5002548,12 C30.3286819,12 31.0002548,12.6715729 31.0002548,13.5 C31.0002548,14.3284271 30.3286819,15 29.5002548,15 L25.5,15 C24.6715729,15 24,14.3284271 24,13.5 C24,12.6715729 24.6715729,12 25.5,12 Z M23.5,6.5 L29.5002548,6.5 C30.3286819,6.5 31.0002548,7.17157288 31.0002548,8 C31.0002548,8.82842712 30.3286819,9.5 29.5002548,9.5 L23.5,9.5 C22.6715729,9.5 22,8.82842712 22,8 C22,7.17157288 22.6715729,6.5 23.5,6.5 Z" id="Combined-Shape" fill-opacity="0.4" fill="#FFFFFF"></path>
        <path d="M8.13424324,11.1145 C7.23333784,11.1145 6.391,11.2344354 5.60721622,11.4743099 C4.82342851,11.7141844 4.12748953,12.0785166 3.51937838,12.5673174 C2.91126723,13.0561182 2.40226331,13.66711 1.99235135,14.4003113 C1.58243939,15.1335125 1.30541514,15.993427 1.16127027,16.9800804 L3.37748649,17.3738347 C3.48559514,17.3919384 3.59144993,17.405516 3.69505405,17.4145679 C3.79865818,17.4236198 3.89550405,17.4281456 3.98559459,17.4281456 C4.36397486,17.4281456 4.66352142,17.3376283 4.88424324,17.156591 C5.10496507,16.9755536 5.28739568,16.6813724 5.43154054,16.2740384 C5.52163108,16.0296379 5.64099926,15.8033447 5.78964865,15.5951517 C5.93829804,15.3869588 6.11622419,15.2059242 6.32343243,15.0520424 C6.53064068,14.8981607 6.76487257,14.7759623 7.02613514,14.6854437 C7.2873977,14.594925 7.57568311,14.5496663 7.891,14.5496663 C8.65676959,14.5496663 9.22658372,14.7601191 9.60045946,15.1810309 C9.9743352,15.6019427 10.1612703,16.2061458 10.1612703,16.9936582 C10.1612703,17.4734071 10.1027123,17.9282566 9.98559459,18.3582203 C9.86847689,18.788184 9.69280297,19.2181412 9.45856757,19.6481049 C9.22433216,20.0780686 8.92703784,20.5148146 8.56667568,20.9583561 C8.20631351,21.4018976 7.78289432,21.8680617 7.29640541,22.3568625 L1.62072973,28.1002434 C1.35045811,28.3446438 1.16127081,28.6161957 1.05316216,28.9149073 C0.945053514,29.2136189 0.891,29.4942226 0.891,29.7567267 L0.891,31.1145 L14.7288378,31.1145 L14.7288378,28.6705081 C14.7288378,28.2631741 14.5982085,27.9350489 14.3369459,27.6861225 C14.0756834,27.4371962 13.7198311,27.3127349 13.2693784,27.3127349 L9.5937027,27.3127349 C9.17027716,27.3127349 8.71757899,27.3557306 8.23559459,27.4417234 C7.7536102,27.5277161 7.26487635,27.6431257 6.76937838,27.7879555 L10.6207297,23.8232576 C11.1432549,23.2891975 11.6364932,22.7619341 12.1004595,22.2414518 C12.5644257,21.7209695 12.9720793,21.1823914 13.3234324,20.6257016 C13.6747855,20.0690118 13.9518098,19.4829122 14.1545135,18.8673853 C14.3572172,18.2518583 14.4585676,17.5820302 14.4585676,16.8578809 C14.4585676,16.0160572 14.3121726,15.2443971 14.0193784,14.5428775 C13.7265841,13.8413578 13.3054172,13.2371547 12.7558649,12.7302502 C12.2063126,12.2233456 11.5419048,11.8273324 10.7626216,11.5421986 C9.98333845,11.2570648 9.10722108,11.1145 8.13424324,11.1145 Z" id="Combined-Shape" fill="#FFFFFF"></path>
    </g>
</svg>