<?xml version="1.0" encoding="UTF-8"?>
<svg width="32px" height="32px" viewBox="0 0 32 32" version="1.1" xmlns="http://www.w3.org/2000/svg" xmlns:xlink="http://www.w3.org/1999/xlink">
    <!-- Generator: Sketch 55.2 (78181) - https://sketchapp.com -->
    <title>text</title>
    <desc>Created with Sketch.</desc>
    <g id="text" stroke="none" stroke-width="1" fill="none" fill-rule="evenodd">
        <path d="M9.71428571,7.75 L9.71428571,9.125 C9.71428571,9.88419577 9.10647894,10.5 8.35714286,10.5 C7.60780678,10.5 7,9.88419577 7,9.125 L7,6.375 C7,5.61580423 7.60780678,5 8.35714286,5 L24.6428571,5 C25.3921932,5 26,5.61580423 26,6.375 L26,9.125 C26,9.88419577 25.3921932,10.5 24.6428571,10.5 C23.8935211,10.5 23.2857143,9.88419577 23.2857143,9.125 L23.2857143,7.75 L17.8571429,7.75 L17.8571429,24.25 L19.5535714,24.25 C20.3029075,24.25 20.9107143,24.8658042 20.9107143,25.625 C20.9107143,26.3841958 20.3029075,27 19.5535714,27 L13.4464286,27 C12.6970925,27 12.0892857,26.3841958 12.0892857,25.625 C12.0892857,24.8658042 12.6970925,24.25 13.4464286,24.25 L15.1428571,24.25 L15.1428571,7.75 L9.71428571,7.75 Z" id="Path" fill="#FFFFFF"></path>
    </g>
</svg>