<?xml version="1.0" encoding="UTF-8"?>
<svg width="32px" height="32px" viewBox="0 0 32 32" version="1.1" xmlns="http://www.w3.org/2000/svg" xmlns:xlink="http://www.w3.org/1999/xlink">
    <!-- Generator: Sketch 55.2 (78181) - https://sketchapp.com -->
    <title>tick-enclosed</title>
    <desc>Created with Sketch.</desc>
    <g id="tick-enclosed" stroke="none" stroke-width="1" fill="none" fill-rule="evenodd">
        <path d="M16,1 C7.729,1 1,7.729 1,16 C1,24.271 7.729,31 16,31 C24.271,31 31,24.271 31,16 C31,7.729 24.271,1 16,1" id="Combined-Shape" fill="#FFFFFF"></path>
        <path d="M22.8678736,11.1259435 L14.0124292,22.8512773 C13.7288311,23.242877 13.2910158,23.4880981 12.790458,23.528801 C12.7453527,23.5311007 12.7453527,23.5311007 12.7176237,23.5320215 C12.252825,23.532563 11.8365032,23.3628992 11.5232752,23.0519712 L8.3075271,19.8425317 C7.65543347,19.1934665 7.6550739,18.1329791 8.3064066,17.483009 C8.94786964,16.8428879 9.98107492,16.8428879 10.6241807,17.483009 L12.4830372,19.3379768 L20.2079108,9.16166722 C20.7614478,8.43246912 21.7982301,8.28348955 22.5346941,8.82732206 C23.2604587,9.36325376 23.4143488,10.3860607 22.8784171,11.1118254 C22.874928,11.1165504 22.8714134,11.1212565 22.8678736,11.1259435 Z" id="Fill-1235" fill="#FFFFFF"></path>
    </g>
</svg>