<?xml version="1.0" encoding="UTF-8"?>
<svg width="32px" height="32px" viewBox="0 0 32 32" version="1.1" xmlns="http://www.w3.org/2000/svg" xmlns:xlink="http://www.w3.org/1999/xlink">
    <!-- Generator: Sketch 55.2 (78181) - https://sketchapp.com -->
    <title>tick</title>
    <desc>Created with Sketch.</desc>
    <g id="tick" stroke="none" stroke-width="1" fill="none" fill-rule="evenodd">
        <path d="M30.1783121,2.03837967 C31.1821065,3.14611265 31.2820362,4.82393095 30.3922936,6.04345223 L13.2219848,29.6935403 C12.678832,30.4442099 11.8382128,30.9154628 10.8782632,30.9936409 C10.786993,30.9982892 10.786993,30.9982892 10.7353662,31 C9.84121259,31.0010288 9.0409708,30.6746147 8.44018319,30.0777063 L1.9341954,23.5786814 C0.689294927,22.3384554 0.688610205,20.3172228 1.93209155,19.0752342 C3.16338936,17.8454145 5.1516725,17.8454145 6.3861237,19.0752342 L10.2846902,22.9691205 L25.289911,2.30135498 C26.1700319,1.09230352 27.7651006,0.671546231 29.114216,1.26911961 C29.1772364,1.29703368 29.2393779,1.32703991 29.3005573,1.35910517 L29.6861477,1.59786602 L30.0529346,1.86258629 C30.0836448,1.93730048 30.1318324,1.98708718 30.1783121,2.03837967 Z" id="Fill-1235" fill="#FFFFFF"></path>
    </g>
</svg>