<?xml version="1.0" encoding="UTF-8"?>
<svg width="32px" height="32px" viewBox="0 0 32 32" version="1.1" xmlns="http://www.w3.org/2000/svg" xmlns:xlink="http://www.w3.org/1999/xlink">
    <!-- Generator: Sketch 55.2 (78181) - https://sketchapp.com -->
    <title>timeline-Go</title>
    <desc>Created with Sketch.</desc>
    <g id="timeline-Go" stroke="none" stroke-width="1" fill="none" fill-rule="evenodd">
        <path d="M30.3307689,17.5 C30.602913,17.5 30.8235294,17.7170444 30.8235294,17.9987723 L30.8235294,21.5012277 C30.8235294,21.776692 30.6006193,22 30.3307689,22 L1.49276051,22 C1.22061639,22 1,21.7829556 1,21.5012277 L1,17.9987723 C1,17.723308 1.2229101,17.5 1.49276051,17.5 L30.3307689,17.5 Z" id="Shape" fill="#00C389"></path>
        <path d="M9.32385701,10 C9.59981846,10 9.82352941,10.2170444 9.82352941,10.4987723 L9.82352941,14.0012277 C9.82352941,14.276692 9.60541849,14.5 9.32385701,14.5 L1.4996724,14.5 C1.22371095,14.5 1,14.2829556 1,14.0012277 L1,10.4987723 C1,10.223308 1.21811093,10 1.4996724,10 L9.32385701,10 Z M19.9120923,10 C20.1880538,10 20.4117647,10.2170444 20.4117647,10.4987723 L20.4117647,14.0012277 C20.4117647,14.276692 20.1936538,14.5 19.9120923,14.5 L12.0879077,14.5 C11.8119462,14.5 11.5882353,14.2829556 11.5882353,14.0012277 L11.5882353,10.4987723 C11.5882353,10.223308 11.8063462,10 12.0879077,10 L19.9120923,10 Z M30.5003276,10 C30.776289,10 31,10.2170444 31,10.4987723 L31,14.0012277 C31,14.276692 30.7818891,14.5 30.5003276,14.5 L22.676143,14.5 C22.4001815,14.5 22.1764706,14.2829556 22.1764706,14.0012277 L22.1764706,10.4987723 C22.1764706,10.223308 22.3945815,10 22.676143,10 L30.5003276,10 Z" id="Shape" fill="#72ADFE"></path>
    </g>
</svg>