<?xml version="1.0" encoding="UTF-8"?>
<svg width="32px" height="32px" viewBox="0 0 32 32" version="1.1" xmlns="http://www.w3.org/2000/svg" xmlns:xlink="http://www.w3.org/1999/xlink">
    <!-- Generator: Sketch 55.2 (78181) - https://sketchapp.com -->
    <title>timeline-grey</title>
    <desc>Created with Sketch.</desc>
    <g id="timeline-grey" stroke="none" stroke-width="1" fill="none" fill-rule="evenodd">
        <path d="M13.5,15.5 L13.5,20.5 L2,20.5 C1.44771525,20.5 1,20.0522847 1,19.5 L1,16.5 C1,15.9477153 1.44771525,15.5 2,15.5 L13.5,15.5 Z M18.5,15.5 L30,15.5 C30.5522847,15.5 31,15.9477153 31,16.5 L31,19.5 C31,20.0522847 30.5522847,20.5 30,20.5 L18.5,20.5 L18.5,15.5 L18.5,15.5 Z M13.5,23.5 L13.5,28.5 L7,28.5 C6.44771525,28.5 6,28.0522847 6,27.5 L6,24.5 C6,23.9477153 6.44771525,23.5 7,23.5 L13.5,23.5 L13.5,23.5 Z M18.5,23.5 L27,23.5 C27.5522847,23.5 28,23.9477153 28,24.5 L28,27.5 C28,28.0522847 27.5522847,28.5 27,28.5 L18.5,28.5 L18.5,23.5 L18.5,23.5 Z M17.5,31 L14.5,31 L14.5,11.8349852 L13.8840509,11.5787816 C11.8451669,10.7307093 10.5,8.72743435 10.5,6.5 C10.5,3.46243389 12.9624339,1 16,1 C19.0375661,1 21.5,3.46243389 21.5,6.5 C21.5,8.72743435 20.1548331,10.7307093 18.1159491,11.5787816 L17.5,11.8349852 L17.5,31 Z" id="Combined-Shape" fill-opacity="0.4" fill="#FFFFFF"></path>
        <path d="M17.5,31 L14.5,31 L14.5,11.8349852 L13.8840509,11.5787816 C11.8451669,10.7307093 10.5,8.72743435 10.5,6.5 C10.5,3.46243389 12.9624339,1 16,1 C19.0375661,1 21.5,3.46243389 21.5,6.5 C21.5,8.72743435 20.1548331,10.7307093 18.1159491,11.5787816 L17.5,11.8349852 L17.5,31 Z" id="Path" fill="#FFFFFF"></path>
    </g>
</svg>