<?xml version="1.0" encoding="UTF-8"?>
<svg width="32px" height="32px" viewBox="0 0 32 32" version="1.1" xmlns="http://www.w3.org/2000/svg" xmlns:xlink="http://www.w3.org/1999/xlink">
    <!-- Generator: Sketch 55.2 (78181) - https://sketchapp.com -->
    <title>timeline-add</title>
    <desc>Created with Sketch.</desc>
    <g id="timeline-add" stroke="none" stroke-width="1" fill="none" fill-rule="evenodd">
        <path d="M14.5,25.4494914 C15.1352585,26.0977664 16.0206559,26.5 17,26.5 L17.5,26.5 L17.5,31 L14.5,31 L14.5,25.4494914 Z M14.5,20.5505086 L14.5,11.8349852 L13.8840509,11.5787816 C11.8451669,10.7307093 10.5,8.72743435 10.5,6.5 C10.5,3.46243389 12.9624339,1 16,1 C19.0375661,1 21.5,3.46243389 21.5,6.5 C21.5,8.72743435 20.1548331,10.7307093 18.1159491,11.5787816 L17.5,11.8349852 L17.5,19.5 L17,19.5 C16.0206559,19.5 15.1352585,19.9022336 14.5,20.5505086 Z M13.5,15.5 L13.5,20.5 L2,20.5 C1.44771525,20.5 1,20.0522847 1,19.5 L1,16.5 C1,15.9477153 1.44771525,15.5 2,15.5 L13.5,15.5 Z M13.5,28.5 L7,28.5 C6.44771525,28.5 6,28.0522847 6,27.5 L6,24.5 C6,23.9477153 6.44771525,23.5 7,23.5 L13.5,23.5 L13.5,28.5 Z" id="Combined-Shape" fill-opacity="0.4" fill="#FFFFFF"></path>
        <path d="M14.5,25.4494914 C15.1352585,26.0977664 16.0206559,26.5 17,26.5 L17.5,26.5 L17.5,31 L14.5,31 L14.5,25.4494914 Z M14.5,20.5505086 L14.5,11.8349852 L13.8840509,11.5787816 C11.8451669,10.7307093 10.5,8.72743435 10.5,6.5 C10.5,3.46243389 12.9624339,1 16,1 C19.0375661,1 21.5,3.46243389 21.5,6.5 C21.5,8.72743435 20.1548331,10.7307093 18.1159491,11.5787816 L17.5,11.8349852 L17.5,19.5 L17,19.5 C16.0206559,19.5 15.1352585,19.9022336 14.5,20.5505086 Z" id="Combined-Shape" fill-opacity="0.4" fill="#FFFFFF"></path>
        <path d="M25,29 L25,25 L29,25 C30.1045695,25 31,24.1045695 31,23 C31,21.8954305 30.1045695,21 29,21 L25,21 L25,17 C25,15.8954305 24.1045695,15 23,15 C21.8954305,15 21,15.8954305 21,17 L21,21 L17,21 C15.8954305,21 15,21.8954305 15,23 C15,24.1045695 15.8954305,25 17,25 L21,25 L21,29 C21,30.1045695 21.8954305,31 23,31 C24.1045695,31 25,30.1045695 25,29 Z" id="Path" fill="#FFFFFF"></path>
    </g>
</svg>