<?xml version="1.0" encoding="UTF-8"?>
<svg width="32px" height="32px" viewBox="0 0 32 32" version="1.1" xmlns="http://www.w3.org/2000/svg" xmlns:xlink="http://www.w3.org/1999/xlink">
    <!-- Generator: Sketch 55.2 (78181) - https://sketchapp.com -->
    <title>timeline-save</title>
    <desc>Created with Sketch.</desc>
    <g id="timeline-save" stroke="none" stroke-width="1" fill="none" fill-rule="evenodd">
        <path d="M13.5,15.5 L13.5,20.5 L2,20.5 C1.44771525,20.5 1,20.0522847 1,19.5 L1,16.5 C1,15.9477153 1.44771525,15.5 2,15.5 L13.5,15.5 Z" id="Path" fill-opacity="0.4" fill="#FFFFFF"></path>
        <path d="M13.5,23.5 L13.5,28.5 L7,28.5 C6.44771525,28.5 6,28.0522847 6,27.5 L6,24.5 C6,23.9477153 6.44771525,23.5 7,23.5 L13.5,23.5 L13.5,23.5 Z" id="Path" fill-opacity="0.4" fill="#FFFFFF"></path>
        <path d="M17.5,20.6530312 C17.1232458,20.8024166 16.7695148,21.0256502 16.4615574,21.3227271 C15.1794809,22.5595068 15.1794809,24.5993327 16.4615574,25.8361124 L17.5,26.8378659 L17.5,31 L14.5,31 L14.5,11.8349852 L13.8840509,11.5787816 C11.8451669,10.7307093 10.5,8.72743435 10.5,6.5 C10.5,3.46243389 12.9624339,1 16,1 C19.0375661,1 21.5,3.46243389 21.5,6.5 C21.5,8.72743435 20.1548331,10.7307093 18.1159491,11.5787816 L17.5,11.8349852 L17.5,20.6530312 Z" id="Combined-Shape" fill-opacity="0.4" fill="#FFFFFF"></path>
        <path d="M29.2578646,21.9268658 C28.8170221,21.9268658 28.3929491,22.0922064 28.0715121,22.4022867 L25.6645093,24.7242481 L25.6645093,14.6535735 C25.6645093,13.7349142 24.9037312,13 23.9735962,13 C23.0450333,13 22.2826831,13.7354157 22.2826831,14.6535735 L22.2826831,24.7236184 L19.877794,22.4022867 C19.2199786,21.7677125 18.1607907,21.7677125 17.5029753,22.4022867 C16.8323416,23.0492263 16.8323416,24.1096132 17.5029753,24.7565528 L22.5933981,29.6671267 L23.972974,31 L25.355908,29.6696948 L30.4463308,24.7565528 C31.1169645,24.1096132 31.1169645,23.0492263 30.4463308,22.4022867 C30.1249688,22.0922786 29.6989427,21.9268658 29.2578646,21.9268658 Z" id="Path" fill="#FFFFFF"></path>
    </g>
</svg>