<?xml version="1.0" encoding="UTF-8"?>
<svg width="32px" height="32px" viewBox="0 0 32 32" version="1.1" xmlns="http://www.w3.org/2000/svg" xmlns:xlink="http://www.w3.org/1999/xlink">
    <!-- Generator: Sketch 55.2 (78181) - https://sketchapp.com -->
    <title>toggle-selected-break</title>
    <desc>Created with Sketch.</desc>
    <g id="toggle-selected-break" stroke="none" stroke-width="1" fill="none" fill-rule="evenodd">
        <path d="M11.9649074,23 L2,23 C1.44771525,23 1,22.5522847 1,22 L1,18 C1,17.4477152 1.44771525,17 2,17 L22.3866046,17 L18.5139204,22.2103008 L18.3379945,22.0310042 C16.7705992,20.4376552 14.2328114,20.4376552 12.6694167,22.0310042 C12.3813627,22.3245774 12.1465274,22.6517105 11.9649074,23 Z" id="Combined-Shape" fill="#FFFFFF"></path>
        <path d="M30.9664535,12.3653216 C30.9420846,12.3460508 30.9174361,12.3270131 30.8925088,12.3082139 C29.1118753,10.9653254 26.5977919,11.334278 25.2648049,13.1276758 L23.8731539,15 L6,15 C5.44771525,15 5,14.5522847 5,14 L5,10 C5,9.44771525 5.44771525,9 6,9 L29.989982,9 C29.9933047,9 29.9966273,9.00001656 29.9999498,9.00004968 C30.5522071,9.00555474 30.9954374,9.45771048 30.9899323,10.0099678 L30.9664535,12.3653216 Z M25.989982,1 C25.9933047,1 25.9966273,1.00001656 25.9999498,1.00004968 C26.5522071,1.00555474 26.9954374,1.45771048 26.9899323,2.0099678 L26.9500592,6.0099678 C26.9445929,6.55833658 26.4985049,7 25.9501089,7 L2,7 C1.44771525,7 1,6.55228475 1,6 L1,2 C1,1.44771525 1.44771525,1 2,1 L25.989982,1 Z" id="Combined-Shape" fill-opacity="0.4" fill="#FFFFFF"></path>
        <path d="M22.0678414,31 C22.1166163,30.9390372 22.1637992,30.8764306 22.2093327,30.8122178 C23.8973502,28.5297015 25.3197693,26.6063117 26.5076883,25 L29.989982,25 C29.9933047,25 29.9966273,25.0000166 29.9999498,25.0000497 C30.5522071,25.0055547 30.9954374,25.4577105 30.9899323,26.0099678 L30.9500592,30.0099678 C30.9445929,30.5583366 30.4985049,31 29.9501089,31 L22.0678414,31 Z M15.827225,31 L6,31 C5.44771525,31 5,30.5522847 5,30 L5,26 C5,25.4477152 5.44771525,25 6,25 L11.5010538,25 C11.5237866,26.010368 11.9143328,27.0136921 12.6726319,27.7845434 L15.827225,31 Z" id="Combined-Shape" fill="#FFFFFF"></path>
        <path d="M26.46868,14.0224856 L18.6715659,24.5127056 L17.2673179,23.0815525 C16.2892049,22.0872445 14.7157087,22.0872445 13.7400933,23.0815525 C12.7526437,24.0879215 12.7533385,25.7276362 13.7419627,26.7326253 L17.1983395,30.2556862 C17.6768707,30.7408237 18.3115957,31.002312 19.0547706,31 C19.0794192,30.9988812 19.0794192,30.9988812 19.1157307,30.9969848 C19.8859606,30.933362 20.5532373,30.5544947 20.9857403,29.9445649 C27.3319625,21.3628345 30.5077383,17.0682977 30.5130678,17.0609545 C31.3296922,15.9315214 31.0952027,14.3398319 29.9893209,13.5058163 C28.8749819,12.6654227 27.3062332,12.8956434 26.46868,14.0224856 Z" id="Combined-Shape" fill="#FFFFFF"></path>
    </g>
</svg>