<?xml version="1.0" encoding="UTF-8"?>
<svg width="32px" height="32px" viewBox="0 0 32 32" version="1.1" xmlns="http://www.w3.org/2000/svg" xmlns:xlink="http://www.w3.org/1999/xlink">
    <!-- Generator: Sketch 55.2 (78181) - https://sketchapp.com -->
    <title>tool-settings</title>
    <desc>Created with Sketch.</desc>
    <g id="tool-settings" stroke="none" stroke-width="1" fill="none" fill-rule="evenodd">
        <path d="M29.3746286,14.1477365 C29.1913899,13.9844648 28.9696653,13.8650615 28.7264921,13.8029458 C28.3271474,13.6978195 27.896544,13.7604357 27.5373331,13.9773141 L26.418881,14.6530403 C26.092055,14.4367162 25.7286318,14.2254376 25.3265891,14.0174908 L25.3265891,12.5595147 C25.3265891,11.6997726 24.6311782,11 23.7705619,11 L19.5647719,11 C18.7041556,11 18.0087447,11.6997726 18.0087447,12.5595147 L18.0087447,13.8534374 C17.5150279,14.0564511 17.0935199,14.3073255 16.6646832,14.6383934 L15.4689746,13.9576406 C14.7273657,13.5343409 13.7845519,13.7908845 13.3556204,14.5290204 L11.2310219,18.1948316 C11.0243075,18.5487495 10.9661853,18.9746315 11.0710194,19.374879 C11.1772673,19.7742643 11.4350111,20.1140592 11.7873379,20.3224273 L12.9721604,21.0147634 C12.9307365,21.4927422 12.9296359,21.9679413 12.9689954,22.4430006 L11.7769331,23.1342861 C11.419413,23.3407566 11.1582927,23.683917 11.0526012,24.0843101 C10.986077,24.329062 10.9825049,24.5870518 11.0390179,24.8335886 L6.1520095,29.721 C5.5810095,30.291 4.8230095,30.606 4.0170095,30.606 C3.2110095,30.606 2.4530095,30.291 1.8830095,29.721 C1.3120095,29.15 0.998009496,28.391 1.0000095,27.583 C1.0020095,26.777 1.3180095,26.018 1.8890095,25.448 L14.0280095,13.321 C12.5140095,10.03 13.2070095,6.144 15.8060095,3.545 C17.4470095,1.904 19.6420095,1 21.9850095,1 C23.3700095,1 24.7460095,1.33 25.9640095,1.952 C26.1010095,2.023 26.1990095,2.152 26.2280095,2.303 C26.2570095,2.455 26.2150095,2.61 26.1130095,2.726 L22.5960095,6.76 L22.5960095,9.614 L24.8170095,9.614 L28.8460095,5.597 C28.9590095,5.484 29.1190095,5.431 29.2770095,5.457 C29.4350095,5.482 29.5710095,5.58 29.6440095,5.723 C31.0362313,8.44452738 30.8890583,11.6162919 29.3746286,14.1477365 Z" id="Combined-Shape" fill-opacity="0.4" fill="#FFFFFF"></path>
        <path d="M21.500524,24.6666667 C19.7544818,24.6666667 18.3333333,23.2468012 18.3333333,21.5 C18.3333333,19.7542466 19.7544818,18.3333333 21.500524,18.3333333 C23.2465663,18.3333333 24.6666667,19.7542466 24.6666667,21.5 C24.6666667,23.2468012 23.2465663,24.6666667 21.500524,24.6666667 M30.7209023,23.9993521 L28.9616321,22.9765593 C29.1006389,22.1406443 29.1006389,21.3192768 28.9605201,20.4855999 L30.7209023,19.462807 C30.9877954,19.3083809 31.0789838,18.9659579 30.9244083,18.6985099 L28.8215133,15.0336887 C28.7470056,14.9027622 28.6235676,14.8087638 28.4790005,14.7718358 C28.3344334,14.7337888 28.182082,14.7561694 28.0541957,14.8333824 L26.3705452,15.8505801 C25.8512158,15.4387773 25.1761987,15.0381648 24.3265891,14.6397903 L24.3265891,12.5595147 C24.3265891,12.2506626 24.0774889,12 23.7705619,12 L19.5647719,12 C19.2578449,12 19.0087447,12.2506626 19.0087447,12.5595147 L19.0087447,14.5648154 C17.9556291,14.8691914 17.3640161,15.3201602 16.7746272,15.8516992 L14.9742111,14.8266682 C14.7095421,14.6755993 14.3737017,14.7673597 14.2202381,15.0314506 L12.0962141,18.6962719 C12.0217065,18.8238412 12.0005774,18.9771482 12.0383873,19.121503 C12.0761971,19.2636198 12.1696097,19.386713 12.2963839,19.461688 L14.0467576,20.4844808 C13.9066388,21.3237529 13.9044147,22.1462395 14.0423094,22.9765593 L12.278591,23.9993521 C12.1507048,24.0732081 12.0572922,24.1963013 12.0194823,24.3395371 C11.9805604,24.4827728 12.0005774,24.6360799 12.073973,24.7647682 L14.176868,28.4295895 C14.3281074,28.6936804 14.6639479,28.7876789 14.9286168,28.638848 L16.770179,27.609341 C17.3528956,28.1352848 17.9433965,28.5918488 19.0087447,28.8973438 L19.0087447,30.4404853 C19.0087447,30.7493374 19.2578449,31 19.5647719,31 L23.7705619,31 C24.0774889,31 24.3265891,30.7493374 24.3265891,30.4404853 L24.3265891,28.8223688 C25.1761987,28.4251134 25.8512158,28.0245009 26.3727693,27.61046 L28.0530836,28.6287767 C28.1809699,28.7059898 28.3344334,28.7283703 28.4790005,28.6914424 C28.6235676,28.6545144 28.7470056,28.5593969 28.8215133,28.4295895 L30.9255203,24.7647682 C31.0789838,24.4962012 30.9877954,24.1548972 30.7209023,23.9993521" id="Combined-Shape" fill="#FFFFFF"></path>
    </g>
</svg>