<?xml version="1.0" encoding="UTF-8"?>
<svg width="32px" height="32px" viewBox="0 0 32 32" version="1.1" xmlns="http://www.w3.org/2000/svg" xmlns:xlink="http://www.w3.org/1999/xlink">
    <!-- Generator: Sketch 55.2 (78181) - https://sketchapp.com -->
    <title>tracks</title>
    <desc>Created with Sketch.</desc>
    <g id="tracks" stroke="none" stroke-width="1" fill="none" fill-rule="evenodd">
        <g transform="translate(1.000000, 1.000000)" fill="#FFFFFF">
            <path d="M30,19 L30,23 L15.00051,30 L0,23 L0,19 L14.9955118,26 L30,19 Z M30,11 L30,15 L15.00051,22 L0,15 L0,11 L14.9955118,18 L30,11 Z" id="Combined-Shape" fill-opacity="0.4"></path>
            <path d="M0.3099,7.457 C0.1299,7.376 0.0149,7.197 0.0149,7 C0.0149,6.804 0.1299,6.624 0.3099,6.544 L14.8099,0.044 C14.9399,-0.014 15.0889,-0.014 15.2189,0.044 L29.7189,6.544 C29.8989,6.624 30.0149,6.804 30.0149,7 C30.0149,7.197 29.8989,7.376 29.7189,7.457 L15.2189,13.957 C15.1539,13.986 15.0839,14 15.0149,14 C14.9449,14 14.8749,13.986 14.8099,13.957 L0.3099,7.457 Z" id="Combined-Shape-path"></path>
        </g>
    </g>
</svg>