<?xml version="1.0" encoding="UTF-8"?>
<svg width="32px" height="32px" viewBox="0 0 32 32" version="1.1" xmlns="http://www.w3.org/2000/svg" xmlns:xlink="http://www.w3.org/1999/xlink">
    <!-- Generator: Sketch 55.2 (78181) - https://sketchapp.com -->
    <title>transition-add</title>
    <desc>Created with Sketch.</desc>
    <g id="transition-add" stroke="none" stroke-width="1" fill="none" fill-rule="evenodd">
        <path d="M24.1807187,8.76463236 C24.8507908,8.27750317 25.7888879,8.42580773 26.2760171,9.09587985 C26.7631462,9.76595198 26.6148417,10.704049 25.9364693,11.197084 L7.8878848,23.2174233 C7.21781267,23.7045525 6.27971565,23.5562479 5.79258646,22.8861758 C5.30545727,22.2161037 5.45376183,21.2780067 6.1321342,20.7849717 L24.1807187,8.76463236 Z" id="Combined-Shape" fill="#FFFFFF"></path>
        <path d="M3,1 L29.000012,1 C30.1045815,1 31.000012,1.8954305 31.000012,3 L31.000012,29.0001739 C31.000012,30.1047434 30.1045815,31.0001739 29.000012,31.0001739 L3,31.0001739 C1.8954305,31.0001739 1,30.1047434 1,29.0001739 L1,3 C1,1.8954305 1.8954305,1 3,1 Z M5,4 C4.44771525,4 4,4.44771525 4,5 L4,27 C4,27.5522847 4.44771525,28 5,28 L27,28 C27.5522847,28 28,27.5522847 28,27 L28,5 C28,4.44771525 27.5522847,4 27,4 L5,4 Z" id="Combined-Shape" fill-opacity="0.4" fill="#FFFFFF"></path>
    </g>
</svg>