<?xml version="1.0" encoding="UTF-8"?>
<svg width="32px" height="32px" viewBox="0 0 32 32" version="1.1" xmlns="http://www.w3.org/2000/svg" xmlns:xlink="http://www.w3.org/1999/xlink">
    <!-- Generator: Sketch 55.2 (78181) - https://sketchapp.com -->
    <title>truck</title>
    <desc>Created with Sketch.</desc>
    <g id="truck" stroke="none" stroke-width="1" fill="none" fill-rule="evenodd">
        <path d="M25,14.0060676 L25,6.53938698 C25,6.00146692 24.5552407,5.54545455 24.0066023,5.54545455 L7.99339768,5.54545455 C7.44494629,5.54545455 7,5.99045325 7,6.53938698 L7,14.0060676 C7,14.5439876 7.44475929,15 7.99339768,15 L24.0066023,15 C24.5550537,15 25,14.5550013 25,14.0060676 Z M21.495389,24 L23.504611,24 C23.7842474,24 24,23.7771727 24,23.5023012 L24,19.4976988 C24,19.2148437 23.7782068,19 23.504611,19 L21.495389,19 C21.2157526,19 21,19.2228273 21,19.4976988 L21,23.5023012 C21,23.7851562 21.2217932,24 21.495389,24 Z M8.49538898,24.0909091 L10.504611,24.0909091 C10.7842474,24.0909091 11,23.8640303 11,23.5841612 L11,19.5067479 C11,19.21875 10.7782068,19 10.504611,19 L8.49538898,19 C8.2157526,19 8,19.2268787 8,19.5067479 L8,23.5841612 C8,23.8721591 8.2217932,24.0909091 8.49538898,24.0909091 Z M26.9090909,6.14285714 L30.009705,6.14285714 C30.5622011,6.14285714 31,6.58625341 31,7.13321042 L31,11.4831997 C31,11.7592211 30.7760422,11.9809524 30.4997761,11.9809524 L28.7729511,11.9809524 C28.4867318,11.9809524 28.2727273,11.7597711 28.2727273,11.4869303 L28.2727273,7.52380952 L26.9090909,7.52380952 L26.9090909,26.5809524 C26.9090909,27.654781 25.7876364,28.7904762 24.7272727,28.7904762 L24.7272727,30.447619 C24.7272727,30.7525333 24.4829091,31 24.1818182,31 L19.9090909,31 C19.608,31 19.3636364,30.7525333 19.3636364,30.447619 L19.3636364,28.7904762 L12.6363636,28.7904762 L12.6363636,30.447619 C12.6363636,30.7525333 12.392,31 12.0909091,31 L7.81818182,31 C7.51709091,31 7.27272727,30.7525333 7.27272727,30.447619 L7.27272727,28.7904762 C6.21236364,28.7904762 5.09090909,27.654781 5.09090909,26.5809524 L5.09090909,7.52380952 L3.72727273,7.52380952 L3.72727273,11.4869303 C3.72727273,11.7659751 3.50331488,11.9809524 3.22704887,11.9809524 L1.50022385,11.9809524 C1.21400452,11.9809524 1,11.7581009 1,11.4831997 L1,7.13321042 C1,6.58166315 1.44337016,6.14285714 1.99029498,6.14285714 L5.09090909,6.14285714 L5.09090909,3.00308902 C5.09090909,1.89581735 5.98367909,1 7.0849667,1 L24.9150333,1 C26.0131163,1 26.9090909,1.8968135 26.9090909,3.00308902 L26.9090909,6.14285714 Z" id="Shape" fill="#FFFFFF"></path>
    </g>
</svg>