<?xml version="1.0" encoding="UTF-8"?>
<svg width="32px" height="32px" viewBox="0 0 32 32" version="1.1" xmlns="http://www.w3.org/2000/svg" xmlns:xlink="http://www.w3.org/1999/xlink">
    <!-- Generator: Sketch 55.2 (78181) - https://sketchapp.com -->
    <title>un-sorted</title>
    <desc>Created with Sketch.</desc>
    <g id="un-sorted" stroke="none" stroke-width="1" fill="none" fill-rule="evenodd">
        <path d="M21.9036032,17.1640045 L19.221499,14.4818871 C17.9144358,13.1714533 15.7878426,13.1725557 14.4790419,14.484724 C13.1724058,15.7913643 13.1735039,17.9131092 14.4818707,19.2214876 L17.2193549,21.9589853 L16.3837594,22.8143337 C16.2672607,22.9326006 16.1098636,23 15.9450304,23 C15.7801972,23 15.6228,22.9313289 15.5063014,22.8117904 L3.17975169,10.0847488 C3.00376435,9.90162594 2.95171176,9.62948497 3.04714151,9.39167953 C3.14381061,9.15514579 3.36937185,9 3.61972003,9 L28.3806426,9 C28.6309908,9 28.8577914,9.15514579 28.9532211,9.39295122 C29.0486509,9.63075665 28.995359,9.90416932 28.8181323,10.0860205 L21.9036032,17.1640045 Z" id="Combined-Shape" fill-opacity="0.4" fill="#FFFFFF"></path>
        <path d="M18.1608375,28.4576951 C17.8132511,28.8052846 17.3425797,29 16.8516871,29 C16.3607945,29 15.890123,28.8052846 15.5425357,28.4576942 C14.8194002,27.7345524 14.8194009,26.56255 15.5425379,25.8394067 L19.3818051,22.0001206 L15.5425356,18.1608321 C14.8196451,17.4379352 14.8191557,16.265932 15.541064,15.5440205 C16.2640724,14.8191518 17.438813,14.8186605 18.1608362,15.5425447 L22.0000923,19.3818196 L25.8378741,15.5440205 C26.5608829,14.8191514 27.7356237,14.8186608 28.4576484,15.5425468 C29.180784,16.2656886 29.1807833,17.4376912 28.4576463,18.1608344 L24.6183791,22.0001206 L28.4576474,25.8394078 C29.1807834,26.5625499 29.180784,27.7345526 28.4576488,28.4576939 C28.1100614,28.8052845 27.6393898,29 27.1484971,29 C26.6576049,29 26.1869332,28.8052849 25.839348,28.4576964 L22.0000921,24.6184217 L18.1608375,28.4576951 Z" id="Path" fill="#FFFFFF"></path>
    </g>
</svg>