<?xml version="1.0" encoding="UTF-8"?>
<svg width="32px" height="32px" viewBox="0 0 32 32" version="1.1" xmlns="http://www.w3.org/2000/svg" xmlns:xlink="http://www.w3.org/1999/xlink">
    <!-- Generator: Sketch 57.1 (83088) - https://sketch.com -->
    <title>user-menubar</title>
    <desc>Created with Sketch.</desc>
    <g id="user-menubar" stroke="none" stroke-width="1" fill="none" fill-rule="evenodd">
        <path d="M16,31 C7.71572875,31 1,24.2842712 1,16 C1,7.71572875 7.71572875,1 16,1 C24.2842712,1 31,7.71572875 31,16 C31,24.2842712 24.2842712,31 16,31 Z M25.7734375,24.7679687 C27.9446875,22.3548437 29.1390625,19.2573437 29.1390625,16.0004687 C29.1390625,8.76296875 23.250625,2.87546875 16.0140625,2.87546875 C8.7765625,2.87546875 2.8890625,8.76296875 2.8890625,16.0004687 C2.8890625,19.2601562 4.0834375,22.3595312 6.2546875,24.7717187 C7.3825,24.1042187 9.0446875,23.5567187 10.8015625,22.9829687 C11.5965625,22.7232812 12.4159375,22.4560937 13.1809375,22.1757812 L13.1809375,19.8385937 C12.6221875,19.5151562 11.5234375,18.5982812 11.4165625,16.3614062 C10.96375,16.1335937 10.6759375,15.5617187 10.6759375,14.8182812 C10.6759375,14.1282812 10.924375,13.5864062 11.321875,13.3295312 L11.3078125,13.2789062 C11.0359375,12.3114062 10.530625,10.5114062 11.2534375,9.55703125 C11.47375,9.26734375 11.9321875,8.91859375 12.7525,8.98328125 C13.3853125,7.71765625 15.32125,7.25734375 16.9,7.25734375 C18.6371875,7.25734375 20.80375,7.81421875 21.1965625,9.38546875 C21.540625,10.7617187 21.0175,12.3967187 20.7371875,13.2742187 C20.7296875,13.2948437 20.723125,13.3154687 20.7165625,13.3370312 C21.1075,13.5957812 21.3521875,14.1348437 21.3521875,14.8182812 C21.3521875,15.2054687 21.2659375,15.5748437 21.11125,15.8570312 C20.9846875,16.0857812 20.8121875,16.2564062 20.6115625,16.3595312 C20.5046875,18.5982812 19.4059375,19.5151562 18.84625,19.8385937 L18.84625,22.1757812 C19.6740625,22.4823437 20.5778125,22.8020312 21.45625,23.1132812 C23.7803125,23.9345312 25.11625,24.4220312 25.7734375,24.7679687 Z" id="Combined-Shape" fill="#FFFFFF"></path>
    </g>
</svg>