<?xml version="1.0" encoding="UTF-8"?>
<svg width="32px" height="32px" viewBox="0 0 32 32" version="1.1" xmlns="http://www.w3.org/2000/svg" xmlns:xlink="http://www.w3.org/1999/xlink">
    <!-- Generator: Sketch 55.2 (78181) - https://sketchapp.com -->
    <title>vertically-align</title>
    <desc>Created with Sketch.</desc>
    <g id="vertically-align" stroke="none" stroke-width="1" fill="none" fill-rule="evenodd">
        <path d="M10.101832,23.601832 C10.101832,26.8593002 12.7425318,29.5 16,29.5 C19.2574682,29.5 21.898168,26.8593002 21.898168,23.601832 L21.898168,8.398168 C21.898168,5.14069976 19.2574682,2.5 16,2.5 C12.7425318,2.5 10.101832,5.14069976 10.101832,8.398168 L10.101832,23.601832 Z M8.601832,8.398168 C8.601832,4.31227264 11.9141046,1 16,1 C20.0858954,1 23.398168,4.31227264 23.398168,8.398168 L23.398168,23.601832 C23.398168,27.6877274 20.0858954,31 16,31 C11.9141046,31 8.601832,27.6877274 8.601832,23.601832 L8.601832,8.398168 Z M16.601832,20.398168 L15.398168,20.398168 C12.9691269,20.398168 11,18.4290411 11,16 C11,13.5709589 12.9691269,11.601832 15.398168,11.601832 L16.601832,11.601832 C19.0308731,11.601832 21,13.5709589 21,16 C21,18.4290411 19.0308731,20.398168 16.601832,20.398168 Z M18.5,15.8818742 C18.5,16.2737196 18.8295964,16.601832 19.2500026,16.601832 C19.6704089,16.601832 20,16.2737196 20,15.8818742 C20,14.0789945 18.5167043,12.6023535 16.678511,12.601832 L15.7497897,12.6027371 C15.3294111,12.6016647 14.9989993,12.9305941 15,13.323654 C14.9990424,13.5091713 15.0748427,13.6884226 15.2095718,13.8225471 C15.3490553,13.9614049 15.5425318,14.0426527 15.7500053,14.0426527 L16.6785963,14.0417476 C17.675783,14.0421115 18.5,14.862636 18.5,15.8818742 Z" id="Shape" fill="#FFFFFF"></path>
    </g>
</svg>