<?xml version="1.0" encoding="UTF-8"?>
<svg width="32px" height="32px" viewBox="0 0 32 32" version="1.1" xmlns="http://www.w3.org/2000/svg" xmlns:xlink="http://www.w3.org/1999/xlink">
    <!-- Generator: Sketch 55.2 (78181) - https://sketchapp.com -->
    <title>view-list copy</title>
    <desc>Created with Sketch.</desc>
    <g id="view-list-copy" stroke="none" stroke-width="1" fill="none" fill-rule="evenodd">
        <g id="icon" transform="translate(1.000000, 1.000000)" fill="#FFFFFF">
            <path d="M29.9949989,25.3152911 L29.9949989,30 L25.3062904,30 C27.2726897,28.9085105 28.9018728,27.2806607 29.9949989,25.3152911 Z M13.6930298,30 L0,30 L0,24 L8.37488042,24 C9.4113568,26.5544211 11.3029909,28.6733879 13.6930298,30 Z M29.9949989,0 L29.9949989,6 L0,6 L0,0 L29.9949989,0 Z M29.9949989,13.6847089 C29.6644755,13.0904494 29.2849432,12.5270475 28.8618988,12 L29.9949989,12 L29.9949989,13.6847089 Z M7.59350881,17.9974995 L0,17.9974995 L0,12 L10.1375811,12 C8.78380213,13.6867949 7.87576142,15.7460028 7.59350881,17.9974995 Z" id="Combined-Shape" fill-opacity="0.4"></path>
            <path d="M19.5,9 C25.2895385,9 30,13.7104615 30,19.5 C30,25.2895385 25.2895385,30 19.5,30 C13.7088462,30 9,25.2895385 9,19.5 C9,13.7104615 13.7088462,9 19.5,9 Z M20.8076923,24.5916923 L20.8076923,20.8076923 L24.5916923,20.8076923 C25.3136809,20.8076923 25.8993846,20.2219886 25.8993846,19.5 C25.8993846,18.7780114 25.3136809,18.1923077 24.5916923,18.1923077 L20.8076923,18.1923077 L20.8076923,14.4083077 C20.8076923,13.6863191 20.2219886,13.1006154 19.5,13.1006154 C18.7780114,13.1006154 18.1923077,13.6863191 18.1923077,14.4083077 L18.1923077,18.1923077 L14.4066923,18.1923077 C13.6847038,18.1923077 13.099,18.7780115 13.099,19.5 C13.099,20.2219885 13.6847038,20.8076923 14.4066923,20.8076923 L18.1923077,20.8076923 L18.1923077,24.5916923 C18.1923077,25.3148932 18.7776075,25.8993846 19.5,25.8993846 C20.2223925,25.8993846 20.8076923,25.3148932 20.8076923,24.5916923 Z" id="Combined-Shape"></path>
        </g>
    </g>
</svg>