<?xml version="1.0" encoding="UTF-8"?>
<svg width="32px" height="32px" viewBox="0 0 32 32" version="1.1" xmlns="http://www.w3.org/2000/svg" xmlns:xlink="http://www.w3.org/1999/xlink">
    <!-- Generator: Sketch 55.2 (78181) - https://sketchapp.com -->
    <title>warning-triangle</title>
    <desc>Created with Sketch.</desc>
    <g id="warning-triangle" stroke="none" stroke-width="1" fill="none" fill-rule="evenodd">
        <path d="M30.86571,29.9104811 C30.9504561,30.0199992 31,30.1568967 31,30.3068321 C31,30.6666771 30.7079519,30.9587252 30.3481069,30.9587252 C30.3441955,30.9587252 30.3389804,30.9574214 30.335069,30.9587252 L1.65177265,30.9587252 C1.42621764,30.9587252 1.21630806,30.8413845 1.09766352,30.6484241 C0.979018974,30.4567675 0.967284899,30.2168709 1.06898022,30.014784 L15.4106284,1.33148764 C15.6309683,0.88950412 16.3558734,0.88950412 16.5762133,1.33148764 L30.86571,29.9104811 Z M16.067962,28.259206 C17.2423659,28.2387519 18.181251,27.2666179 18.1607789,26.0928803 C18.1401897,24.9313056 17.1816621,24 16.0018687,24 C15.4273794,24.0085696 14.8937235,24.2406134 14.498561,24.6494023 C14.1034702,25.0581168 13.8901448,25.5986009 13.9003495,26.1666625 C13.920837,27.3224975 14.8739453,28.2592818 16.0305619,28.2592818 L16.067962,28.259206 Z M14.1284447,10.9021172 L14.1284447,20.0317581 C14.1284447,21.0820827 14.9802372,21.9338753 16.0305619,21.9338753 C17.0808865,21.9338753 17.9326791,21.0820827 17.9326791,20.0317581 L17.9326791,10.9021172 C17.9326791,9.85179257 17.0808865,9 16.0305619,9 C14.9802372,9 14.1284447,9.85179257 14.1284447,10.9021172 Z" id="Combined-Shape" fill="#FFFFFF"></path>
    </g>
</svg>