<?xml version="1.0" encoding="UTF-8"?>
<svg width="32px" height="32px" viewBox="0 0 32 32" version="1.1" xmlns="http://www.w3.org/2000/svg" xmlns:xlink="http://www.w3.org/1999/xlink">
    <!-- Generator: Sketch 55.2 (78181) - https://sketchapp.com -->
    <title>warning</title>
    <desc>Created with Sketch.</desc>
    <g id="warning" stroke="none" stroke-width="1" fill="none" fill-rule="evenodd">
        <g id="Group" transform="translate(1.000000, 1.000000)" fill="#FFFFFF" fill-opacity="0.4">
            <path d="M15.2526407,0 L14.9878811,0.00130423441 C10.9695349,0.0717328928 7.18855931,1.69550474 4.34141558,4.57395009 C1.47470834,7.47195896 -0.0668967391,11.2672811 0.00222768489,15.2608469 C0.146997705,23.5270846 6.62252157,30 14.7452935,30 L15.0113573,29.9986958 C19.0297036,29.9282671 22.8106791,28.3057995 25.6578229,25.4273541 C28.5245301,22.528041 30.0648309,18.7327189 29.9957065,14.7391531 C29.8522407,6.4729154 23.3767169,0 15.2526407,0 L15.2526407,0 Z" id="Combined-Shape"></path>
        </g>
        <path d="M16.003173,21.9675898 L16.0093754,21.9675334 C16.0083413,21.9675489 16.0073076,21.9675659 16.006274,21.9675842 C16.0052413,21.9675911 16.0042073,21.9675898 16.003173,21.9675898 Z M16.067962,25.2267958 L16.0305619,25.2268716 C14.8739453,25.2268716 13.920837,24.2900873 13.9003495,23.1342523 C13.8901448,22.5661907 14.1034702,22.0257066 14.498561,21.616992 C14.8937235,21.2082032 15.4273794,20.9761594 16.0018687,20.9675898 C17.1816621,20.9675898 18.1401897,21.8988954 18.1607789,23.06047 C18.181251,24.2342077 17.2423659,25.2063417 16.067962,25.2267958 Z M14.1284447,7.90211721 C14.1284447,6.85179257 14.9802372,6 16.0305619,6 C17.0808865,6 17.9326791,6.85179257 17.9326791,7.90211721 L17.9326791,17.0317581 C17.9326791,18.0820827 17.0808865,18.9338753 16.0305619,18.9338753 C14.9802372,18.9338753 14.1284447,18.0820827 14.1284447,17.0317581 L14.1284447,7.90211721 Z" id="Combined-Shape" fill="#FFFFFF" fill-rule="nonzero"></path>
    </g>
</svg>