<?xml version="1.0" encoding="UTF-8"?>
<svg width="32px" height="32px" viewBox="0 0 32 32" version="1.1" xmlns="http://www.w3.org/2000/svg" xmlns:xlink="http://www.w3.org/1999/xlink">
    <!-- Generator: Sketch 57.1 (83088) - https://sketch.com -->
    <title>web</title>
    <desc>Created with Sketch.</desc>
    <g id="web" stroke="none" stroke-width="1" fill="none" fill-rule="evenodd">
        <g id="worl-wide-web" transform="translate(0.014200, 1.000100)">
            <path d="M15.9928128,-9.99999993e-05 C7.729,-9.99999993e-05 1,6.729 1,15 C1,23.2686586 7.7251907,29.99619 15.992976,29.9999984 C7.70152875,29.9999984 0.9858,23.2841712 0.9858,14.9999 C0.9858,6.71562875 7.70152875,-9.99999993e-05 15.9858,-9.99999993e-05 L15.9928128,-9.99999993e-05 Z M18.3508681,0.185792824 L18.4489404,0.201159564 C21.7238855,0.742181833 24.6409511,2.34402693 26.835362,4.64191964 L26.97,4.7863859 L26.99075,4.894875 C26.99625,4.93075 27,4.966 27,5 C27,6.119 26.087,8.696 23.566,9.957 C21.044,9.327 18.522,11.218 19.153,11.218 C19.784,11.218 20.413,13.74 20.413,13.74 C21.044,14.37 22.305,13.74 22.305,13.74 C22.6703211,14.1053211 22.7308177,14.5383989 22.6081785,14.9960507 L16.0047358,12.611464 C15.3262623,12.3702097 14.5746644,12.53283 14.0628052,13.0334807 C13.551949,13.5294068 13.371141,14.2787671 13.5946853,14.9568516 L16.84367,24.7036135 C15.9834172,25.087 15.0521457,25.087 14.74,25.087 C14.109,25.087 12.848,22.566 12.848,21.935 C12.848,21.305 13.479,20.675 13.479,20.044 C13.479,19.414 12.218,18.153 12.218,18.153 C12.218,15.631 10.326,16.262 8.435,16.262 C6.67441379,16.262 6.55299405,14.0758668 6.54462028,13.7743312 L6.54431715,13.7121842 C6.55081882,13.3376701 6.69060465,9.29765116 9.696,8.696 C12.848,8.066 12.848,9.327 12.848,9.327 C14.109,10.587 16.631,9.327 17.892,9.327 C17.892,9.327 18.522,4.914 17.261,5.544 C16,6.175 14.87,5.687 14.74,4.284 C14.556,2.312 20,1 21,1 C21.144,1 21.293,1.011 21.442,1.027 C20.4573333,0.642 19.4229861,0.356701389 18.3508681,0.185792824 Z M18.3508681,0.185792824 L17.9150029,0.122809992 C17.9926634,0.132781297 18.0701379,0.1433465 18.1474219,0.1545009 L18.3508681,0.185792824 L17.9150029,0.122809992 L18.3508681,0.185792824 Z M17.8801681,0.118456055 L17.6628434,0.0925986953 L17.8801681,0.118456055 L17.4437474,0.0698471834 L17.8801681,0.118456055 Z M17.3820687,0.0638105312 L17.0706912,0.0385319287 L17.36,0.0613858968 L17.226442,0.0504731334 L17.3820687,0.0638105312 Z M16.8448129,0.0237735738 L16.6875784,0.0160261063 L16.8448129,0.0237735738 L16.5299737,0.00958730352 L16.8448129,0.0237735738 Z M16.4363947,0.00633128408 L16.0108424,-7.95417199e-05 L16.352,0.0043858968 L16.2242497,0.00175689809 L16.4363947,0.00633128408 Z" id="Shape" fill-opacity="0.7" fill="#787F8B"></path>
            <path d="M15.4952691,14.0222948 L28.799648,18.8266539 C28.9186483,18.8695236 29.0073441,18.9707847 29.0354311,19.0942197 C29.062779,19.2176548 29.0250833,19.3462638 28.9356483,19.4356988 L25.8712064,22.5008799 L31.8921769,28.5218504 C32.0363077,28.6659812 32.0363077,28.9002861 31.8921769,29.0444169 L30.0443465,30.8922473 C29.9719116,30.9646822 29.8773027,31.0008997 29.7826938,31.0008997 C29.6880848,31.0008997 29.5942151,30.9646822 29.5217801,30.8922473 L23.486766,24.8579723 L20.0520189,27.949023 C19.9588882,28.032545 19.8310183,28.0635885 19.7105398,28.0318058 C19.5900613,28.0000231 19.4939741,27.909849 19.4540609,27.7915879 L15.019268,14.487209 C14.97492,14.3526869 15.0103984,14.2041214 15.1116595,14.1058168 C15.2129206,14.0067731 15.3622253,13.9749904 15.4952691,14.0222948 Z M16,0 C17.92,0 19.754,0.367 21.442,1.027 C21.293,1.011 21.144,1 21,1 C20,1 14.556,2.312 14.74,4.284 C14.87,5.687 16,6.175 17.261,5.544 C18.522,4.914 17.892,9.327 17.892,9.327 C16.631,9.327 14.109,10.587 12.848,9.327 L12.8475022,9.31644449 C12.8387904,9.19620088 12.6776216,8.10005405 9.696,8.696 C6.69060465,9.29765116 6.55081882,13.3376701 6.54431715,13.7121842 L6.54462028,13.7743312 C6.55299405,14.0758668 6.67441379,16.262 8.435,16.262 C10.326,16.262 12.218,15.631 12.218,18.153 C12.218,18.153 13.479,19.414 13.479,20.044 C13.479,20.675 12.848,21.305 12.848,21.935 C12.848,22.566 14.109,25.087 14.74,25.087 C15.0521457,25.087 15.9834172,25.087 16.84367,24.7036135 L18.031036,28.2659295 C18.233686,28.866407 18.7195234,29.3216885 19.3279239,29.4821868 C19.4492589,29.5141955 19.5721225,29.5335996 19.6947931,29.5408328 C18.5122024,29.8402467 17.2744055,30 16,30 C7.729,30 1,23.271 1,15 C1,6.729 7.729,0 16,0 Z M23.4324383,26.9248417 L24.1169296,27.6091512 C23.1277242,28.2481445 22.0588963,28.7739852 20.9289027,29.1682165 C20.9715268,29.1361045 21.0131813,29.1018893 21.0535058,29.0657253 L23.4324383,26.9248417 Z M27.9923988,22.500752 L29.9306893,20.5629773 C29.5711599,21.4600992 29.1273656,22.3146982 28.6091512,23.1169296 L27.9923988,22.500752 L29.9306893,20.5629773 L27.9923988,22.500752 Z M26.971,4.786 C29.468,7.466 31,11.057 31,15 C31,16.3180891 30.8291071,17.5970168 30.5083144,18.8157901 C30.5064751,18.8002494 30.5032944,18.7849931 30.4999178,18.7697526 C30.356787,18.1406205 29.9093834,17.6320685 29.3080376,17.4154345 L22.6083755,14.9953148 C22.7307528,14.5379347 22.6701253,14.1051253 22.305,13.74 C22.305,13.74 21.044,14.37 20.413,13.74 C20.413,13.74 19.784,11.218 19.153,11.218 C18.522,11.218 21.044,9.327 23.566,9.957 C26.087,8.696 27,6.119 27,5 C27,4.932 26.985,4.859 26.971,4.786 Z" id="Shape" fill="#FFFFFF"></path>
        </g>
    </g>
</svg>