<?xml version="1.0" encoding="UTF-8"?>
<svg width="32px" height="32px" viewBox="0 0 32 32" version="1.1" xmlns="http://www.w3.org/2000/svg" xmlns:xlink="http://www.w3.org/1999/xlink">
    <!-- Generator: Sketch 55.2 (78181) - https://sketchapp.com -->
    <title>wipe</title>
    <desc>Created with Sketch.</desc>
    <g id="wipe" stroke="none" stroke-width="1" fill="none" fill-rule="evenodd">
        <path d="M20.6013678,8.46316716 C20.04731,7.87435059 19.1204806,7.84287324 18.5284781,8.39209046 L11.4708157,14.9246249 C11.1707576,15.2016721 11,15.5916813 11,16.0000583 C11,16.4084071 11.1707366,16.7984244 11.4708151,17.0754912 L18.5284778,23.6080258 C19.1204222,24.1571896 20.047254,24.1258232 20.600514,23.5378545 C21.1604686,22.9457218 21.1281654,22.0098514 20.5283827,21.4575295 L14.6325324,16.0000584 L15.0289384,15.6331269 L20.5292155,10.5418197 C21.1281477,9.98945006 21.1602536,9.05416978 20.6013678,8.46316716 Z" id="Fill-408" fill="#FFFFFF"></path>
        <path d="M3,1 L29.000012,1 C30.1045815,1 31.000012,1.8954305 31.000012,3 L31.000012,29.0001739 C31.000012,30.1047434 30.1045815,31.0001739 29.000012,31.0001739 L3,31.0001739 C1.8954305,31.0001739 1,30.1047434 1,29.0001739 L1,3 C1,1.8954305 1.8954305,1 3,1 Z M5,4 C4.44771525,4 4,4.44771525 4,5 L4,27 C4,27.5522847 4.44771525,28 5,28 L27,28 C27.5522847,28 28,27.5522847 28,27 L28,5 C28,4.44771525 27.5522847,4 27,4 L5,4 Z" id="Combined-Shape" fill-opacity="0.4" fill="#FFFFFF"></path>
    </g>
</svg>