<?xml version="1.0" encoding="UTF-8"?>
<svg width="32px" height="32px" viewBox="0 0 32 32" version="1.1" xmlns="http://www.w3.org/2000/svg" xmlns:xlink="http://www.w3.org/1999/xlink">
    <!-- Generator: Sketch 57.1 (83088) - https://sketch.com -->
    <title>search/previous</title>
    <desc>Created with Sketch.</desc>
    <g id="search/previous" stroke="none" stroke-width="1" fill="none" fill-rule="evenodd">
        <path d="M12.2737115,1 C17.9675518,1 22.5977143,5.63020046 22.5977143,11.324079 C22.5977143,13.4289713 21.9616569,15.4404023 20.8025652,17.1359737 L30.4367648,26.7694226 C31.1877451,27.5204091 31.1877451,28.7371671 30.4367648,29.4881535 C30.0721164,29.852805 29.5832273,30.0502914 29.0778406,30.0502914 C28.572454,30.0502914 28.0835648,29.852805 27.7189165,29.4881535 L18.0848047,19.8539628 C17.0292715,20.5756312 15.8508304,21.0943977 14.6033521,21.3830289 L14.6031337,11.1194338 C14.6031337,9.20467649 13.0509162,7.65245899 11.1361589,7.65245899 C10.3823434,7.65245899 9.64906581,7.89814427 9.04741386,8.35229474 L9.04741386,8.35229474 L2.18710935,13.5314773 C2.03164056,12.8200967 1.94970862,12.0814989 1.94970862,11.324079 C1.94970862,5.63020046 6.57987112,1 12.2737115,1 Z M12.1173106,3.90502914 C16.1283188,3.90502914 19.3798834,7.15659376 19.3798834,11.167602 C19.3798834,14.3055163 17.3898176,16.9786259 14.6029366,17.9936799 L14.6031337,11.1194338 C14.6031337,9.20467649 13.0509162,7.65245899 11.1361589,7.65245899 C10.3823434,7.65245899 9.64906581,7.89814427 9.04741386,8.35229474 L9.04741386,8.35229474 L4.86273557,11.5114841 C4.85742341,11.3975234 4.85473775,11.2828763 4.85473775,11.167602 C4.85473775,7.15659376 8.10630238,3.90502914 12.1173106,3.90502914 Z" id="Combined-Shape" fill-opacity="0.4" fill="#FFFFFF"></path>
        <path d="M1.35930526,18.8096989 L10.5916993,25.7786718 C10.990058,26.0793685 11.5567543,26.0001979 11.8574511,25.6018392 C11.9758315,25.4450105 12.0398727,25.2538718 12.0398727,25.0573796 L12.0398727,11.1194338 C12.0398727,10.6203264 11.6352662,10.21572 11.1361589,10.21572 C10.9396667,10.21572 10.748528,10.2797612 10.5916993,10.3981416 L1.35930526,17.3671145 C0.960946597,17.6678113 0.88177596,18.2345076 1.1824727,18.6328663 C1.23293701,18.6997207 1.29245088,18.7592346 1.35930526,18.8096989 Z" id="Triangle" fill="#FFFFFF"></path>
    </g>
</svg>