<?xml version="1.0" encoding="UTF-8"?>
<svg width="32px" height="32px" viewBox="0 0 32 32" version="1.1" xmlns="http://www.w3.org/2000/svg" xmlns:xlink="http://www.w3.org/1999/xlink">
    <!-- Generator: Sketch 57.1 (83088) - https://sketch.com -->
    <title>next-error/left</title>
    <desc>Created with Sketch.</desc>
    <g id="next-error/left" stroke="none" stroke-width="1" fill="none" fill-rule="evenodd">
        <g id="next-error-left" transform="translate(1.000000, 1.000000)" fill="#FFFFFF">
            <path d="M21.3640289,0.434783911 L21.3640289,5.65218315 L29.5682014,5.65218315 C29.8065542,5.65218315 30,5.84696606 30,6.08696642 L30,13.9130653 C30,14.1530657 29.8065542,14.3478486 29.5682014,14.3478486 L21.3640289,14.3478486 L21.3640289,19.5652478 C21.3640289,19.7409002 21.2586701,19.8991614 21.0971774,19.9669875 C20.9356847,20.0339442 20.7500114,19.9974224 20.626517,19.8722048 L11.1269488,10.3069728 C11.0423163,10.2226249 11,10.1113204 11,10.0000159 C11,9.88871134 11.0423163,9.77740682 11.1269488,9.6921893 L20.626517,0.126957356 C20.7500114,0.00260934084 20.9356847,-0.0339124539 21.0971774,0.0330441698 C21.2586701,0.100000793 21.3640289,0.25913147 21.3640289,0.434783911 Z" id="Fill-47"></path>
            <path d="M8.5,13 C13.1874667,13 17,16.8125333 17,21.5 C17,26.1874667 13.1874667,30 8.5,30 C3.81366667,30 0,26.1874667 0,21.5 C0,16.8125333 3.81366667,13 8.5,13 Z M8.50002728,15 C7.9477576,15 7.50005457,15.447703 7.50005457,15.9999727 L7.50005457,21.9999454 C7.50005457,22.5522151 7.9477576,22.9999181 8.50002728,22.9999181 C9.05229697,22.9999181 9.5,22.5522151 9.5,21.9999454 L9.5,15.9999727 C9.5,15.447703 9.05229697,15 8.50002728,15 Z M8.5,27.5 C9.32842712,27.5 10,26.8284271 10,26 C10,25.1715729 9.32842712,24.5 8.5,24.5 C7.67157288,24.5 7,25.1715729 7,26 C7,26.8284271 7.67157288,27.5 8.5,27.5 Z" id="Combined-Shape" fill-opacity="0.4"></path>
        </g>
    </g>
</svg>