<?xml version="1.0" encoding="UTF-8"?>
<svg width="32px" height="32px" viewBox="0 0 32 32" version="1.1" xmlns="http://www.w3.org/2000/svg" xmlns:xlink="http://www.w3.org/1999/xlink">
    <!-- Generator: Sketch 57.1 (83088) - https://sketch.com -->
    <title>next-error/right</title>
    <desc>Created with Sketch.</desc>
    <g id="next-error/right" stroke="none" stroke-width="1" fill="none" fill-rule="evenodd">
        <g id="next-error-right" transform="translate(1.000000, 1.000000)" fill="#FFFFFF">
            <path d="M19.6359711,0.434783911 L19.6359711,5.65218315 L11.4317986,5.65218315 C11.1934458,5.65218315 11,5.84696606 11,6.08696642 L11,13.9130653 C11,14.1530657 11.1934458,14.3478486 11.4317986,14.3478486 L19.6359711,14.3478486 L19.6359711,19.5652478 C19.6359711,19.7409002 19.7413299,19.8991614 19.9028226,19.9669875 C20.0643153,20.0339442 20.2499886,19.9974224 20.373483,19.8722048 L29.8730512,10.3069728 C29.9576837,10.2226249 30,10.1113204 30,10.0000159 C30,9.88871134 29.9576837,9.77740682 29.8730512,9.6921893 L20.373483,0.126957356 C20.2499886,0.00260934084 20.0643153,-0.0339124539 19.9028226,0.0330441698 C19.7413299,0.100000793 19.6359711,0.25913147 19.6359711,0.434783911 Z" id="Fill-47"></path>
            <path d="M10,13.1324766 L10,13.9130907 C10,14.7038396 10.6396131,15.3478739 11.4317986,15.3478739 L14.3599541,15.3478739 C15.9855942,16.897007 17,19.0821062 17,21.5 C17,26.1874667 13.1874667,30 8.5,30 C3.81366667,30 0,26.1874667 0,21.5 C0,16.8125333 3.81366667,13 8.5,13 C9.01170009,13 9.5129739,13.0454327 10,13.1324766 Z M8.50002728,15 C7.9477576,15 7.50005457,15.447703 7.50005457,15.9999727 L7.50005457,21.9999454 C7.50005457,22.5522151 7.9477576,22.9999181 8.50002728,22.9999181 C9.05229697,22.9999181 9.5,22.5522151 9.5,21.9999454 L9.5,15.9999727 C9.5,15.447703 9.05229697,15 8.50002728,15 Z M8.5,27.5 C9.32842712,27.5 10,26.8284271 10,26 C10,25.1715729 9.32842712,24.5 8.5,24.5 C7.67157288,24.5 7,25.1715729 7,26 C7,26.8284271 7.67157288,27.5 8.5,27.5 Z" id="Combined-Shape" fill-opacity="0.4"></path>
        </g>
    </g>
</svg>