<?xml version="1.0" encoding="UTF-8"?>
<svg width="32px" height="32px" viewBox="0 0 32 32" version="1.1" xmlns="http://www.w3.org/2000/svg" xmlns:xlink="http://www.w3.org/1999/xlink">
    <!-- Generator: Sketch 57.1 (83088) - https://sketch.com -->
    <title>next-error/up</title>
    <desc>Created with Sketch.</desc>
    <g id="next-error/up" stroke="none" stroke-width="1" fill="none" fill-rule="evenodd">
        <g id="next-error-up" transform="translate(1.000000, 2.000000)" fill="#FFFFFF">
            <path d="M10.4593585,10.3916798 L15.4499143,10.3916798 L15.4499143,18.2391492 C15.4499143,18.4671388 15.6362284,18.6521739 15.865794,18.6521739 L23.3516277,18.6521739 C23.5811932,18.6521739 23.7675073,18.4671388 23.7675073,18.2391492 L23.7675073,10.3916798 L28.7580631,10.3916798 C28.9260785,10.3916798 29.0774587,10.2909018 29.1423359,10.1364306 C29.2063814,9.98195932 29.1714475,9.8043587 29.0516741,9.68623363 L19.9023219,0.599690133 C19.8216412,0.518737291 19.715176,0.47826087 19.6087108,0.47826087 C19.5022456,0.47826087 19.3957804,0.518737291 19.314268,0.599690133 L10.1649157,9.68623363 C10.0459742,9.8043587 10.0110403,9.98195932 10.0750857,10.1364306 C10.1391312,10.2909018 10.2913431,10.3916798 10.4593585,10.3916798 Z" id="Fill-47"></path>
            <path d="M14.4931096,15.5084736 L14.4931096,18.2389209 C14.4931096,18.9966635 15.1091425,19.6084673 15.865511,19.6084673 L16.2049283,19.6084673 C16.2418703,19.9223195 16.2608696,20.2415884 16.2608696,20.5652174 C16.2608696,25.0488812 12.6140986,28.6956522 8.13043478,28.6956522 C3.64785507,28.6956522 0,25.0488812 0,20.5652174 C0,16.0815536 3.64785507,12.4347826 8.13043478,12.4347826 C10.7042972,12.4347826 13.0023723,13.6365297 14.4931096,15.5084736 Z M8.13046088,14.3478261 C7.60220293,14.3478261 7.17396524,14.7760638 7.17396524,15.3043217 L7.17396524,21.0434261 C7.17396524,21.571684 7.60220293,21.9999217 8.13046088,21.9999217 C8.65871884,21.9999217 9.08695652,21.571684 9.08695652,21.0434261 L9.08695652,15.3043217 C9.08695652,14.7760638 8.65871884,14.3478261 8.13046088,14.3478261 Z M8.13043478,26.3043478 C8.92284334,26.3043478 9.56521739,25.6619738 9.56521739,24.8695652 C9.56521739,24.0771567 8.92284334,23.4347826 8.13043478,23.4347826 C7.33802623,23.4347826 6.69565217,24.0771567 6.69565217,24.8695652 C6.69565217,25.6619738 7.33802623,26.3043478 8.13043478,26.3043478 Z" id="Combined-Shape" fill-opacity="0.4"></path>
        </g>
    </g>
</svg>